{"glyphs":{"0":{"ha":926,"x_min":67,"x_max":860,"o":"m 464 -11 q 259 48 349 -11 q 118 219 169 107 q 67 486 67 332 q 118 753 67 640 q 259 924 169 865 q 464 983 349 983 q 667 924 578 983 q 808 753 757 865 q 860 486 860 640 q 808 219 860 332 q 667 48 757 107 q 464 -11 578 -11 m 464 113 q 651 208 581 113 q 721 486 721 304 q 651 764 721 668 q 464 860 581 860 q 276 764 346 860 q 206 486 206 668 q 276 208 206 304 q 464 113 346 113 z "},"1":{"ha":514,"x_min":11,"x_max":368,"o":"m 368 972 l 368 0 l 231 0 l 231 851 l 11 851 l 11 972 l 368 972 z "},"2":{"ha":797,"x_min":19,"x_max":750,"o":"m 750 121 l 750 0 l 51 0 l 51 94 l 447 476 q 544 597 519 546 q 569 699 569 647 q 516 817 569 775 q 363 860 463 860 q 114 754 201 860 l 19 836 q 169 944 76 906 q 375 983 261 983 q 618 910 528 983 q 708 713 708 838 q 675 565 708 635 q 549 407 642 496 l 251 121 l 750 121 z "},"3":{"ha":794,"x_min":7,"x_max":732,"o":"m 439 564 q 657 476 582 550 q 732 286 732 401 q 690 135 732 203 q 566 28 649 68 q 364 -11 483 -11 q 164 20 260 -11 q 7 107 68 51 l 71 217 q 199 141 121 169 q 364 113 276 113 q 533 158 472 113 q 593 285 593 204 q 533 410 593 365 q 353 454 474 454 l 275 454 l 275 551 l 519 851 l 51 851 l 51 972 l 693 972 l 693 878 l 439 564 z "},"4":{"ha":929,"x_min":53,"x_max":913,"o":"m 913 239 l 728 239 l 728 0 l 593 0 l 593 239 l 53 239 l 53 336 l 550 972 l 700 972 l 224 358 l 597 358 l 597 569 l 728 569 l 728 358 l 913 358 l 913 239 z "},"5":{"ha":797,"x_min":24,"x_max":749,"o":"m 344 585 q 651 506 553 585 q 749 292 749 428 q 708 137 749 206 q 584 28 667 68 q 381 -11 501 -11 q 182 20 278 -11 q 24 107 86 51 l 88 217 q 215 141 138 169 q 379 113 293 113 q 549 159 489 113 q 610 286 610 206 q 543 419 610 374 q 315 464 476 464 l 94 464 l 146 972 l 694 972 l 694 851 l 263 851 l 236 585 l 344 585 z "},"6":{"ha":857,"x_min":67,"x_max":819,"o":"m 486 590 q 658 554 582 590 q 776 451 733 518 q 819 296 819 383 q 774 135 819 204 q 651 27 729 65 q 475 -11 572 -11 q 173 115 279 -11 q 67 474 67 242 q 124 751 67 636 q 285 924 182 865 q 526 983 389 983 q 660 969 597 983 q 768 926 722 954 l 715 818 q 529 864 646 864 q 292 770 378 864 q 206 497 206 676 q 207 463 206 475 q 322 558 249 525 q 486 590 394 590 m 469 101 q 625 153 565 101 q 685 290 685 204 q 624 427 685 376 q 463 478 564 478 q 347 453 397 478 q 267 385 296 428 q 239 289 239 342 q 266 195 239 238 q 345 127 293 153 q 469 101 397 101 z "},"7":{"ha":831,"x_min":42,"x_max":775,"o":"m 775 972 l 775 878 l 382 0 l 235 0 l 619 851 l 175 851 l 175 678 l 42 678 l 42 972 l 775 972 z "},"8":{"ha":894,"x_min":61,"x_max":833,"o":"m 661 510 q 789 418 744 478 q 833 275 833 358 q 786 123 833 188 q 651 24 739 58 q 446 -11 564 -11 q 242 24 329 -11 q 108 123 156 58 q 61 275 61 188 q 105 418 61 358 q 232 510 149 478 q 131 594 165 542 q 96 719 96 647 q 140 860 96 800 q 263 951 183 919 q 446 983 342 983 q 631 951 551 983 q 755 860 711 919 q 799 719 799 800 q 763 595 799 649 q 661 510 728 542 m 446 871 q 290 828 347 871 q 233 714 233 786 q 290 600 233 642 q 446 558 346 558 q 605 600 547 558 q 663 714 663 642 q 603 828 663 786 q 446 871 544 871 m 446 101 q 628 149 561 101 q 694 279 694 197 q 628 406 694 360 q 446 453 561 453 q 265 406 331 453 q 200 279 200 360 q 265 149 200 197 q 446 101 331 101 z "},"9":{"ha":857,"x_min":39,"x_max":790,"o":"m 382 983 q 684 857 578 983 q 790 499 790 731 q 733 222 790 336 q 572 48 675 107 q 331 -11 468 -11 q 197 3 260 -11 q 89 46 135 18 l 142 154 q 329 108 213 108 q 566 202 481 108 q 651 475 651 296 l 651 510 q 536 415 610 447 q 371 382 463 382 q 199 418 275 382 q 81 522 124 454 q 39 676 39 589 q 84 838 39 768 q 207 945 129 907 q 382 983 285 983 m 394 494 q 511 519 460 494 q 591 588 563 544 q 619 683 619 631 q 592 777 619 735 q 513 845 565 819 q 388 871 461 871 q 233 819 292 871 q 174 682 174 768 q 233 545 174 596 q 394 494 293 494 z "},"\u0000":{"ha":0,"x_min":0,"x_max":0,"o":""},"\r":{"ha":374,"x_min":0,"x_max":0,"o":""}," ":{"ha":374,"x_min":0,"x_max":0,"o":""},"A":{"ha":1017,"x_min":-1,"x_max":1018,"o":"m 765 243 l 249 243 l 142 0 l -1 0 l 439 972 l 576 972 l 1018 0 l 872 0 l 765 243 m 717 354 l 507 831 l 297 354 l 717 354 z "},"Á":{"ha":1017,"x_min":-1,"x_max":1018,"o":"m 765 243 l 249 243 l 142 0 l -1 0 l 439 972 l 576 972 l 1018 0 l 872 0 l 765 243 m 717 354 l 507 831 l 297 354 l 717 354 m 593 1232 l 763 1232 l 529 1051 l 404 1051 l 593 1232 z "},"Ă":{"ha":1017,"x_min":-1,"x_max":1018,"o":"m 765 243 l 249 243 l 142 0 l -1 0 l 439 972 l 576 972 l 1018 0 l 872 0 l 765 243 m 717 354 l 507 831 l 297 354 l 717 354 m 508 1043 q 349 1094 413 1043 q 283 1232 286 1146 l 374 1232 q 413 1151 375 1182 q 508 1121 451 1121 q 603 1151 565 1121 q 643 1232 642 1182 l 733 1232 q 667 1094 731 1146 q 508 1043 604 1043 z "},"Ắ":{"ha":1017,"x_min":-1,"x_max":1018,"o":"m 765 243 l 249 243 l 142 0 l -1 0 l 439 972 l 576 972 l 1018 0 l 872 0 l 765 243 m 717 354 l 507 831 l 297 354 l 717 354 m 508 1043 q 353 1083 415 1043 q 283 1190 292 1122 l 372 1190 q 415 1137 378 1157 q 508 1117 453 1117 q 601 1137 564 1117 q 644 1190 639 1157 l 733 1190 q 663 1083 725 1122 q 508 1043 601 1043 m 576 1379 l 728 1379 l 522 1222 l 413 1222 l 576 1379 z "},"Ặ":{"ha":1017,"x_min":-1,"x_max":1018,"o":"m 765 243 l 249 243 l 142 0 l -1 0 l 439 972 l 576 972 l 1018 0 l 872 0 l 765 243 m 717 354 l 507 831 l 297 354 l 717 354 m 508 -272 q 458 -253 479 -272 q 438 -203 438 -233 q 458 -151 438 -172 q 508 -131 479 -131 q 558 -151 538 -131 q 579 -203 579 -172 q 558 -253 579 -233 q 508 -272 538 -272 m 508 1043 q 349 1094 413 1043 q 283 1232 286 1146 l 374 1232 q 413 1151 375 1182 q 508 1121 451 1121 q 603 1151 565 1121 q 643 1232 642 1182 l 733 1232 q 667 1094 731 1146 q 508 1043 604 1043 z "},"Ằ":{"ha":1017,"x_min":-1,"x_max":1018,"o":"m 765 243 l 249 243 l 142 0 l -1 0 l 439 972 l 576 972 l 1018 0 l 872 0 l 765 243 m 717 354 l 507 831 l 297 354 l 717 354 m 508 1043 q 353 1083 415 1043 q 283 1190 292 1122 l 372 1190 q 415 1137 378 1157 q 508 1117 453 1117 q 601 1137 564 1117 q 644 1190 639 1157 l 733 1190 q 663 1083 725 1122 q 508 1043 601 1043 m 290 1379 l 442 1379 l 604 1222 l 496 1222 l 290 1379 z "},"Ẳ":{"ha":1017,"x_min":-1,"x_max":1018,"o":"m 765 243 l 249 243 l 142 0 l -1 0 l 439 972 l 576 972 l 1018 0 l 872 0 l 765 243 m 717 354 l 507 831 l 297 354 l 717 354 m 508 1043 q 353 1083 415 1043 q 283 1190 292 1122 l 372 1190 q 415 1137 378 1157 q 508 1117 453 1117 q 601 1137 564 1117 q 644 1190 639 1157 l 733 1190 q 663 1083 725 1122 q 508 1043 601 1043 m 494 1225 q 536 1256 522 1238 q 550 1292 550 1274 q 535 1323 550 1311 q 497 1335 521 1335 q 438 1318 467 1335 l 413 1369 q 508 1396 454 1396 q 588 1369 558 1396 q 617 1299 617 1342 q 593 1231 617 1261 q 531 1185 569 1201 l 494 1225 z "},"Ẵ":{"ha":1017,"x_min":-1,"x_max":1018,"o":"m 765 243 l 249 243 l 142 0 l -1 0 l 439 972 l 576 972 l 1018 0 l 872 0 l 765 243 m 717 354 l 507 831 l 297 354 l 717 354 m 508 1043 q 353 1083 415 1043 q 283 1190 292 1122 l 372 1190 q 415 1137 378 1157 q 508 1117 453 1117 q 601 1137 564 1117 q 644 1190 639 1157 l 733 1190 q 663 1083 725 1122 q 508 1043 601 1043 m 606 1229 q 545 1240 571 1229 q 486 1274 519 1251 q 418 1304 443 1304 q 354 1235 357 1304 l 279 1235 q 316 1340 281 1301 q 413 1378 351 1378 q 470 1367 444 1378 q 529 1333 496 1356 q 568 1310 553 1318 q 600 1303 583 1303 q 647 1321 631 1303 q 664 1371 663 1339 l 738 1371 q 701 1267 736 1306 q 606 1229 665 1229 z "},"Ǎ":{"ha":1017,"x_min":-1,"x_max":1018,"o":"m 765 243 l 249 243 l 142 0 l -1 0 l 439 972 l 576 972 l 1018 0 l 872 0 l 765 243 m 717 354 l 507 831 l 297 354 l 717 354 m 757 1232 l 572 1051 l 444 1051 l 260 1232 l 381 1232 l 508 1126 l 636 1232 l 757 1232 z "},"Â":{"ha":1017,"x_min":-1,"x_max":1018,"o":"m 765 243 l 249 243 l 142 0 l -1 0 l 439 972 l 576 972 l 1018 0 l 872 0 l 765 243 m 717 354 l 507 831 l 297 354 l 717 354 m 636 1051 l 508 1158 l 381 1051 l 260 1051 l 444 1232 l 572 1232 l 757 1051 l 636 1051 z "},"Ấ":{"ha":1017,"x_min":-1,"x_max":1018,"o":"m 765 243 l 249 243 l 142 0 l -1 0 l 439 972 l 576 972 l 1018 0 l 872 0 l 765 243 m 717 354 l 507 831 l 297 354 l 717 354 m 635 1051 l 508 1129 l 382 1051 l 260 1051 l 446 1190 l 571 1190 l 757 1051 l 635 1051 m 810 1331 l 961 1331 l 756 1174 l 646 1174 l 810 1331 z "},"Ậ":{"ha":1017,"x_min":-1,"x_max":1018,"o":"m 765 243 l 249 243 l 142 0 l -1 0 l 439 972 l 576 972 l 1018 0 l 872 0 l 765 243 m 717 354 l 507 831 l 297 354 l 717 354 m 508 -272 q 458 -253 479 -272 q 438 -203 438 -233 q 458 -151 438 -172 q 508 -131 479 -131 q 558 -151 538 -131 q 579 -203 579 -172 q 558 -253 579 -233 q 508 -272 538 -272 m 636 1051 l 508 1158 l 381 1051 l 260 1051 l 444 1232 l 572 1232 l 757 1051 l 636 1051 z "},"Ầ":{"ha":1017,"x_min":-1,"x_max":1018,"o":"m 765 243 l 249 243 l 142 0 l -1 0 l 439 972 l 576 972 l 1018 0 l 872 0 l 765 243 m 717 354 l 507 831 l 297 354 l 717 354 m 635 1051 l 508 1129 l 382 1051 l 260 1051 l 446 1190 l 571 1190 l 757 1051 l 635 1051 m 524 1331 l 675 1331 l 838 1174 l 729 1174 l 524 1331 z "},"Ẩ":{"ha":1017,"x_min":-1,"x_max":1018,"o":"m 765 243 l 249 243 l 142 0 l -1 0 l 439 972 l 576 972 l 1018 0 l 872 0 l 765 243 m 717 354 l 507 831 l 297 354 l 717 354 m 635 1051 l 508 1129 l 382 1051 l 260 1051 l 446 1190 l 571 1190 l 757 1051 l 635 1051 m 675 1189 q 717 1219 703 1201 q 731 1256 731 1238 q 716 1287 731 1275 q 678 1299 701 1299 q 618 1282 647 1299 l 593 1333 q 689 1360 635 1360 q 768 1333 739 1360 q 797 1263 797 1306 q 774 1195 797 1225 q 711 1149 750 1165 l 675 1189 z "},"Ẫ":{"ha":1017,"x_min":-1,"x_max":1018,"o":"m 765 243 l 249 243 l 142 0 l -1 0 l 439 972 l 576 972 l 1018 0 l 872 0 l 765 243 m 717 354 l 507 831 l 297 354 l 717 354 m 635 1051 l 508 1129 l 382 1051 l 260 1051 l 446 1190 l 571 1190 l 757 1051 l 635 1051 m 606 1238 q 545 1249 571 1238 q 486 1282 519 1260 q 418 1313 443 1313 q 354 1243 357 1313 l 279 1243 q 316 1348 281 1310 q 413 1386 351 1386 q 470 1375 444 1386 q 529 1342 496 1364 q 568 1319 553 1326 q 600 1311 583 1311 q 647 1329 631 1311 q 664 1379 663 1347 l 738 1379 q 701 1276 736 1314 q 606 1238 665 1238 z "},"Ȁ":{"ha":1017,"x_min":-1,"x_max":1018,"o":"m 765 243 l 249 243 l 142 0 l -1 0 l 439 972 l 576 972 l 1018 0 l 872 0 l 765 243 m 717 354 l 507 831 l 297 354 l 717 354 m 179 1232 l 319 1232 l 443 1051 l 331 1051 l 179 1232 m 419 1232 l 561 1232 l 686 1051 l 574 1051 l 419 1232 z "},"Ä":{"ha":1017,"x_min":-1,"x_max":1018,"o":"m 765 243 l 249 243 l 142 0 l -1 0 l 439 972 l 576 972 l 1018 0 l 872 0 l 765 243 m 717 354 l 507 831 l 297 354 l 717 354 m 379 1075 q 329 1095 350 1075 q 308 1146 308 1115 q 329 1197 308 1176 q 379 1218 350 1218 q 429 1197 408 1218 q 450 1146 450 1176 q 429 1095 450 1115 q 379 1075 408 1075 m 638 1075 q 588 1095 608 1075 q 567 1146 567 1115 q 588 1197 567 1176 q 638 1218 608 1218 q 688 1197 667 1218 q 708 1146 708 1176 q 688 1095 708 1115 q 638 1075 667 1075 z "},"Ạ":{"ha":1017,"x_min":-1,"x_max":1018,"o":"m 765 243 l 249 243 l 142 0 l -1 0 l 439 972 l 576 972 l 1018 0 l 872 0 l 765 243 m 717 354 l 507 831 l 297 354 l 717 354 m 508 -272 q 458 -253 479 -272 q 438 -203 438 -233 q 458 -151 438 -172 q 508 -131 479 -131 q 558 -151 538 -131 q 579 -203 579 -172 q 558 -253 579 -233 q 508 -272 538 -272 z "},"À":{"ha":1017,"x_min":-1,"x_max":1018,"o":"m 765 243 l 249 243 l 142 0 l -1 0 l 439 972 l 576 972 l 1018 0 l 872 0 l 765 243 m 717 354 l 507 831 l 297 354 l 717 354 m 254 1232 l 424 1232 l 613 1051 l 488 1051 l 254 1232 z "},"Ả":{"ha":1017,"x_min":-1,"x_max":1018,"o":"m 765 243 l 249 243 l 142 0 l -1 0 l 439 972 l 576 972 l 1018 0 l 872 0 l 765 243 m 717 354 l 507 831 l 297 354 l 717 354 m 489 1093 q 548 1134 529 1111 q 567 1186 567 1157 q 547 1233 567 1214 q 494 1251 526 1251 q 411 1225 451 1251 l 381 1288 q 439 1317 406 1307 q 507 1326 472 1326 q 609 1291 569 1326 q 649 1197 649 1256 q 535 1039 649 1092 l 489 1093 z "},"Ȃ":{"ha":1017,"x_min":-1,"x_max":1018,"o":"m 765 243 l 249 243 l 142 0 l -1 0 l 439 972 l 576 972 l 1018 0 l 872 0 l 765 243 m 717 354 l 507 831 l 297 354 l 717 354 m 283 1051 q 349 1189 286 1138 q 508 1240 413 1240 q 667 1189 604 1240 q 733 1051 731 1138 l 643 1051 q 603 1133 642 1103 q 508 1163 565 1163 q 413 1133 451 1163 q 374 1051 375 1103 l 283 1051 z "},"Ā":{"ha":1017,"x_min":-1,"x_max":1018,"o":"m 765 243 l 249 243 l 142 0 l -1 0 l 439 972 l 576 972 l 1018 0 l 872 0 l 765 243 m 717 354 l 507 831 l 297 354 l 717 354 m 282 1183 l 735 1183 l 735 1100 l 282 1100 l 282 1183 z "},"Ą":{"ha":1017,"x_min":-1,"x_max":1049,"o":"m 765 243 l 249 243 l 142 0 l -1 0 l 439 972 l 576 972 l 1018 0 l 872 0 l 765 243 m 717 354 l 507 831 l 297 354 l 717 354 m 924 -311 q 801 -273 846 -311 q 757 -171 757 -235 q 804 -53 757 -110 q 956 44 851 3 l 1018 0 q 891 -78 929 -39 q 853 -161 853 -118 q 876 -214 853 -194 q 938 -233 900 -233 q 1024 -210 989 -233 l 1049 -278 q 924 -311 996 -311 z "},"Å":{"ha":1017,"x_min":-1,"x_max":1018,"o":"m 765 243 l 249 243 l 142 0 l -1 0 l 439 972 l 576 972 l 1018 0 l 872 0 l 765 243 m 717 354 l 507 831 l 297 354 l 717 354 m 507 1061 q 399 1105 443 1061 q 354 1211 354 1149 q 399 1319 354 1274 q 507 1364 443 1364 q 617 1319 572 1364 q 661 1211 661 1274 q 617 1105 661 1149 q 507 1061 572 1061 m 507 1119 q 573 1146 547 1119 q 599 1211 599 1172 q 572 1278 599 1251 q 507 1304 546 1304 q 442 1278 468 1304 q 417 1211 417 1251 q 442 1146 417 1172 q 507 1119 468 1119 z "},"Ǻ":{"ha":1017,"x_min":-1,"x_max":1018,"o":"m 765 243 l 249 243 l 142 0 l -1 0 l 439 972 l 576 972 l 1018 0 l 872 0 l 765 243 m 717 354 l 507 831 l 297 354 l 717 354 m 635 1299 q 661 1211 661 1260 q 617 1105 661 1149 q 507 1061 572 1061 q 399 1105 443 1061 q 354 1211 354 1149 q 399 1319 354 1274 q 507 1364 443 1364 q 582 1344 547 1364 l 699 1463 l 768 1406 l 635 1299 m 507 1119 q 573 1146 547 1119 q 599 1211 599 1172 q 572 1278 599 1251 q 507 1304 546 1304 q 442 1278 468 1304 q 417 1211 417 1251 q 442 1146 417 1172 q 507 1119 468 1119 z "},"Ã":{"ha":1017,"x_min":-1,"x_max":1018,"o":"m 765 243 l 249 243 l 142 0 l -1 0 l 439 972 l 576 972 l 1018 0 l 872 0 l 765 243 m 717 354 l 507 831 l 297 354 l 717 354 m 606 1056 q 548 1069 572 1056 q 488 1111 524 1083 q 451 1140 467 1131 q 421 1149 436 1149 q 371 1126 390 1149 q 350 1063 351 1103 l 275 1063 q 315 1186 278 1140 q 411 1232 351 1232 q 470 1217 444 1232 q 529 1175 496 1203 q 567 1147 553 1156 q 596 1138 581 1138 q 646 1160 626 1138 q 667 1221 665 1182 l 742 1221 q 702 1101 739 1146 q 606 1056 665 1056 z "},"Æ":{"ha":1454,"x_min":-1,"x_max":1376,"o":"m 1376 121 l 1376 0 l 671 0 l 671 243 l 285 243 l 142 0 l -1 0 l 578 972 l 1357 972 l 1357 851 l 808 851 l 808 553 l 1296 553 l 1296 435 l 808 435 l 808 121 l 1376 121 m 671 354 l 671 851 l 643 851 l 350 354 l 671 354 z "},"Ǽ":{"ha":1454,"x_min":-1,"x_max":1376,"o":"m 1376 121 l 1376 0 l 671 0 l 671 243 l 285 243 l 142 0 l -1 0 l 578 972 l 1357 972 l 1357 851 l 808 851 l 808 553 l 1296 553 l 1296 435 l 808 435 l 808 121 l 1376 121 m 671 354 l 671 851 l 643 851 l 350 354 l 671 354 m 824 1232 l 993 1232 l 760 1051 l 635 1051 l 824 1232 z "},"B":{"ha":1051,"x_min":146,"x_max":982,"o":"m 800 504 q 933 419 885 481 q 982 263 982 357 q 887 68 982 136 q 610 0 792 0 l 146 0 l 146 972 l 582 972 q 840 906 749 972 q 931 721 931 839 q 895 589 931 644 q 800 504 860 533 m 285 860 l 285 549 l 569 549 q 734 588 676 549 q 792 704 792 628 q 734 820 792 781 q 569 860 676 860 l 285 860 m 604 113 q 782 151 722 113 q 842 274 842 190 q 604 436 842 436 l 285 436 l 285 113 l 604 113 z "},"C":{"ha":1004,"x_min":67,"x_max":951,"o":"m 581 -11 q 317 53 435 -11 q 133 231 200 118 q 67 486 67 344 q 133 741 67 628 q 318 919 200 854 q 582 983 436 983 q 790 945 696 983 q 951 832 885 907 l 861 744 q 588 860 751 860 q 392 811 479 860 q 255 677 304 763 q 206 486 206 592 q 255 295 206 381 q 392 161 304 210 q 588 113 479 113 q 861 229 750 113 l 951 142 q 790 28 885 67 q 581 -11 694 -11 z "},"Ć":{"ha":1004,"x_min":67,"x_max":951,"o":"m 581 -11 q 317 53 435 -11 q 133 231 200 118 q 67 486 67 344 q 133 741 67 628 q 318 919 200 854 q 582 983 436 983 q 790 945 696 983 q 951 832 885 907 l 861 744 q 588 860 751 860 q 392 811 479 860 q 255 677 304 763 q 206 486 206 592 q 255 295 206 381 q 392 161 304 210 q 588 113 479 113 q 861 229 750 113 l 951 142 q 790 28 885 67 q 581 -11 694 -11 m 656 1232 l 825 1232 l 592 1051 l 467 1051 l 656 1232 z "},"Č":{"ha":1004,"x_min":67,"x_max":951,"o":"m 581 -11 q 317 53 435 -11 q 133 231 200 118 q 67 486 67 344 q 133 741 67 628 q 318 919 200 854 q 582 983 436 983 q 790 945 696 983 q 951 832 885 907 l 861 744 q 588 860 751 860 q 392 811 479 860 q 255 677 304 763 q 206 486 206 592 q 255 295 206 381 q 392 161 304 210 q 588 113 479 113 q 861 229 750 113 l 951 142 q 790 28 885 67 q 581 -11 694 -11 m 819 1232 l 635 1051 l 507 1051 l 322 1232 l 443 1232 l 571 1126 l 699 1232 l 819 1232 z "},"Ç":{"ha":1004,"x_min":67,"x_max":951,"o":"m 581 -11 q 317 53 435 -11 q 133 231 200 118 q 67 486 67 344 q 133 741 67 628 q 318 919 200 854 q 582 983 436 983 q 790 945 696 983 q 951 832 885 907 l 861 744 q 588 860 751 860 q 392 811 479 860 q 255 677 304 763 q 206 486 206 592 q 255 295 206 381 q 392 161 304 210 q 588 113 479 113 q 861 229 750 113 l 951 142 q 790 28 885 67 q 581 -11 694 -11 m 524 -311 q 400 -281 451 -311 l 429 -212 q 524 -236 471 -236 q 601 -181 601 -236 q 582 -141 601 -156 q 522 -126 563 -126 l 485 -126 l 519 10 l 596 10 l 575 -69 q 665 -106 633 -75 q 696 -185 696 -137 q 649 -277 696 -243 q 524 -311 601 -311 z "},"Ḉ":{"ha":1004,"x_min":67,"x_max":951,"o":"m 581 -11 q 317 53 435 -11 q 133 231 200 118 q 67 486 67 344 q 133 741 67 628 q 318 919 200 854 q 582 983 436 983 q 790 945 696 983 q 951 832 885 907 l 861 744 q 588 860 751 860 q 392 811 479 860 q 255 677 304 763 q 206 486 206 592 q 255 295 206 381 q 392 161 304 210 q 588 113 479 113 q 861 229 750 113 l 951 142 q 790 28 885 67 q 581 -11 694 -11 m 524 -311 q 400 -281 451 -311 l 429 -212 q 524 -236 471 -236 q 601 -181 601 -236 q 582 -141 601 -156 q 522 -126 563 -126 l 485 -126 l 519 10 l 596 10 l 575 -69 q 665 -106 633 -75 q 696 -185 696 -137 q 649 -277 696 -243 q 524 -311 601 -311 m 656 1232 l 825 1232 l 592 1051 l 467 1051 l 656 1232 z "},"Ĉ":{"ha":1004,"x_min":67,"x_max":951,"o":"m 581 -11 q 317 53 435 -11 q 133 231 200 118 q 67 486 67 344 q 133 741 67 628 q 318 919 200 854 q 582 983 436 983 q 790 945 696 983 q 951 832 885 907 l 861 744 q 588 860 751 860 q 392 811 479 860 q 255 677 304 763 q 206 486 206 592 q 255 295 206 381 q 392 161 304 210 q 588 113 479 113 q 861 229 750 113 l 951 142 q 790 28 885 67 q 581 -11 694 -11 m 699 1051 l 571 1158 l 443 1051 l 322 1051 l 507 1232 l 635 1232 l 819 1051 l 699 1051 z "},"Ċ":{"ha":1004,"x_min":67,"x_max":951,"o":"m 581 -11 q 317 53 435 -11 q 133 231 200 118 q 67 486 67 344 q 133 741 67 628 q 318 919 200 854 q 582 983 436 983 q 790 945 696 983 q 951 832 885 907 l 861 744 q 588 860 751 860 q 392 811 479 860 q 255 677 304 763 q 206 486 206 592 q 255 295 206 381 q 392 161 304 210 q 588 113 479 113 q 861 229 750 113 l 951 142 q 790 28 885 67 q 581 -11 694 -11 m 571 1076 q 513 1100 536 1076 q 489 1158 489 1124 q 513 1217 489 1193 q 571 1240 536 1240 q 629 1217 606 1240 q 653 1158 653 1193 q 629 1100 653 1124 q 571 1076 606 1076 z "},"D":{"ha":1147,"x_min":146,"x_max":1081,"o":"m 146 972 l 556 972 q 829 911 710 972 q 1015 740 949 850 q 1081 486 1081 629 q 1015 233 1081 343 q 829 61 949 122 q 556 0 710 0 l 146 0 l 146 972 m 547 121 q 755 167 665 121 q 893 295 844 213 q 942 486 942 378 q 893 677 942 594 q 755 806 844 760 q 547 851 665 851 l 285 851 l 285 121 l 547 121 z "},"Ǆ":{"ha":2019,"x_min":146,"x_max":1972,"o":"m 146 972 l 556 972 q 829 911 710 972 q 1015 740 949 850 q 1081 486 1081 629 q 1015 233 1081 343 q 829 61 949 122 q 556 0 710 0 l 146 0 l 146 972 m 547 121 q 755 167 665 121 q 893 295 844 213 q 942 486 942 378 q 893 677 942 594 q 755 806 844 760 q 547 851 665 851 l 285 851 l 285 121 l 547 121 m 1972 121 l 1972 0 l 1160 0 l 1160 94 l 1771 851 l 1169 851 l 1169 972 l 1954 972 l 1954 878 l 1346 121 l 1972 121 m 1815 1232 l 1631 1051 l 1503 1051 l 1318 1232 l 1439 1232 l 1567 1126 l 1694 1232 l 1815 1232 z "},"Ð":{"ha":1158,"x_min":15,"x_max":1092,"o":"m 157 972 l 567 972 q 840 911 721 972 q 1026 740 960 850 q 1092 486 1092 629 q 1026 233 1092 343 q 840 61 960 122 q 567 0 721 0 l 157 0 l 157 972 m 558 121 q 766 167 676 121 q 904 295 856 213 q 953 486 953 378 q 904 677 953 594 q 766 806 856 760 q 558 851 676 851 l 296 851 l 296 121 l 558 121 m 15 550 l 571 550 l 571 440 l 15 440 l 15 550 z "},"Ď":{"ha":1147,"x_min":146,"x_max":1081,"o":"m 146 972 l 556 972 q 829 911 710 972 q 1015 740 949 850 q 1081 486 1081 629 q 1015 233 1081 343 q 829 61 949 122 q 556 0 710 0 l 146 0 l 146 972 m 547 121 q 755 167 665 121 q 893 295 844 213 q 942 486 942 378 q 893 677 942 594 q 755 806 844 760 q 547 851 665 851 l 285 851 l 285 121 l 547 121 m 775 1231 l 590 1050 l 463 1050 l 278 1231 l 399 1231 l 526 1125 l 654 1231 l 775 1231 z "},"Đ":{"ha":1158,"x_min":15,"x_max":1092,"o":"m 157 972 l 567 972 q 840 911 721 972 q 1026 740 960 850 q 1092 486 1092 629 q 1026 233 1092 343 q 840 61 960 122 q 567 0 721 0 l 157 0 l 157 972 m 558 121 q 766 167 676 121 q 904 295 856 213 q 953 486 953 378 q 904 677 953 594 q 766 806 856 760 q 558 851 676 851 l 296 851 l 296 121 l 558 121 m 15 550 l 571 550 l 571 440 l 15 440 l 15 550 z "},"Ḍ":{"ha":1147,"x_min":146,"x_max":1081,"o":"m 146 972 l 556 972 q 829 911 710 972 q 1015 740 949 850 q 1081 486 1081 629 q 1015 233 1081 343 q 829 61 949 122 q 556 0 710 0 l 146 0 l 146 972 m 547 121 q 755 167 665 121 q 893 295 844 213 q 942 486 942 378 q 893 677 942 594 q 755 806 844 760 q 547 851 665 851 l 285 851 l 285 121 l 547 121 m 532 -272 q 482 -253 503 -272 q 461 -203 461 -233 q 482 -151 461 -172 q 532 -131 503 -131 q 582 -151 561 -131 q 603 -203 603 -172 q 582 -253 603 -233 q 532 -272 561 -272 z "},"Ḏ":{"ha":1147,"x_min":146,"x_max":1081,"o":"m 146 972 l 556 972 q 829 911 710 972 q 1015 740 949 850 q 1081 486 1081 629 q 1015 233 1081 343 q 829 61 949 122 q 556 0 710 0 l 146 0 l 146 972 m 547 121 q 755 167 665 121 q 893 295 844 213 q 942 486 942 378 q 893 677 942 594 q 755 806 844 760 q 547 851 665 851 l 285 851 l 285 121 l 547 121 m 306 -157 l 758 -157 l 758 -242 l 306 -242 l 306 -157 z "},"ǅ":{"ha":1871,"x_min":146,"x_max":1819,"o":"m 146 972 l 556 972 q 829 911 710 972 q 1015 740 949 850 q 1081 486 1081 629 q 1015 233 1081 343 q 829 61 949 122 q 556 0 710 0 l 146 0 l 146 972 m 547 121 q 755 167 665 121 q 893 295 844 213 q 942 486 942 378 q 893 677 942 594 q 755 806 844 760 q 547 851 665 851 l 285 851 l 285 121 l 547 121 m 1819 110 l 1819 0 l 1203 0 l 1203 86 l 1638 626 l 1211 626 l 1211 736 l 1808 736 l 1808 649 l 1374 110 l 1819 110 m 1760 1024 l 1575 843 l 1447 843 l 1263 1024 l 1383 1024 l 1511 918 l 1639 1024 l 1760 1024 z "},"E":{"ha":931,"x_min":146,"x_max":851,"o":"m 851 121 l 851 0 l 146 0 l 146 972 l 832 972 l 832 851 l 285 851 l 285 553 l 772 553 l 772 435 l 285 435 l 285 121 l 851 121 z "},"É":{"ha":931,"x_min":146,"x_max":851,"o":"m 851 121 l 851 0 l 146 0 l 146 972 l 832 972 l 832 851 l 285 851 l 285 553 l 772 553 l 772 435 l 285 435 l 285 121 l 851 121 m 575 1232 l 744 1232 l 511 1051 l 386 1051 l 575 1232 z "},"Ĕ":{"ha":931,"x_min":146,"x_max":851,"o":"m 851 121 l 851 0 l 146 0 l 146 972 l 832 972 l 832 851 l 285 851 l 285 553 l 772 553 l 772 435 l 285 435 l 285 121 l 851 121 m 490 1043 q 331 1094 394 1043 q 265 1232 268 1146 l 356 1232 q 395 1151 357 1182 q 490 1121 433 1121 q 585 1151 547 1121 q 625 1232 624 1182 l 715 1232 q 649 1094 713 1146 q 490 1043 586 1043 z "},"Ě":{"ha":931,"x_min":146,"x_max":851,"o":"m 851 121 l 851 0 l 146 0 l 146 972 l 832 972 l 832 851 l 285 851 l 285 553 l 772 553 l 772 435 l 285 435 l 285 121 l 851 121 m 739 1232 l 554 1051 l 426 1051 l 242 1232 l 363 1232 l 490 1126 l 618 1232 l 739 1232 z "},"Ḝ":{"ha":931,"x_min":146,"x_max":851,"o":"m 851 121 l 851 0 l 146 0 l 146 972 l 832 972 l 832 851 l 285 851 l 285 553 l 772 553 l 772 435 l 285 435 l 285 121 l 851 121 m 469 -311 q 346 -281 397 -311 l 375 -212 q 469 -236 417 -236 q 547 -181 547 -236 q 528 -141 547 -156 q 468 -126 508 -126 l 431 -126 l 465 10 l 542 10 l 521 -69 q 610 -106 579 -75 q 642 -185 642 -137 q 594 -277 642 -243 q 469 -311 547 -311 m 490 1043 q 331 1094 394 1043 q 265 1232 268 1146 l 356 1232 q 395 1151 357 1182 q 490 1121 433 1121 q 585 1151 547 1121 q 625 1232 624 1182 l 715 1232 q 649 1094 713 1146 q 490 1043 586 1043 z "},"Ê":{"ha":931,"x_min":146,"x_max":851,"o":"m 851 121 l 851 0 l 146 0 l 146 972 l 832 972 l 832 851 l 285 851 l 285 553 l 772 553 l 772 435 l 285 435 l 285 121 l 851 121 m 618 1051 l 490 1158 l 363 1051 l 242 1051 l 426 1232 l 554 1232 l 739 1051 l 618 1051 z "},"Ế":{"ha":931,"x_min":146,"x_max":943,"o":"m 851 121 l 851 0 l 146 0 l 146 972 l 832 972 l 832 851 l 285 851 l 285 553 l 772 553 l 772 435 l 285 435 l 285 121 l 851 121 m 617 1051 l 490 1129 l 364 1051 l 242 1051 l 428 1190 l 553 1190 l 739 1051 l 617 1051 m 792 1331 l 943 1331 l 738 1174 l 628 1174 l 792 1331 z "},"Ệ":{"ha":931,"x_min":146,"x_max":851,"o":"m 851 121 l 851 0 l 146 0 l 146 972 l 832 972 l 832 851 l 285 851 l 285 553 l 772 553 l 772 435 l 285 435 l 285 121 l 851 121 m 504 -272 q 454 -253 475 -272 q 433 -203 433 -233 q 454 -151 433 -172 q 504 -131 475 -131 q 554 -151 533 -131 q 575 -203 575 -172 q 554 -253 575 -233 q 504 -272 533 -272 m 618 1051 l 490 1158 l 363 1051 l 242 1051 l 426 1232 l 554 1232 l 739 1051 l 618 1051 z "},"Ề":{"ha":931,"x_min":146,"x_max":851,"o":"m 851 121 l 851 0 l 146 0 l 146 972 l 832 972 l 832 851 l 285 851 l 285 553 l 772 553 l 772 435 l 285 435 l 285 121 l 851 121 m 617 1051 l 490 1129 l 364 1051 l 242 1051 l 428 1190 l 553 1190 l 739 1051 l 617 1051 m 506 1331 l 657 1331 l 819 1174 l 711 1174 l 506 1331 z "},"Ể":{"ha":931,"x_min":146,"x_max":851,"o":"m 851 121 l 851 0 l 146 0 l 146 972 l 832 972 l 832 851 l 285 851 l 285 553 l 772 553 l 772 435 l 285 435 l 285 121 l 851 121 m 617 1051 l 490 1129 l 364 1051 l 242 1051 l 428 1190 l 553 1190 l 739 1051 l 617 1051 m 657 1189 q 699 1219 685 1201 q 713 1256 713 1238 q 698 1287 713 1275 q 660 1299 683 1299 q 600 1282 629 1299 l 575 1333 q 671 1360 617 1360 q 750 1333 721 1360 q 779 1263 779 1306 q 756 1195 779 1225 q 693 1149 732 1165 l 657 1189 z "},"Ễ":{"ha":931,"x_min":146,"x_max":851,"o":"m 851 121 l 851 0 l 146 0 l 146 972 l 832 972 l 832 851 l 285 851 l 285 553 l 772 553 l 772 435 l 285 435 l 285 121 l 851 121 m 617 1051 l 490 1129 l 364 1051 l 242 1051 l 428 1190 l 553 1190 l 739 1051 l 617 1051 m 588 1238 q 527 1249 553 1238 q 468 1282 501 1260 q 400 1313 425 1313 q 336 1243 339 1313 l 261 1243 q 298 1348 263 1310 q 394 1386 333 1386 q 452 1375 426 1386 q 511 1342 478 1364 q 550 1319 535 1326 q 582 1311 565 1311 q 628 1329 613 1311 q 646 1379 644 1347 l 719 1379 q 683 1276 718 1314 q 588 1238 647 1238 z "},"Ȅ":{"ha":931,"x_min":146,"x_max":851,"o":"m 851 121 l 851 0 l 146 0 l 146 972 l 832 972 l 832 851 l 285 851 l 285 553 l 772 553 l 772 435 l 285 435 l 285 121 l 851 121 m 161 1232 l 301 1232 l 425 1051 l 313 1051 l 161 1232 m 401 1232 l 543 1232 l 668 1051 l 556 1051 l 401 1232 z "},"Ë":{"ha":931,"x_min":146,"x_max":851,"o":"m 851 121 l 851 0 l 146 0 l 146 972 l 832 972 l 832 851 l 285 851 l 285 553 l 772 553 l 772 435 l 285 435 l 285 121 l 851 121 m 361 1075 q 311 1095 332 1075 q 290 1146 290 1115 q 311 1197 290 1176 q 361 1218 332 1218 q 411 1197 390 1218 q 432 1146 432 1176 q 411 1095 432 1115 q 361 1075 390 1075 m 619 1075 q 569 1095 590 1075 q 549 1146 549 1115 q 569 1197 549 1176 q 619 1218 590 1218 q 669 1197 649 1218 q 690 1146 690 1176 q 669 1095 690 1115 q 619 1075 649 1075 z "},"Ė":{"ha":931,"x_min":146,"x_max":851,"o":"m 851 121 l 851 0 l 146 0 l 146 972 l 832 972 l 832 851 l 285 851 l 285 553 l 772 553 l 772 435 l 285 435 l 285 121 l 851 121 m 490 1076 q 432 1100 456 1076 q 408 1158 408 1124 q 432 1217 408 1193 q 490 1240 456 1240 q 549 1217 525 1240 q 572 1158 572 1193 q 549 1100 572 1124 q 490 1076 525 1076 z "},"Ẹ":{"ha":931,"x_min":146,"x_max":851,"o":"m 851 121 l 851 0 l 146 0 l 146 972 l 832 972 l 832 851 l 285 851 l 285 553 l 772 553 l 772 435 l 285 435 l 285 121 l 851 121 m 504 -272 q 454 -253 475 -272 q 433 -203 433 -233 q 454 -151 433 -172 q 504 -131 475 -131 q 554 -151 533 -131 q 575 -203 575 -172 q 554 -253 575 -233 q 504 -272 533 -272 z "},"È":{"ha":931,"x_min":146,"x_max":851,"o":"m 851 121 l 851 0 l 146 0 l 146 972 l 832 972 l 832 851 l 285 851 l 285 553 l 772 553 l 772 435 l 285 435 l 285 121 l 851 121 m 236 1232 l 406 1232 l 594 1051 l 469 1051 l 236 1232 z "},"Ẻ":{"ha":931,"x_min":146,"x_max":851,"o":"m 851 121 l 851 0 l 146 0 l 146 972 l 832 972 l 832 851 l 285 851 l 285 553 l 772 553 l 772 435 l 285 435 l 285 121 l 851 121 m 471 1093 q 530 1134 511 1111 q 549 1186 549 1157 q 528 1233 549 1214 q 476 1251 508 1251 q 393 1225 433 1251 l 363 1288 q 421 1317 388 1307 q 489 1326 454 1326 q 591 1291 551 1326 q 631 1197 631 1256 q 517 1039 631 1092 l 471 1093 z "},"Ȇ":{"ha":931,"x_min":146,"x_max":851,"o":"m 851 121 l 851 0 l 146 0 l 146 972 l 832 972 l 832 851 l 285 851 l 285 553 l 772 553 l 772 435 l 285 435 l 285 121 l 851 121 m 265 1051 q 331 1189 268 1138 q 490 1240 394 1240 q 649 1189 586 1240 q 715 1051 713 1138 l 625 1051 q 585 1133 624 1103 q 490 1163 547 1163 q 395 1133 433 1163 q 356 1051 357 1103 l 265 1051 z "},"Ē":{"ha":931,"x_min":146,"x_max":851,"o":"m 851 121 l 851 0 l 146 0 l 146 972 l 832 972 l 832 851 l 285 851 l 285 553 l 772 553 l 772 435 l 285 435 l 285 121 l 851 121 m 264 1183 l 717 1183 l 717 1100 l 264 1100 l 264 1183 z "},"Ḗ":{"ha":931,"x_min":146,"x_max":851,"o":"m 851 121 l 851 0 l 146 0 l 146 972 l 832 972 l 832 851 l 285 851 l 285 553 l 772 553 l 772 435 l 285 435 l 285 121 l 851 121 m 264 1161 l 717 1161 l 717 1082 l 264 1082 l 264 1161 m 558 1406 l 710 1406 l 504 1249 l 394 1249 l 558 1406 z "},"Ḕ":{"ha":931,"x_min":146,"x_max":851,"o":"m 851 121 l 851 0 l 146 0 l 146 972 l 832 972 l 832 851 l 285 851 l 285 553 l 772 553 l 772 435 l 285 435 l 285 121 l 851 121 m 264 1161 l 717 1161 l 717 1082 l 264 1082 l 264 1161 m 272 1406 l 424 1406 l 586 1249 l 478 1249 l 272 1406 z "},"Ę":{"ha":931,"x_min":146,"x_max":882,"o":"m 851 121 l 851 0 l 146 0 l 146 972 l 832 972 l 832 851 l 285 851 l 285 553 l 772 553 l 772 435 l 285 435 l 285 121 l 851 121 m 757 -311 q 635 -273 679 -311 q 590 -171 590 -235 q 638 -53 590 -110 q 789 44 685 3 l 851 0 q 724 -78 763 -39 q 686 -161 686 -118 q 710 -214 686 -194 q 771 -233 733 -233 q 857 -210 822 -233 l 882 -278 q 757 -311 829 -311 z "},"Ẽ":{"ha":931,"x_min":146,"x_max":851,"o":"m 851 121 l 851 0 l 146 0 l 146 972 l 832 972 l 832 851 l 285 851 l 285 553 l 772 553 l 772 435 l 285 435 l 285 121 l 851 121 m 588 1056 q 530 1069 554 1056 q 469 1111 506 1083 q 433 1140 449 1131 q 403 1149 418 1149 q 353 1126 372 1149 q 332 1063 333 1103 l 257 1063 q 297 1186 260 1140 q 393 1232 333 1232 q 452 1217 426 1232 q 511 1175 478 1203 q 549 1147 535 1156 q 578 1138 563 1138 q 628 1160 608 1138 q 649 1221 647 1182 l 724 1221 q 684 1101 721 1146 q 588 1056 647 1056 z "},"Ʒ":{"ha":865,"x_min":43,"x_max":797,"o":"m 474 563 q 714 478 631 553 q 797 286 797 404 q 754 134 797 201 q 624 28 711 67 q 413 -11 538 -11 q 201 20 300 -11 q 43 106 101 51 l 94 215 q 231 138 147 167 q 410 110 315 110 q 592 156 528 110 q 657 286 657 203 q 593 410 657 365 q 400 456 529 456 l 319 456 l 319 551 l 586 854 l 81 854 l 81 972 l 751 972 l 751 878 l 474 563 z "},"Ǯ":{"ha":865,"x_min":43,"x_max":797,"o":"m 474 563 q 714 478 631 553 q 797 286 797 404 q 754 134 797 201 q 624 28 711 67 q 413 -11 538 -11 q 201 20 300 -11 q 43 106 101 51 l 94 215 q 231 138 147 167 q 410 110 315 110 q 592 156 528 110 q 657 286 657 203 q 593 410 657 365 q 400 456 529 456 l 319 456 l 319 551 l 586 854 l 81 854 l 81 972 l 751 972 l 751 878 l 474 563 m 668 1232 l 483 1051 l 356 1051 l 171 1232 l 292 1232 l 419 1126 l 547 1232 l 668 1232 z "},"F":{"ha":882,"x_min":146,"x_max":832,"o":"m 285 851 l 285 513 l 772 513 l 772 393 l 285 393 l 285 0 l 146 0 l 146 972 l 832 972 l 832 851 l 285 851 z "},"G":{"ha":1072,"x_min":67,"x_max":961,"o":"m 819 492 l 953 492 l 953 113 q 785 21 881 53 q 585 -11 689 -11 q 319 53 438 -11 q 134 231 201 118 q 67 486 67 344 q 134 742 67 628 q 320 919 201 856 q 588 983 439 983 q 799 945 704 983 q 961 833 894 907 l 875 747 q 593 860 758 860 q 394 812 482 860 q 256 678 306 764 q 206 486 206 593 q 256 295 206 381 q 394 161 306 210 q 592 113 482 113 q 819 175 722 113 l 819 492 z "},"Ğ":{"ha":1072,"x_min":67,"x_max":961,"o":"m 819 492 l 953 492 l 953 113 q 785 21 881 53 q 585 -11 689 -11 q 319 53 438 -11 q 134 231 201 118 q 67 486 67 344 q 134 742 67 628 q 320 919 201 856 q 588 983 439 983 q 799 945 704 983 q 961 833 894 907 l 875 747 q 593 860 758 860 q 394 812 482 860 q 256 678 306 764 q 206 486 206 593 q 256 295 206 381 q 394 161 306 210 q 592 113 482 113 q 819 175 722 113 l 819 492 m 569 1043 q 410 1094 474 1043 q 344 1232 347 1146 l 435 1232 q 474 1151 436 1182 q 569 1121 513 1121 q 665 1151 626 1121 q 704 1232 703 1182 l 794 1232 q 728 1094 792 1146 q 569 1043 665 1043 z "},"Ǧ":{"ha":1072,"x_min":67,"x_max":961,"o":"m 819 492 l 953 492 l 953 113 q 785 21 881 53 q 585 -11 689 -11 q 319 53 438 -11 q 134 231 201 118 q 67 486 67 344 q 134 742 67 628 q 320 919 201 856 q 588 983 439 983 q 799 945 704 983 q 961 833 894 907 l 875 747 q 593 860 758 860 q 394 812 482 860 q 256 678 306 764 q 206 486 206 593 q 256 295 206 381 q 394 161 306 210 q 592 113 482 113 q 819 175 722 113 l 819 492 m 818 1232 l 633 1051 l 506 1051 l 321 1232 l 442 1232 l 569 1126 l 697 1232 l 818 1232 z "},"Ĝ":{"ha":1072,"x_min":67,"x_max":961,"o":"m 819 492 l 953 492 l 953 113 q 785 21 881 53 q 585 -11 689 -11 q 319 53 438 -11 q 134 231 201 118 q 67 486 67 344 q 134 742 67 628 q 320 919 201 856 q 588 983 439 983 q 799 945 704 983 q 961 833 894 907 l 875 747 q 593 860 758 860 q 394 812 482 860 q 256 678 306 764 q 206 486 206 593 q 256 295 206 381 q 394 161 306 210 q 592 113 482 113 q 819 175 722 113 l 819 492 m 697 1051 l 569 1158 l 442 1051 l 321 1051 l 506 1232 l 633 1232 l 818 1051 l 697 1051 z "},"Ģ":{"ha":1072,"x_min":67,"x_max":961,"o":"m 819 492 l 953 492 l 953 113 q 785 21 881 53 q 585 -11 689 -11 q 319 53 438 -11 q 134 231 201 118 q 67 486 67 344 q 134 742 67 628 q 320 919 201 856 q 588 983 439 983 q 799 945 704 983 q 961 833 894 907 l 875 747 q 593 860 758 860 q 394 812 482 860 q 256 678 306 764 q 206 486 206 593 q 256 295 206 381 q 394 161 306 210 q 592 113 482 113 q 819 175 722 113 l 819 492 m 563 -131 q 614 -149 594 -131 q 633 -194 633 -167 q 615 -265 633 -228 l 574 -365 l 504 -365 l 536 -254 q 503 -232 515 -247 q 492 -194 492 -217 q 511 -149 492 -167 q 563 -131 531 -131 z "},"Ġ":{"ha":1072,"x_min":67,"x_max":961,"o":"m 819 492 l 953 492 l 953 113 q 785 21 881 53 q 585 -11 689 -11 q 319 53 438 -11 q 134 231 201 118 q 67 486 67 344 q 134 742 67 628 q 320 919 201 856 q 588 983 439 983 q 799 945 704 983 q 961 833 894 907 l 875 747 q 593 860 758 860 q 394 812 482 860 q 256 678 306 764 q 206 486 206 593 q 256 295 206 381 q 394 161 306 210 q 592 113 482 113 q 819 175 722 113 l 819 492 m 569 1076 q 511 1100 535 1076 q 488 1158 488 1124 q 511 1217 488 1193 q 569 1240 535 1240 q 628 1217 604 1240 q 651 1158 651 1193 q 628 1100 651 1124 q 569 1076 604 1076 z "},"Ḡ":{"ha":1072,"x_min":67,"x_max":961,"o":"m 819 492 l 953 492 l 953 113 q 785 21 881 53 q 585 -11 689 -11 q 319 53 438 -11 q 134 231 201 118 q 67 486 67 344 q 134 742 67 628 q 320 919 201 856 q 588 983 439 983 q 799 945 704 983 q 961 833 894 907 l 875 747 q 593 860 758 860 q 394 812 482 860 q 256 678 306 764 q 206 486 206 593 q 256 295 206 381 q 394 161 306 210 q 592 113 482 113 q 819 175 722 113 l 819 492 m 343 1183 l 796 1183 l 796 1100 l 343 1100 l 343 1183 z "},"Ǥ":{"ha":1121,"x_min":67,"x_max":1089,"o":"m 819 492 l 953 492 l 953 113 q 785 21 881 53 q 585 -11 689 -11 q 319 53 438 -11 q 134 231 201 118 q 67 486 67 344 q 134 742 67 628 q 320 919 201 856 q 588 983 439 983 q 799 945 704 983 q 961 833 894 907 l 875 747 q 593 860 758 860 q 394 812 482 860 q 256 678 306 764 q 206 486 206 593 q 256 295 206 381 q 394 161 306 210 q 592 113 482 113 q 819 175 722 113 l 819 492 m 557 385 l 1089 385 l 1089 275 l 557 275 l 557 385 z "},"H":{"ha":1128,"x_min":146,"x_max":982,"o":"m 982 972 l 982 0 l 843 0 l 843 433 l 285 433 l 285 0 l 146 0 l 146 972 l 285 972 l 285 554 l 843 554 l 843 972 l 982 972 z "},"Ħ":{"ha":1150,"x_min":13,"x_max":1133,"o":"m 993 972 l 993 0 l 854 0 l 854 433 l 296 433 l 296 0 l 157 0 l 157 972 l 296 972 l 296 554 l 854 554 l 854 972 l 993 972 m 13 822 l 1133 822 l 1133 713 l 13 713 l 13 822 z "},"Ḫ":{"ha":1128,"x_min":146,"x_max":982,"o":"m 982 972 l 982 0 l 843 0 l 843 433 l 285 433 l 285 0 l 146 0 l 146 972 l 285 972 l 285 554 l 843 554 l 843 972 l 982 972 m 563 -290 q 403 -242 467 -290 q 338 -112 340 -193 l 425 -112 q 464 -188 425 -160 q 563 -217 503 -217 q 661 -188 622 -217 q 700 -112 700 -160 l 788 -112 q 722 -242 785 -193 q 563 -290 658 -290 z "},"Ȟ":{"ha":1128,"x_min":146,"x_max":982,"o":"m 982 972 l 982 0 l 843 0 l 843 433 l 285 433 l 285 0 l 146 0 l 146 972 l 285 972 l 285 554 l 843 554 l 843 972 l 982 972 m 811 1232 l 626 1051 l 499 1051 l 314 1232 l 435 1232 l 563 1126 l 690 1232 l 811 1232 z "},"Ĥ":{"ha":1128,"x_min":146,"x_max":982,"o":"m 982 972 l 982 0 l 843 0 l 843 433 l 285 433 l 285 0 l 146 0 l 146 972 l 285 972 l 285 554 l 843 554 l 843 972 l 982 972 m 690 1051 l 563 1158 l 435 1051 l 314 1051 l 499 1232 l 626 1232 l 811 1051 l 690 1051 z "},"Ḥ":{"ha":1128,"x_min":146,"x_max":982,"o":"m 982 972 l 982 0 l 843 0 l 843 433 l 285 433 l 285 0 l 146 0 l 146 972 l 285 972 l 285 554 l 843 554 l 843 972 l 982 972 m 563 -272 q 513 -253 533 -272 q 492 -203 492 -233 q 513 -151 492 -172 q 563 -131 533 -131 q 613 -151 592 -131 q 633 -203 633 -172 q 613 -253 633 -233 q 563 -272 592 -272 z "},"I":{"ha":431,"x_min":146,"x_max":285,"o":"m 146 972 l 285 972 l 285 0 l 146 0 l 146 972 z "},"Ĳ":{"ha":1000,"x_min":121,"x_max":863,"o":"m 454 -11 q 274 15 360 -11 q 121 88 188 42 l 175 199 q 308 135 236 157 q 457 113 381 113 q 656 189 588 113 q 724 419 724 265 l 724 972 l 863 972 l 863 426 q 753 101 863 214 q 454 -11 643 -11 m 138 972 l 276 972 l 276 429 l 138 429 l 138 972 z "},"Í":{"ha":431,"x_min":111,"x_max":469,"o":"m 146 972 l 285 972 l 285 0 l 146 0 l 146 972 m 300 1232 l 469 1232 l 236 1051 l 111 1051 l 300 1232 z "},"Ĭ":{"ha":431,"x_min":-10,"x_max":440,"o":"m 146 972 l 285 972 l 285 0 l 146 0 l 146 972 m 215 1043 q 56 1094 119 1043 q -10 1232 -7 1146 l 81 1232 q 120 1151 82 1182 q 215 1121 158 1121 q 310 1151 272 1121 q 350 1232 349 1182 l 440 1232 q 374 1094 438 1146 q 215 1043 311 1043 z "},"Î":{"ha":431,"x_min":-33,"x_max":464,"o":"m 146 972 l 285 972 l 285 0 l 146 0 l 146 972 m 343 1051 l 215 1158 l 88 1051 l -33 1051 l 151 1232 l 279 1232 l 464 1051 l 343 1051 z "},"Ȉ":{"ha":431,"x_min":-114,"x_max":393,"o":"m 146 972 l 285 972 l 285 0 l 146 0 l 146 972 m -114 1232 l 26 1232 l 150 1051 l 38 1051 l -114 1232 m 126 1232 l 268 1232 l 393 1051 l 281 1051 l 126 1232 z "},"Ï":{"ha":431,"x_min":15,"x_max":415,"o":"m 146 972 l 285 972 l 285 0 l 146 0 l 146 972 m 86 1075 q 36 1095 57 1075 q 15 1146 15 1115 q 36 1197 15 1176 q 86 1218 57 1218 q 136 1197 115 1218 q 157 1146 157 1176 q 136 1095 157 1115 q 86 1075 115 1075 m 344 1075 q 294 1095 315 1075 q 274 1146 274 1115 q 294 1197 274 1176 q 344 1218 315 1218 q 394 1197 374 1218 q 415 1146 415 1176 q 394 1095 415 1115 q 344 1075 374 1075 z "},"Ḯ":{"ha":431,"x_min":21,"x_max":435,"o":"m 146 972 l 285 972 l 285 0 l 146 0 l 146 972 m 90 1075 q 41 1094 61 1075 q 21 1144 21 1114 q 41 1193 21 1174 q 90 1213 61 1213 q 138 1193 118 1213 q 158 1144 158 1174 q 138 1095 158 1115 q 90 1075 118 1075 m 342 1075 q 294 1095 314 1075 q 274 1144 274 1115 q 294 1193 274 1174 q 342 1213 314 1213 q 391 1193 371 1213 q 411 1144 411 1174 q 391 1095 411 1115 q 342 1075 371 1075 m 283 1406 l 435 1406 l 229 1249 l 119 1249 l 283 1406 z "},"İ":{"ha":431,"x_min":133,"x_max":297,"o":"m 146 972 l 285 972 l 285 0 l 146 0 l 146 972 m 215 1076 q 157 1100 181 1076 q 133 1158 133 1124 q 157 1217 133 1193 q 215 1240 181 1240 q 274 1217 250 1240 q 297 1158 297 1193 q 274 1100 297 1124 q 215 1076 250 1076 z "},"Ị":{"ha":431,"x_min":144,"x_max":286,"o":"m 146 972 l 285 972 l 285 0 l 146 0 l 146 972 m 215 -272 q 165 -253 186 -272 q 144 -203 144 -233 q 165 -151 144 -172 q 215 -131 186 -131 q 265 -151 244 -131 q 286 -203 286 -172 q 265 -253 286 -233 q 215 -272 244 -272 z "},"Ì":{"ha":431,"x_min":-39,"x_max":319,"o":"m 146 972 l 285 972 l 285 0 l 146 0 l 146 972 m -39 1232 l 131 1232 l 319 1051 l 194 1051 l -39 1232 z "},"Ỉ":{"ha":431,"x_min":88,"x_max":356,"o":"m 146 972 l 285 972 l 285 0 l 146 0 l 146 972 m 196 1093 q 255 1134 236 1111 q 274 1186 274 1157 q 253 1233 274 1214 q 201 1251 233 1251 q 118 1225 158 1251 l 88 1288 q 146 1317 113 1307 q 214 1326 179 1326 q 316 1291 276 1326 q 356 1197 356 1256 q 242 1039 356 1092 l 196 1093 z "},"Ȋ":{"ha":431,"x_min":-10,"x_max":440,"o":"m 146 972 l 285 972 l 285 0 l 146 0 l 146 972 m -10 1051 q 56 1189 -7 1138 q 215 1240 119 1240 q 374 1189 311 1240 q 440 1051 438 1138 l 350 1051 q 310 1133 349 1103 q 215 1163 272 1163 q 120 1133 158 1163 q 81 1051 82 1103 l -10 1051 z "},"Ī":{"ha":431,"x_min":31,"x_max":400,"o":"m 146 972 l 285 972 l 285 0 l 146 0 l 146 972 m 31 1183 l 400 1183 l 400 1100 l 31 1100 l 31 1183 z "},"Į":{"ha":431,"x_min":108,"x_max":335,"o":"m 146 972 l 285 972 l 285 0 l 146 0 l 146 972 m 247 -311 q 147 -274 185 -311 q 108 -176 108 -237 q 236 43 108 -56 l 285 0 q 220 -84 238 -44 q 203 -161 203 -124 q 220 -214 203 -194 q 264 -233 238 -233 q 311 -217 288 -233 l 335 -283 q 247 -311 303 -311 z "},"Ĩ":{"ha":431,"x_min":-18,"x_max":449,"o":"m 146 972 l 285 972 l 285 0 l 146 0 l 146 972 m 313 1056 q 255 1069 279 1056 q 194 1111 231 1083 q 158 1140 174 1131 q 128 1149 143 1149 q 78 1126 97 1149 q 57 1063 58 1103 l -18 1063 q 22 1186 -15 1140 q 118 1232 58 1232 q 177 1217 151 1232 q 236 1175 203 1203 q 274 1147 260 1156 q 303 1138 288 1138 q 353 1160 333 1138 q 374 1221 372 1182 l 449 1221 q 409 1101 446 1146 q 313 1056 372 1056 z "},"J":{"ha":713,"x_min":-12,"x_max":575,"o":"m 271 -11 q 108 26 183 -11 q -12 129 33 63 l 68 224 q 271 108 149 108 q 395 158 353 108 q 438 306 438 208 l 438 851 l 86 851 l 86 972 l 575 972 l 575 313 q 498 70 575 151 q 271 -11 421 -11 z "},"Ĵ":{"ha":713,"x_min":-12,"x_max":581,"o":"m 271 -11 q 108 26 183 -11 q -12 129 33 63 l 68 224 q 271 108 149 108 q 395 158 353 108 q 438 306 438 208 l 438 851 l 86 851 l 86 972 l 575 972 l 575 313 q 498 70 575 151 q 271 -11 421 -11 m 460 1051 l 332 1158 l 204 1051 l 83 1051 l 268 1232 l 396 1232 l 581 1051 l 460 1051 z "},"K":{"ha":999,"x_min":146,"x_max":997,"o":"m 463 432 l 285 251 l 285 0 l 146 0 l 146 972 l 285 972 l 285 429 l 813 972 l 971 972 l 556 535 l 997 0 l 835 0 l 463 432 z "},"Ǩ":{"ha":999,"x_min":146,"x_max":997,"o":"m 463 432 l 285 251 l 285 0 l 146 0 l 146 972 l 285 972 l 285 429 l 813 972 l 971 972 l 556 535 l 997 0 l 835 0 l 463 432 m 769 1232 l 585 1051 l 457 1051 l 272 1232 l 393 1232 l 521 1126 l 649 1232 l 769 1232 z "},"Ķ":{"ha":999,"x_min":146,"x_max":997,"o":"m 463 432 l 285 251 l 285 0 l 146 0 l 146 972 l 285 972 l 285 429 l 813 972 l 971 972 l 556 535 l 997 0 l 835 0 l 463 432 m 521 -131 q 572 -149 553 -131 q 592 -194 592 -167 q 574 -265 592 -228 l 532 -365 l 463 -365 l 494 -254 q 462 -232 474 -247 q 450 -194 450 -217 q 469 -149 450 -167 q 521 -131 489 -131 z "},"L":{"ha":825,"x_min":146,"x_max":811,"o":"m 146 972 l 285 972 l 285 121 l 811 121 l 811 0 l 146 0 l 146 972 z "},"Ǉ":{"ha":1538,"x_min":146,"x_max":1400,"o":"m 146 972 l 285 972 l 285 121 l 811 121 l 811 0 l 146 0 l 146 972 m 1096 -11 q 933 26 1008 -11 q 813 129 858 63 l 893 224 q 1096 108 974 108 q 1220 158 1178 108 q 1263 306 1263 208 l 1263 851 l 911 851 l 911 972 l 1400 972 l 1400 313 q 1323 70 1400 151 q 1096 -11 1246 -11 z "},"Ĺ":{"ha":825,"x_min":111,"x_max":811,"o":"m 146 972 l 285 972 l 285 121 l 811 121 l 811 0 l 146 0 l 146 972 m 300 1232 l 469 1232 l 236 1051 l 111 1051 l 300 1232 z "},"Ľ":{"ha":825,"x_min":146,"x_max":811,"o":"m 146 972 l 285 972 l 285 121 l 811 121 l 811 0 l 146 0 l 146 972 m 608 1018 l 718 1018 l 701 750 l 608 750 l 608 1018 z "},"Ļ":{"ha":825,"x_min":146,"x_max":811,"o":"m 146 972 l 285 972 l 285 121 l 811 121 l 811 0 l 146 0 l 146 972 m 494 -131 q 546 -149 526 -131 q 565 -194 565 -167 q 547 -265 565 -228 l 506 -365 l 436 -365 l 468 -254 q 435 -232 447 -247 q 424 -194 424 -217 q 443 -149 424 -167 q 494 -131 463 -131 z "},"Ŀ":{"ha":825,"x_min":146,"x_max":811,"o":"m 146 972 l 285 972 l 285 121 l 811 121 l 811 0 l 146 0 l 146 972 m 628 460 q 568 484 593 460 q 543 546 543 508 q 568 608 543 583 q 628 632 593 632 q 687 608 663 632 q 711 546 711 583 q 687 484 711 508 q 628 460 663 460 z "},"Ḷ":{"ha":825,"x_min":146,"x_max":811,"o":"m 146 972 l 285 972 l 285 121 l 811 121 l 811 0 l 146 0 l 146 972 m 494 -272 q 444 -253 465 -272 q 424 -203 424 -233 q 444 -151 424 -172 q 494 -131 465 -131 q 544 -151 524 -131 q 565 -203 565 -172 q 544 -253 565 -233 q 494 -272 524 -272 z "},"ǈ":{"ha":1219,"x_min":146,"x_max":1115,"o":"m 146 972 l 285 972 l 285 121 l 811 121 l 811 0 l 146 0 l 146 972 m 857 -278 q 767 -267 808 -278 q 697 -233 725 -256 l 740 -131 q 849 -165 782 -165 q 930 -133 901 -165 q 958 -36 958 -100 l 958 736 l 1092 736 l 1092 -33 q 1031 -212 1092 -147 q 857 -278 969 -278 m 1025 878 q 960 903 986 878 q 935 964 935 928 q 960 1026 935 1000 q 1025 1051 986 1051 q 1090 1027 1064 1051 q 1115 967 1115 1003 q 1090 903 1115 929 q 1025 878 1064 878 z "},"Ḻ":{"ha":825,"x_min":146,"x_max":811,"o":"m 146 972 l 285 972 l 285 121 l 811 121 l 811 0 l 146 0 l 146 972 m 268 -157 l 721 -157 l 721 -242 l 268 -242 l 268 -157 z "},"Ł":{"ha":836,"x_min":13,"x_max":822,"o":"m 157 972 l 296 972 l 296 121 l 822 121 l 822 0 l 157 0 l 157 972 m 13 421 l 451 754 l 513 676 l 74 343 l 13 421 z "},"M":{"ha":1326,"x_min":146,"x_max":1181,"o":"m 1047 0 l 1046 708 l 694 118 l 631 118 l 279 704 l 279 0 l 146 0 l 146 972 l 260 972 l 665 289 l 1065 972 l 1179 972 l 1181 0 l 1047 0 z "},"Ṃ":{"ha":1326,"x_min":146,"x_max":1181,"o":"m 1047 0 l 1046 708 l 694 118 l 631 118 l 279 704 l 279 0 l 146 0 l 146 972 l 260 972 l 665 289 l 1065 972 l 1179 972 l 1181 0 l 1047 0 m 663 -272 q 613 -253 633 -272 q 592 -203 592 -233 q 613 -151 592 -172 q 663 -131 633 -131 q 713 -151 692 -131 q 733 -203 733 -172 q 713 -253 733 -233 q 663 -272 692 -272 z "},"N":{"ha":1128,"x_min":146,"x_max":982,"o":"m 982 972 l 982 0 l 868 0 l 285 725 l 285 0 l 146 0 l 146 972 l 260 972 l 843 247 l 843 972 l 982 972 z "},"Ǌ":{"ha":1840,"x_min":146,"x_max":1703,"o":"m 982 972 l 982 0 l 868 0 l 285 725 l 285 0 l 146 0 l 146 972 l 260 972 l 843 247 l 843 972 l 982 972 m 1399 -11 q 1236 26 1311 -11 q 1115 129 1161 63 l 1196 224 q 1399 108 1276 108 q 1523 158 1481 108 q 1565 306 1565 208 l 1565 851 l 1214 851 l 1214 972 l 1703 972 l 1703 313 q 1626 70 1703 151 q 1399 -11 1549 -11 z "},"Ń":{"ha":1128,"x_min":146,"x_max":982,"o":"m 982 972 l 982 0 l 868 0 l 285 725 l 285 0 l 146 0 l 146 972 l 260 972 l 843 247 l 843 972 l 982 972 m 647 1232 l 817 1232 l 583 1051 l 458 1051 l 647 1232 z "},"Ň":{"ha":1128,"x_min":146,"x_max":982,"o":"m 982 972 l 982 0 l 868 0 l 285 725 l 285 0 l 146 0 l 146 972 l 260 972 l 843 247 l 843 972 l 982 972 m 811 1232 l 626 1051 l 499 1051 l 314 1232 l 435 1232 l 563 1126 l 690 1232 l 811 1232 z "},"Ņ":{"ha":1128,"x_min":146,"x_max":982,"o":"m 982 972 l 982 0 l 868 0 l 285 725 l 285 0 l 146 0 l 146 972 l 260 972 l 843 247 l 843 972 l 982 972 m 563 -131 q 614 -149 594 -131 q 633 -194 633 -167 q 615 -265 633 -228 l 574 -365 l 504 -365 l 536 -254 q 503 -232 515 -247 q 492 -194 492 -217 q 511 -149 492 -167 q 563 -131 531 -131 z "},"Ṅ":{"ha":1128,"x_min":146,"x_max":982,"o":"m 982 972 l 982 0 l 868 0 l 285 725 l 285 0 l 146 0 l 146 972 l 260 972 l 843 247 l 843 972 l 982 972 m 563 1076 q 504 1100 528 1076 q 481 1158 481 1124 q 504 1217 481 1193 q 563 1240 528 1240 q 621 1217 597 1240 q 644 1158 644 1193 q 621 1100 644 1124 q 563 1076 597 1076 z "},"Ṇ":{"ha":1128,"x_min":146,"x_max":982,"o":"m 982 972 l 982 0 l 868 0 l 285 725 l 285 0 l 146 0 l 146 972 l 260 972 l 843 247 l 843 972 l 982 972 m 563 -272 q 513 -253 533 -272 q 492 -203 492 -233 q 513 -151 492 -172 q 563 -131 533 -131 q 613 -151 592 -131 q 633 -203 633 -172 q 613 -253 633 -233 q 563 -272 592 -272 z "},"Ŋ":{"ha":1128,"x_min":146,"x_max":982,"o":"m 982 972 l 982 58 q 906 -195 982 -112 q 681 -278 831 -278 q 542 -249 607 -278 q 431 -168 476 -221 l 499 -68 q 681 -158 571 -158 q 843 31 839 -158 l 285 725 l 285 0 l 146 0 l 146 972 l 260 972 l 843 247 l 843 972 l 982 972 z "},"ǋ":{"ha":1522,"x_min":146,"x_max":1418,"o":"m 982 972 l 982 0 l 868 0 l 285 725 l 285 0 l 146 0 l 146 972 l 260 972 l 843 247 l 843 972 l 982 972 m 1160 -278 q 1069 -267 1111 -278 q 1000 -233 1028 -256 l 1043 -131 q 1151 -165 1085 -165 q 1233 -133 1204 -165 q 1261 -36 1261 -100 l 1261 736 l 1394 736 l 1394 -33 q 1333 -212 1394 -147 q 1160 -278 1272 -278 m 1328 878 q 1263 903 1289 878 q 1238 964 1238 928 q 1263 1026 1238 1000 q 1328 1051 1289 1051 q 1392 1027 1367 1051 q 1418 967 1418 1003 q 1392 903 1418 929 q 1328 878 1367 878 z "},"Ṉ":{"ha":1128,"x_min":146,"x_max":982,"o":"m 982 972 l 982 0 l 868 0 l 285 725 l 285 0 l 146 0 l 146 972 l 260 972 l 843 247 l 843 972 l 982 972 m 336 -157 l 789 -157 l 789 -242 l 336 -242 l 336 -157 z "},"Ñ":{"ha":1128,"x_min":146,"x_max":982,"o":"m 982 972 l 982 0 l 868 0 l 285 725 l 285 0 l 146 0 l 146 972 l 260 972 l 843 247 l 843 972 l 982 972 m 660 1056 q 602 1069 626 1056 q 542 1111 578 1083 q 506 1140 521 1131 q 475 1149 490 1149 q 425 1126 444 1149 q 404 1063 406 1103 l 329 1063 q 369 1186 332 1140 q 465 1232 406 1232 q 524 1217 499 1232 q 583 1175 550 1203 q 621 1147 607 1156 q 650 1138 635 1138 q 700 1160 681 1138 q 721 1221 719 1182 l 796 1221 q 756 1101 793 1146 q 660 1056 719 1056 z "},"O":{"ha":1167,"x_min":67,"x_max":1100,"o":"m 585 -11 q 319 53 438 -11 q 134 232 201 118 q 67 486 67 346 q 134 740 67 626 q 319 919 201 854 q 585 983 438 983 q 849 919 731 983 q 1033 741 967 854 q 1100 486 1100 628 q 1033 231 1100 344 q 849 53 967 118 q 585 -11 731 -11 m 585 113 q 777 161 692 113 q 912 295 863 210 q 961 486 961 381 q 912 677 961 592 q 777 811 863 763 q 585 860 692 860 q 391 811 478 860 q 255 677 304 763 q 206 486 206 592 q 255 295 206 381 q 391 161 304 210 q 585 113 478 113 z "},"Ó":{"ha":1167,"x_min":67,"x_max":1100,"o":"m 585 -11 q 319 53 438 -11 q 134 232 201 118 q 67 486 67 346 q 134 740 67 626 q 319 919 201 854 q 585 983 438 983 q 849 919 731 983 q 1033 741 967 854 q 1100 486 1100 628 q 1033 231 1100 344 q 849 53 967 118 q 585 -11 731 -11 m 585 113 q 777 161 692 113 q 912 295 863 210 q 961 486 961 381 q 912 677 961 592 q 777 811 863 763 q 585 860 692 860 q 391 811 478 860 q 255 677 304 763 q 206 486 206 592 q 255 295 206 381 q 391 161 304 210 q 585 113 478 113 m 669 1232 l 839 1232 l 606 1051 l 481 1051 l 669 1232 z "},"Ŏ":{"ha":1167,"x_min":67,"x_max":1100,"o":"m 585 -11 q 319 53 438 -11 q 134 232 201 118 q 67 486 67 346 q 134 740 67 626 q 319 919 201 854 q 585 983 438 983 q 849 919 731 983 q 1033 741 967 854 q 1100 486 1100 628 q 1033 231 1100 344 q 849 53 967 118 q 585 -11 731 -11 m 585 113 q 777 161 692 113 q 912 295 863 210 q 961 486 961 381 q 912 677 961 592 q 777 811 863 763 q 585 860 692 860 q 391 811 478 860 q 255 677 304 763 q 206 486 206 592 q 255 295 206 381 q 391 161 304 210 q 585 113 478 113 m 585 1043 q 426 1094 489 1043 q 360 1232 363 1146 l 450 1232 q 490 1151 451 1182 q 585 1121 528 1121 q 680 1151 642 1121 q 719 1232 718 1182 l 810 1232 q 744 1094 807 1146 q 585 1043 681 1043 z "},"Ô":{"ha":1167,"x_min":67,"x_max":1100,"o":"m 585 -11 q 319 53 438 -11 q 134 232 201 118 q 67 486 67 346 q 134 740 67 626 q 319 919 201 854 q 585 983 438 983 q 849 919 731 983 q 1033 741 967 854 q 1100 486 1100 628 q 1033 231 1100 344 q 849 53 967 118 q 585 -11 731 -11 m 585 113 q 777 161 692 113 q 912 295 863 210 q 961 486 961 381 q 912 677 961 592 q 777 811 863 763 q 585 860 692 860 q 391 811 478 860 q 255 677 304 763 q 206 486 206 592 q 255 295 206 381 q 391 161 304 210 q 585 113 478 113 m 713 1051 l 585 1158 l 457 1051 l 336 1051 l 521 1232 l 649 1232 l 833 1051 l 713 1051 z "},"Ố":{"ha":1167,"x_min":67,"x_max":1100,"o":"m 585 -11 q 319 53 438 -11 q 134 232 201 118 q 67 486 67 346 q 134 740 67 626 q 319 919 201 854 q 585 983 438 983 q 849 919 731 983 q 1033 741 967 854 q 1100 486 1100 628 q 1033 231 1100 344 q 849 53 967 118 q 585 -11 731 -11 m 585 113 q 777 161 692 113 q 912 295 863 210 q 961 486 961 381 q 912 677 961 592 q 777 811 863 763 q 585 860 692 860 q 391 811 478 860 q 255 677 304 763 q 206 486 206 592 q 255 295 206 381 q 391 161 304 210 q 585 113 478 113 m 711 1051 l 585 1129 l 458 1051 l 336 1051 l 522 1190 l 647 1190 l 833 1051 l 711 1051 m 886 1331 l 1038 1331 l 832 1174 l 722 1174 l 886 1331 z "},"Ộ":{"ha":1167,"x_min":67,"x_max":1100,"o":"m 585 -11 q 319 53 438 -11 q 134 232 201 118 q 67 486 67 346 q 134 740 67 626 q 319 919 201 854 q 585 983 438 983 q 849 919 731 983 q 1033 741 967 854 q 1100 486 1100 628 q 1033 231 1100 344 q 849 53 967 118 q 585 -11 731 -11 m 585 113 q 777 161 692 113 q 912 295 863 210 q 961 486 961 381 q 912 677 961 592 q 777 811 863 763 q 585 860 692 860 q 391 811 478 860 q 255 677 304 763 q 206 486 206 592 q 255 295 206 381 q 391 161 304 210 q 585 113 478 113 m 585 -272 q 535 -253 556 -272 q 514 -203 514 -233 q 535 -151 514 -172 q 585 -131 556 -131 q 635 -151 614 -131 q 656 -203 656 -172 q 635 -253 656 -233 q 585 -272 614 -272 m 713 1051 l 585 1158 l 457 1051 l 336 1051 l 521 1232 l 649 1232 l 833 1051 l 713 1051 z "},"Ồ":{"ha":1167,"x_min":67,"x_max":1100,"o":"m 585 -11 q 319 53 438 -11 q 134 232 201 118 q 67 486 67 346 q 134 740 67 626 q 319 919 201 854 q 585 983 438 983 q 849 919 731 983 q 1033 741 967 854 q 1100 486 1100 628 q 1033 231 1100 344 q 849 53 967 118 q 585 -11 731 -11 m 585 113 q 777 161 692 113 q 912 295 863 210 q 961 486 961 381 q 912 677 961 592 q 777 811 863 763 q 585 860 692 860 q 391 811 478 860 q 255 677 304 763 q 206 486 206 592 q 255 295 206 381 q 391 161 304 210 q 585 113 478 113 m 711 1051 l 585 1129 l 458 1051 l 336 1051 l 522 1190 l 647 1190 l 833 1051 l 711 1051 m 600 1331 l 751 1331 l 914 1174 l 806 1174 l 600 1331 z "},"Ổ":{"ha":1167,"x_min":67,"x_max":1100,"o":"m 585 -11 q 319 53 438 -11 q 134 232 201 118 q 67 486 67 346 q 134 740 67 626 q 319 919 201 854 q 585 983 438 983 q 849 919 731 983 q 1033 741 967 854 q 1100 486 1100 628 q 1033 231 1100 344 q 849 53 967 118 q 585 -11 731 -11 m 585 113 q 777 161 692 113 q 912 295 863 210 q 961 486 961 381 q 912 677 961 592 q 777 811 863 763 q 585 860 692 860 q 391 811 478 860 q 255 677 304 763 q 206 486 206 592 q 255 295 206 381 q 391 161 304 210 q 585 113 478 113 m 711 1051 l 585 1129 l 458 1051 l 336 1051 l 522 1190 l 647 1190 l 833 1051 l 711 1051 m 751 1189 q 793 1219 779 1201 q 807 1256 807 1238 q 792 1287 807 1275 q 754 1299 778 1299 q 694 1282 724 1299 l 669 1333 q 765 1360 711 1360 q 844 1333 815 1360 q 874 1263 874 1306 q 850 1195 874 1225 q 788 1149 826 1165 l 751 1189 z "},"Ỗ":{"ha":1167,"x_min":67,"x_max":1100,"o":"m 585 -11 q 319 53 438 -11 q 134 232 201 118 q 67 486 67 346 q 134 740 67 626 q 319 919 201 854 q 585 983 438 983 q 849 919 731 983 q 1033 741 967 854 q 1100 486 1100 628 q 1033 231 1100 344 q 849 53 967 118 q 585 -11 731 -11 m 585 113 q 777 161 692 113 q 912 295 863 210 q 961 486 961 381 q 912 677 961 592 q 777 811 863 763 q 585 860 692 860 q 391 811 478 860 q 255 677 304 763 q 206 486 206 592 q 255 295 206 381 q 391 161 304 210 q 585 113 478 113 m 711 1051 l 585 1129 l 458 1051 l 336 1051 l 522 1190 l 647 1190 l 833 1051 l 711 1051 m 682 1238 q 622 1249 647 1238 q 563 1282 596 1260 q 494 1313 519 1313 q 431 1243 433 1313 l 356 1243 q 392 1348 357 1310 q 489 1386 428 1386 q 547 1375 521 1386 q 606 1342 572 1364 q 644 1319 629 1326 q 676 1311 660 1311 q 723 1329 707 1311 q 740 1379 739 1347 l 814 1379 q 777 1276 813 1314 q 682 1238 742 1238 z "},"Ȍ":{"ha":1167,"x_min":67,"x_max":1100,"o":"m 585 -11 q 319 53 438 -11 q 134 232 201 118 q 67 486 67 346 q 134 740 67 626 q 319 919 201 854 q 585 983 438 983 q 849 919 731 983 q 1033 741 967 854 q 1100 486 1100 628 q 1033 231 1100 344 q 849 53 967 118 q 585 -11 731 -11 m 585 113 q 777 161 692 113 q 912 295 863 210 q 961 486 961 381 q 912 677 961 592 q 777 811 863 763 q 585 860 692 860 q 391 811 478 860 q 255 677 304 763 q 206 486 206 592 q 255 295 206 381 q 391 161 304 210 q 585 113 478 113 m 256 1232 l 396 1232 l 519 1051 l 407 1051 l 256 1232 m 496 1232 l 638 1232 l 763 1051 l 650 1051 l 496 1232 z "},"Ö":{"ha":1167,"x_min":67,"x_max":1100,"o":"m 585 -11 q 319 53 438 -11 q 134 232 201 118 q 67 486 67 346 q 134 740 67 626 q 319 919 201 854 q 585 983 438 983 q 849 919 731 983 q 1033 741 967 854 q 1100 486 1100 628 q 1033 231 1100 344 q 849 53 967 118 q 585 -11 731 -11 m 585 113 q 777 161 692 113 q 912 295 863 210 q 961 486 961 381 q 912 677 961 592 q 777 811 863 763 q 585 860 692 860 q 391 811 478 860 q 255 677 304 763 q 206 486 206 592 q 255 295 206 381 q 391 161 304 210 q 585 113 478 113 m 456 1075 q 406 1095 426 1075 q 385 1146 385 1115 q 406 1197 385 1176 q 456 1218 426 1218 q 506 1197 485 1218 q 526 1146 526 1176 q 506 1095 526 1115 q 456 1075 485 1075 m 714 1075 q 664 1095 685 1075 q 643 1146 643 1115 q 664 1197 643 1176 q 714 1218 685 1218 q 764 1197 743 1218 q 785 1146 785 1176 q 764 1095 785 1115 q 714 1075 743 1075 z "},"Ȫ":{"ha":1167,"x_min":67,"x_max":1100,"o":"m 585 -11 q 319 53 438 -11 q 134 232 201 118 q 67 486 67 346 q 134 740 67 626 q 319 919 201 854 q 585 983 438 983 q 849 919 731 983 q 1033 741 967 854 q 1100 486 1100 628 q 1033 231 1100 344 q 849 53 967 118 q 585 -11 731 -11 m 585 113 q 777 161 692 113 q 912 295 863 210 q 961 486 961 381 q 912 677 961 592 q 777 811 863 763 q 585 860 692 860 q 391 811 478 860 q 255 677 304 763 q 206 486 206 592 q 255 295 206 381 q 391 161 304 210 q 585 113 478 113 m 460 1075 q 410 1094 431 1075 q 390 1144 390 1114 q 410 1193 390 1174 q 460 1213 431 1213 q 508 1193 488 1213 q 528 1144 528 1174 q 508 1095 528 1115 q 460 1075 488 1075 m 711 1075 q 663 1095 683 1075 q 643 1144 643 1115 q 663 1193 643 1174 q 711 1213 683 1213 q 760 1193 740 1213 q 781 1144 781 1174 q 760 1095 781 1115 q 711 1075 740 1075 m 358 1358 l 811 1358 l 811 1279 l 358 1279 l 358 1358 z "},"Ȱ":{"ha":1167,"x_min":67,"x_max":1100,"o":"m 585 -11 q 319 53 438 -11 q 134 232 201 118 q 67 486 67 346 q 134 740 67 626 q 319 919 201 854 q 585 983 438 983 q 849 919 731 983 q 1033 741 967 854 q 1100 486 1100 628 q 1033 231 1100 344 q 849 53 967 118 q 585 -11 731 -11 m 585 113 q 777 161 692 113 q 912 295 863 210 q 961 486 961 381 q 912 677 961 592 q 777 811 863 763 q 585 860 692 860 q 391 811 478 860 q 255 677 304 763 q 206 486 206 592 q 255 295 206 381 q 391 161 304 210 q 585 113 478 113 m 585 1074 q 535 1094 556 1074 q 514 1146 514 1115 q 535 1197 514 1176 q 585 1217 556 1217 q 635 1197 614 1217 q 656 1146 656 1176 q 635 1094 656 1115 q 585 1074 614 1074 m 358 1363 l 811 1363 l 811 1283 l 358 1283 l 358 1363 z "},"Ọ":{"ha":1167,"x_min":67,"x_max":1100,"o":"m 585 -11 q 319 53 438 -11 q 134 232 201 118 q 67 486 67 346 q 134 740 67 626 q 319 919 201 854 q 585 983 438 983 q 849 919 731 983 q 1033 741 967 854 q 1100 486 1100 628 q 1033 231 1100 344 q 849 53 967 118 q 585 -11 731 -11 m 585 113 q 777 161 692 113 q 912 295 863 210 q 961 486 961 381 q 912 677 961 592 q 777 811 863 763 q 585 860 692 860 q 391 811 478 860 q 255 677 304 763 q 206 486 206 592 q 255 295 206 381 q 391 161 304 210 q 585 113 478 113 m 585 -272 q 535 -253 556 -272 q 514 -203 514 -233 q 535 -151 514 -172 q 585 -131 556 -131 q 635 -151 614 -131 q 656 -203 656 -172 q 635 -253 656 -233 q 585 -272 614 -272 z "},"Ò":{"ha":1167,"x_min":67,"x_max":1100,"o":"m 585 -11 q 319 53 438 -11 q 134 232 201 118 q 67 486 67 346 q 134 740 67 626 q 319 919 201 854 q 585 983 438 983 q 849 919 731 983 q 1033 741 967 854 q 1100 486 1100 628 q 1033 231 1100 344 q 849 53 967 118 q 585 -11 731 -11 m 585 113 q 777 161 692 113 q 912 295 863 210 q 961 486 961 381 q 912 677 961 592 q 777 811 863 763 q 585 860 692 860 q 391 811 478 860 q 255 677 304 763 q 206 486 206 592 q 255 295 206 381 q 391 161 304 210 q 585 113 478 113 m 331 1232 l 500 1232 l 689 1051 l 564 1051 l 331 1232 z "},"Ỏ":{"ha":1167,"x_min":67,"x_max":1100,"o":"m 585 -11 q 319 53 438 -11 q 134 232 201 118 q 67 486 67 346 q 134 740 67 626 q 319 919 201 854 q 585 983 438 983 q 849 919 731 983 q 1033 741 967 854 q 1100 486 1100 628 q 1033 231 1100 344 q 849 53 967 118 q 585 -11 731 -11 m 585 113 q 777 161 692 113 q 912 295 863 210 q 961 486 961 381 q 912 677 961 592 q 777 811 863 763 q 585 860 692 860 q 391 811 478 860 q 255 677 304 763 q 206 486 206 592 q 255 295 206 381 q 391 161 304 210 q 585 113 478 113 m 565 1093 q 624 1134 606 1111 q 643 1186 643 1157 q 623 1233 643 1214 q 571 1251 603 1251 q 488 1225 528 1251 l 457 1288 q 515 1317 482 1307 q 583 1326 549 1326 q 685 1291 646 1326 q 725 1197 725 1256 q 611 1039 725 1092 l 565 1093 z "},"Ơ":{"ha":1167,"x_min":67,"x_max":1100,"o":"m 906 881 q 1048 712 996 815 q 1100 486 1100 608 q 1033 231 1100 344 q 849 53 967 118 q 585 -11 731 -11 q 319 53 438 -11 q 134 232 201 118 q 67 486 67 346 q 134 741 67 628 q 321 919 201 854 q 589 983 440 983 q 744 972 653 983 q 856 964 822 964 q 953 990 919 964 q 988 1065 988 1015 q 960 1151 988 1108 l 1043 1185 q 1082 1060 1082 1128 q 1036 937 1082 983 q 906 881 990 890 m 585 113 q 776 161 690 113 q 912 295 863 210 q 961 486 961 381 q 912 677 961 592 q 776 811 863 763 q 585 860 690 860 q 391 811 478 860 q 255 677 304 763 q 206 486 206 592 q 255 295 206 381 q 391 161 304 210 q 585 113 478 113 z "},"Ớ":{"ha":1167,"x_min":67,"x_max":1100,"o":"m 906 881 q 1048 712 996 815 q 1100 486 1100 608 q 1033 231 1100 344 q 849 53 967 118 q 585 -11 731 -11 q 319 53 438 -11 q 134 232 201 118 q 67 486 67 346 q 134 741 67 628 q 321 919 201 854 q 589 983 440 983 q 744 972 653 983 q 856 964 822 964 q 953 990 919 964 q 988 1065 988 1015 q 960 1151 988 1108 l 1043 1185 q 1082 1060 1082 1128 q 1036 937 1082 983 q 906 881 990 890 m 585 113 q 776 161 690 113 q 912 295 863 210 q 961 486 961 381 q 912 677 961 592 q 776 811 863 763 q 585 860 690 860 q 391 811 478 860 q 255 677 304 763 q 206 486 206 592 q 255 295 206 381 q 391 161 304 210 q 585 113 478 113 m 669 1232 l 839 1232 l 606 1051 l 481 1051 l 669 1232 z "},"Ợ":{"ha":1167,"x_min":67,"x_max":1100,"o":"m 906 881 q 1048 712 996 815 q 1100 486 1100 608 q 1033 231 1100 344 q 849 53 967 118 q 585 -11 731 -11 q 319 53 438 -11 q 134 232 201 118 q 67 486 67 346 q 134 741 67 628 q 321 919 201 854 q 589 983 440 983 q 744 972 653 983 q 856 964 822 964 q 953 990 919 964 q 988 1065 988 1015 q 960 1151 988 1108 l 1043 1185 q 1082 1060 1082 1128 q 1036 937 1082 983 q 906 881 990 890 m 585 113 q 776 161 690 113 q 912 295 863 210 q 961 486 961 381 q 912 677 961 592 q 776 811 863 763 q 585 860 690 860 q 391 811 478 860 q 255 677 304 763 q 206 486 206 592 q 255 295 206 381 q 391 161 304 210 q 585 113 478 113 m 585 -272 q 535 -253 556 -272 q 514 -203 514 -233 q 535 -151 514 -172 q 585 -131 556 -131 q 635 -151 614 -131 q 656 -203 656 -172 q 635 -253 656 -233 q 585 -272 614 -272 z "},"Ờ":{"ha":1167,"x_min":67,"x_max":1100,"o":"m 906 881 q 1048 712 996 815 q 1100 486 1100 608 q 1033 231 1100 344 q 849 53 967 118 q 585 -11 731 -11 q 319 53 438 -11 q 134 232 201 118 q 67 486 67 346 q 134 741 67 628 q 321 919 201 854 q 589 983 440 983 q 744 972 653 983 q 856 964 822 964 q 953 990 919 964 q 988 1065 988 1015 q 960 1151 988 1108 l 1043 1185 q 1082 1060 1082 1128 q 1036 937 1082 983 q 906 881 990 890 m 585 113 q 776 161 690 113 q 912 295 863 210 q 961 486 961 381 q 912 677 961 592 q 776 811 863 763 q 585 860 690 860 q 391 811 478 860 q 255 677 304 763 q 206 486 206 592 q 255 295 206 381 q 391 161 304 210 q 585 113 478 113 m 331 1232 l 500 1232 l 689 1051 l 564 1051 l 331 1232 z "},"Ở":{"ha":1167,"x_min":67,"x_max":1100,"o":"m 906 881 q 1048 712 996 815 q 1100 486 1100 608 q 1033 231 1100 344 q 849 53 967 118 q 585 -11 731 -11 q 319 53 438 -11 q 134 232 201 118 q 67 486 67 346 q 134 741 67 628 q 321 919 201 854 q 589 983 440 983 q 744 972 653 983 q 856 964 822 964 q 953 990 919 964 q 988 1065 988 1015 q 960 1151 988 1108 l 1043 1185 q 1082 1060 1082 1128 q 1036 937 1082 983 q 906 881 990 890 m 585 113 q 776 161 690 113 q 912 295 863 210 q 961 486 961 381 q 912 677 961 592 q 776 811 863 763 q 585 860 690 860 q 391 811 478 860 q 255 677 304 763 q 206 486 206 592 q 255 295 206 381 q 391 161 304 210 q 585 113 478 113 m 565 1093 q 624 1134 606 1111 q 643 1186 643 1157 q 623 1233 643 1214 q 571 1251 603 1251 q 488 1225 528 1251 l 457 1288 q 515 1317 482 1307 q 583 1326 549 1326 q 685 1291 646 1326 q 725 1197 725 1256 q 611 1039 725 1092 l 565 1093 z "},"Ỡ":{"ha":1167,"x_min":67,"x_max":1100,"o":"m 906 881 q 1048 712 996 815 q 1100 486 1100 608 q 1033 231 1100 344 q 849 53 967 118 q 585 -11 731 -11 q 319 53 438 -11 q 134 232 201 118 q 67 486 67 346 q 134 741 67 628 q 321 919 201 854 q 589 983 440 983 q 744 972 653 983 q 856 964 822 964 q 953 990 919 964 q 988 1065 988 1015 q 960 1151 988 1108 l 1043 1185 q 1082 1060 1082 1128 q 1036 937 1082 983 q 906 881 990 890 m 585 113 q 776 161 690 113 q 912 295 863 210 q 961 486 961 381 q 912 677 961 592 q 776 811 863 763 q 585 860 690 860 q 391 811 478 860 q 255 677 304 763 q 206 486 206 592 q 255 295 206 381 q 391 161 304 210 q 585 113 478 113 m 682 1056 q 624 1069 649 1056 q 564 1111 600 1083 q 528 1140 543 1131 q 497 1149 513 1149 q 447 1126 467 1149 q 426 1063 428 1103 l 351 1063 q 391 1186 354 1140 q 488 1232 428 1232 q 547 1217 521 1232 q 606 1175 572 1203 q 643 1147 629 1156 q 672 1138 657 1138 q 722 1160 703 1138 q 743 1221 742 1182 l 818 1221 q 778 1101 815 1146 q 682 1056 742 1056 z "},"Ő":{"ha":1167,"x_min":67,"x_max":1100,"o":"m 585 -11 q 319 53 438 -11 q 134 232 201 118 q 67 486 67 346 q 134 740 67 626 q 319 919 201 854 q 585 983 438 983 q 849 919 731 983 q 1033 741 967 854 q 1100 486 1100 628 q 1033 231 1100 344 q 849 53 967 118 q 585 -11 731 -11 m 585 113 q 777 161 692 113 q 912 295 863 210 q 961 486 961 381 q 912 677 961 592 q 777 811 863 763 q 585 860 692 860 q 391 811 478 860 q 255 677 304 763 q 206 486 206 592 q 255 295 206 381 q 391 161 304 210 q 585 113 478 113 m 532 1232 l 674 1232 l 519 1051 l 407 1051 l 532 1232 m 774 1232 l 914 1232 l 763 1051 l 650 1051 l 774 1232 z "},"Ȏ":{"ha":1167,"x_min":67,"x_max":1100,"o":"m 585 -11 q 319 53 438 -11 q 134 232 201 118 q 67 486 67 346 q 134 740 67 626 q 319 919 201 854 q 585 983 438 983 q 849 919 731 983 q 1033 741 967 854 q 1100 486 1100 628 q 1033 231 1100 344 q 849 53 967 118 q 585 -11 731 -11 m 585 113 q 777 161 692 113 q 912 295 863 210 q 961 486 961 381 q 912 677 961 592 q 777 811 863 763 q 585 860 692 860 q 391 811 478 860 q 255 677 304 763 q 206 486 206 592 q 255 295 206 381 q 391 161 304 210 q 585 113 478 113 m 360 1051 q 426 1189 363 1138 q 585 1240 489 1240 q 744 1189 681 1240 q 810 1051 807 1138 l 719 1051 q 680 1133 718 1103 q 585 1163 642 1163 q 490 1133 528 1163 q 450 1051 451 1103 l 360 1051 z "},"Ō":{"ha":1167,"x_min":67,"x_max":1100,"o":"m 585 -11 q 319 53 438 -11 q 134 232 201 118 q 67 486 67 346 q 134 740 67 626 q 319 919 201 854 q 585 983 438 983 q 849 919 731 983 q 1033 741 967 854 q 1100 486 1100 628 q 1033 231 1100 344 q 849 53 967 118 q 585 -11 731 -11 m 585 113 q 777 161 692 113 q 912 295 863 210 q 961 486 961 381 q 912 677 961 592 q 777 811 863 763 q 585 860 692 860 q 391 811 478 860 q 255 677 304 763 q 206 486 206 592 q 255 295 206 381 q 391 161 304 210 q 585 113 478 113 m 358 1183 l 811 1183 l 811 1100 l 358 1100 l 358 1183 z "},"Ṓ":{"ha":1167,"x_min":67,"x_max":1100,"o":"m 585 -11 q 319 53 438 -11 q 134 232 201 118 q 67 486 67 346 q 134 740 67 626 q 319 919 201 854 q 585 983 438 983 q 849 919 731 983 q 1033 741 967 854 q 1100 486 1100 628 q 1033 231 1100 344 q 849 53 967 118 q 585 -11 731 -11 m 585 113 q 777 161 692 113 q 912 295 863 210 q 961 486 961 381 q 912 677 961 592 q 777 811 863 763 q 585 860 692 860 q 391 811 478 860 q 255 677 304 763 q 206 486 206 592 q 255 295 206 381 q 391 161 304 210 q 585 113 478 113 m 358 1161 l 811 1161 l 811 1082 l 358 1082 l 358 1161 m 653 1406 l 804 1406 l 599 1249 l 489 1249 l 653 1406 z "},"Ṑ":{"ha":1167,"x_min":67,"x_max":1100,"o":"m 585 -11 q 319 53 438 -11 q 134 232 201 118 q 67 486 67 346 q 134 740 67 626 q 319 919 201 854 q 585 983 438 983 q 849 919 731 983 q 1033 741 967 854 q 1100 486 1100 628 q 1033 231 1100 344 q 849 53 967 118 q 585 -11 731 -11 m 585 113 q 777 161 692 113 q 912 295 863 210 q 961 486 961 381 q 912 677 961 592 q 777 811 863 763 q 585 860 692 860 q 391 811 478 860 q 255 677 304 763 q 206 486 206 592 q 255 295 206 381 q 391 161 304 210 q 585 113 478 113 m 358 1161 l 811 1161 l 811 1082 l 358 1082 l 358 1161 m 367 1406 l 518 1406 l 681 1249 l 572 1249 l 367 1406 z "},"Ǫ":{"ha":1167,"x_min":67,"x_max":1100,"o":"m 585 983 q 849 919 731 983 q 1033 741 967 854 q 1100 486 1100 628 q 1051 266 1100 365 q 917 101 1001 167 q 728 8 833 35 q 579 -62 635 -17 q 524 -161 524 -107 q 547 -214 524 -194 q 610 -233 571 -233 q 694 -210 660 -233 l 721 -278 q 596 -311 668 -311 q 474 -273 518 -311 q 429 -171 429 -235 q 453 -86 429 -128 q 526 -8 476 -44 q 290 71 394 4 q 126 246 185 138 q 67 486 67 354 q 134 741 67 628 q 319 919 201 854 q 585 983 438 983 m 585 113 q 777 161 692 113 q 912 295 863 210 q 961 486 961 381 q 912 677 961 592 q 777 811 863 763 q 585 860 692 860 q 391 811 478 860 q 255 677 304 763 q 206 486 206 592 q 255 295 206 381 q 391 161 304 210 q 585 113 478 113 z "},"Ø":{"ha":1167,"x_min":67,"x_max":1100,"o":"m 585 -11 q 319 53 438 -11 q 134 232 201 118 q 67 486 67 346 q 134 740 67 626 q 319 919 201 854 q 585 983 438 983 q 849 919 731 983 q 1033 741 967 854 q 1100 486 1100 628 q 1033 231 1100 344 q 849 53 967 118 q 585 -11 731 -11 m 585 113 q 777 161 692 113 q 912 295 863 210 q 961 486 961 381 q 912 677 961 592 q 777 811 863 763 q 585 860 692 860 q 391 811 478 860 q 255 677 304 763 q 206 486 206 592 q 255 295 206 381 q 391 161 304 210 q 585 113 478 113 m 949 1069 l 1057 1069 l 221 -97 l 113 -97 l 949 1069 z "},"Ǿ":{"ha":1167,"x_min":67,"x_max":1100,"o":"m 585 -11 q 319 53 438 -11 q 134 232 201 118 q 67 486 67 346 q 134 740 67 626 q 319 919 201 854 q 585 983 438 983 q 849 919 731 983 q 1033 741 967 854 q 1100 486 1100 628 q 1033 231 1100 344 q 849 53 967 118 q 585 -11 731 -11 m 585 113 q 777 161 692 113 q 912 295 863 210 q 961 486 961 381 q 912 677 961 592 q 777 811 863 763 q 585 860 692 860 q 391 811 478 860 q 255 677 304 763 q 206 486 206 592 q 255 295 206 381 q 391 161 304 210 q 585 113 478 113 m 949 1069 l 1057 1069 l 221 -97 l 113 -97 l 949 1069 m 669 1232 l 839 1232 l 606 1051 l 481 1051 l 669 1232 z "},"Õ":{"ha":1167,"x_min":67,"x_max":1100,"o":"m 585 -11 q 319 53 438 -11 q 134 232 201 118 q 67 486 67 346 q 134 740 67 626 q 319 919 201 854 q 585 983 438 983 q 849 919 731 983 q 1033 741 967 854 q 1100 486 1100 628 q 1033 231 1100 344 q 849 53 967 118 q 585 -11 731 -11 m 585 113 q 777 161 692 113 q 912 295 863 210 q 961 486 961 381 q 912 677 961 592 q 777 811 863 763 q 585 860 692 860 q 391 811 478 860 q 255 677 304 763 q 206 486 206 592 q 255 295 206 381 q 391 161 304 210 q 585 113 478 113 m 682 1056 q 624 1069 649 1056 q 564 1111 600 1083 q 528 1140 543 1131 q 497 1149 513 1149 q 447 1126 467 1149 q 426 1063 428 1103 l 351 1063 q 391 1186 354 1140 q 488 1232 428 1232 q 547 1217 521 1232 q 606 1175 572 1203 q 643 1147 629 1156 q 672 1138 657 1138 q 722 1160 703 1138 q 743 1221 742 1182 l 818 1221 q 778 1101 815 1146 q 682 1056 742 1056 z "},"Ṍ":{"ha":1167,"x_min":67,"x_max":1100,"o":"m 585 -11 q 319 53 438 -11 q 134 232 201 118 q 67 486 67 346 q 134 740 67 626 q 319 919 201 854 q 585 983 438 983 q 849 919 731 983 q 1033 741 967 854 q 1100 486 1100 628 q 1033 231 1100 344 q 849 53 967 118 q 585 -11 731 -11 m 585 113 q 777 161 692 113 q 912 295 863 210 q 961 486 961 381 q 912 677 961 592 q 777 811 863 763 q 585 860 692 860 q 391 811 478 860 q 255 677 304 763 q 206 486 206 592 q 255 295 206 381 q 391 161 304 210 q 585 113 478 113 m 682 1058 q 622 1069 647 1058 q 563 1103 596 1081 q 494 1133 519 1133 q 431 1064 433 1133 l 356 1064 q 392 1169 357 1131 q 489 1207 428 1207 q 547 1196 521 1207 q 606 1163 572 1185 q 644 1140 629 1147 q 676 1132 660 1132 q 723 1150 707 1132 q 740 1200 739 1168 l 814 1200 q 777 1097 813 1135 q 682 1058 742 1058 m 653 1406 l 804 1406 l 599 1249 l 489 1249 l 653 1406 z "},"Ṏ":{"ha":1167,"x_min":67,"x_max":1100,"o":"m 585 -11 q 319 53 438 -11 q 134 232 201 118 q 67 486 67 346 q 134 740 67 626 q 319 919 201 854 q 585 983 438 983 q 849 919 731 983 q 1033 741 967 854 q 1100 486 1100 628 q 1033 231 1100 344 q 849 53 967 118 q 585 -11 731 -11 m 585 113 q 777 161 692 113 q 912 295 863 210 q 961 486 961 381 q 912 677 961 592 q 777 811 863 763 q 585 860 692 860 q 391 811 478 860 q 255 677 304 763 q 206 486 206 592 q 255 295 206 381 q 391 161 304 210 q 585 113 478 113 m 682 1058 q 622 1069 647 1058 q 563 1103 596 1081 q 494 1133 519 1133 q 431 1064 433 1133 l 356 1064 q 392 1169 357 1131 q 489 1207 428 1207 q 547 1196 521 1207 q 606 1163 572 1185 q 644 1140 629 1147 q 676 1132 660 1132 q 723 1150 707 1132 q 740 1200 739 1168 l 814 1200 q 777 1097 813 1135 q 682 1058 742 1058 m 460 1272 q 410 1292 431 1272 q 390 1342 390 1311 q 410 1390 390 1371 q 460 1410 431 1410 q 508 1390 488 1410 q 528 1342 528 1371 q 508 1292 528 1313 q 460 1272 488 1272 m 711 1272 q 663 1292 683 1272 q 643 1342 643 1313 q 663 1390 643 1371 q 711 1410 683 1410 q 760 1390 740 1410 q 781 1342 781 1371 q 760 1292 781 1313 q 711 1272 740 1272 z "},"Ȭ":{"ha":1167,"x_min":67,"x_max":1100,"o":"m 585 -11 q 319 53 438 -11 q 134 232 201 118 q 67 486 67 346 q 134 740 67 626 q 319 919 201 854 q 585 983 438 983 q 849 919 731 983 q 1033 741 967 854 q 1100 486 1100 628 q 1033 231 1100 344 q 849 53 967 118 q 585 -11 731 -11 m 585 113 q 777 161 692 113 q 912 295 863 210 q 961 486 961 381 q 912 677 961 592 q 777 811 863 763 q 585 860 692 860 q 391 811 478 860 q 255 677 304 763 q 206 486 206 592 q 255 295 206 381 q 391 161 304 210 q 585 113 478 113 m 682 1058 q 622 1069 647 1058 q 563 1103 596 1081 q 494 1133 519 1133 q 431 1064 433 1133 l 356 1064 q 392 1169 357 1131 q 489 1207 428 1207 q 547 1196 521 1207 q 606 1163 572 1185 q 644 1140 629 1147 q 676 1132 660 1132 q 723 1150 707 1132 q 740 1200 739 1168 l 814 1200 q 777 1097 813 1135 q 682 1058 742 1058 m 358 1358 l 811 1358 l 811 1279 l 358 1279 l 358 1358 z "},"Œ":{"ha":1564,"x_min":67,"x_max":1485,"o":"m 1485 121 l 1485 0 l 592 0 q 318 61 438 0 q 133 233 199 122 q 67 485 67 343 q 133 739 67 628 q 318 911 199 850 q 592 972 438 972 l 1465 972 l 1465 851 l 917 851 l 917 553 l 1406 553 l 1406 435 l 917 435 l 917 121 l 1485 121 m 779 121 l 779 851 l 599 851 q 392 806 481 851 q 254 676 303 760 q 206 485 206 593 q 254 295 206 378 q 392 167 303 213 q 599 121 481 121 l 779 121 z "},"P":{"ha":1003,"x_min":146,"x_max":931,"o":"m 525 972 q 822 882 714 972 q 931 633 931 792 q 822 385 931 475 q 525 294 714 294 l 285 294 l 285 0 l 146 0 l 146 972 l 525 972 m 521 415 q 722 472 653 415 q 792 633 792 528 q 722 795 792 739 q 521 851 653 851 l 285 851 l 285 415 l 521 415 z "},"Þ":{"ha":1003,"x_min":146,"x_max":931,"o":"m 525 853 q 822 762 714 853 q 931 513 931 671 q 822 264 931 354 q 525 174 714 174 l 285 174 l 285 0 l 146 0 l 146 972 l 285 972 l 285 853 l 525 853 m 521 293 q 722 350 653 293 q 792 513 792 407 q 722 675 792 618 q 521 732 653 732 l 285 732 l 285 293 l 521 293 z "},"Q":{"ha":1167,"x_min":67,"x_max":1147,"o":"m 1147 -89 q 1038 -174 1100 -144 q 903 -203 975 -203 q 731 -159 811 -203 q 549 -10 651 -115 q 301 64 411 -3 q 128 241 190 131 q 67 486 67 351 q 134 740 67 626 q 319 919 201 854 q 585 983 438 983 q 849 919 731 983 q 1033 741 967 854 q 1100 486 1100 628 q 1052 267 1100 367 q 917 99 1004 167 q 718 4 831 31 q 812 -70 767 -47 q 904 -93 857 -93 q 1082 -10 1007 -93 l 1147 -89 m 206 486 q 255 295 206 381 q 391 161 304 210 q 585 113 478 113 q 776 161 690 113 q 912 295 863 210 q 961 486 961 381 q 912 677 961 592 q 776 811 863 763 q 585 860 690 860 q 391 811 478 860 q 255 677 304 763 q 206 486 206 592 z "},"R":{"ha":1010,"x_min":146,"x_max":947,"o":"m 796 0 l 586 299 q 525 296 547 296 l 285 296 l 285 0 l 146 0 l 146 972 l 525 972 q 822 882 714 972 q 931 633 931 792 q 875 442 931 521 q 717 326 819 363 l 947 0 l 796 0 m 521 414 q 722 471 653 414 q 792 633 792 528 q 722 795 792 739 q 521 851 653 851 l 285 851 l 285 414 l 521 414 z "},"Ŕ":{"ha":1010,"x_min":146,"x_max":947,"o":"m 796 0 l 586 299 q 525 296 547 296 l 285 296 l 285 0 l 146 0 l 146 972 l 525 972 q 822 882 714 972 q 931 633 931 792 q 875 442 931 521 q 717 326 819 363 l 947 0 l 796 0 m 521 414 q 722 471 653 414 q 792 633 792 528 q 722 795 792 739 q 521 851 653 851 l 285 851 l 285 414 l 521 414 m 600 1232 l 769 1232 l 536 1051 l 411 1051 l 600 1232 z "},"Ř":{"ha":1010,"x_min":146,"x_max":947,"o":"m 796 0 l 586 299 q 525 296 547 296 l 285 296 l 285 0 l 146 0 l 146 972 l 525 972 q 822 882 714 972 q 931 633 931 792 q 875 442 931 521 q 717 326 819 363 l 947 0 l 796 0 m 521 414 q 722 471 653 414 q 792 633 792 528 q 722 795 792 739 q 521 851 653 851 l 285 851 l 285 414 l 521 414 m 764 1232 l 579 1051 l 451 1051 l 267 1232 l 388 1232 l 515 1126 l 643 1232 l 764 1232 z "},"Ŗ":{"ha":1010,"x_min":146,"x_max":947,"o":"m 796 0 l 586 299 q 525 296 547 296 l 285 296 l 285 0 l 146 0 l 146 972 l 525 972 q 822 882 714 972 q 931 633 931 792 q 875 442 931 521 q 717 326 819 363 l 947 0 l 796 0 m 521 414 q 722 471 653 414 q 792 633 792 528 q 722 795 792 739 q 521 851 653 851 l 285 851 l 285 414 l 521 414 m 515 -131 q 567 -149 547 -131 q 586 -194 586 -167 q 568 -265 586 -228 l 526 -365 l 457 -365 l 489 -254 q 456 -232 468 -247 q 444 -194 444 -217 q 464 -149 444 -167 q 515 -131 483 -131 z "},"Ȑ":{"ha":1010,"x_min":146,"x_max":947,"o":"m 796 0 l 586 299 q 525 296 547 296 l 285 296 l 285 0 l 146 0 l 146 972 l 525 972 q 822 882 714 972 q 931 633 931 792 q 875 442 931 521 q 717 326 819 363 l 947 0 l 796 0 m 521 414 q 722 471 653 414 q 792 633 792 528 q 722 795 792 739 q 521 851 653 851 l 285 851 l 285 414 l 521 414 m 186 1232 l 326 1232 l 450 1051 l 338 1051 l 186 1232 m 426 1232 l 568 1232 l 693 1051 l 581 1051 l 426 1232 z "},"Ṛ":{"ha":1010,"x_min":146,"x_max":947,"o":"m 796 0 l 586 299 q 525 296 547 296 l 285 296 l 285 0 l 146 0 l 146 972 l 525 972 q 822 882 714 972 q 931 633 931 792 q 875 442 931 521 q 717 326 819 363 l 947 0 l 796 0 m 521 414 q 722 471 653 414 q 792 633 792 528 q 722 795 792 739 q 521 851 653 851 l 285 851 l 285 414 l 521 414 m 515 -272 q 465 -253 486 -272 q 444 -203 444 -233 q 465 -151 444 -172 q 515 -131 486 -131 q 565 -151 544 -131 q 586 -203 586 -172 q 565 -253 586 -233 q 515 -272 544 -272 z "},"Ȓ":{"ha":1010,"x_min":146,"x_max":947,"o":"m 796 0 l 586 299 q 525 296 547 296 l 285 296 l 285 0 l 146 0 l 146 972 l 525 972 q 822 882 714 972 q 931 633 931 792 q 875 442 931 521 q 717 326 819 363 l 947 0 l 796 0 m 521 414 q 722 471 653 414 q 792 633 792 528 q 722 795 792 739 q 521 851 653 851 l 285 851 l 285 414 l 521 414 m 290 1051 q 356 1189 293 1138 q 515 1240 419 1240 q 674 1189 611 1240 q 740 1051 738 1138 l 650 1051 q 610 1133 649 1103 q 515 1163 572 1163 q 420 1133 458 1163 q 381 1051 382 1103 l 290 1051 z "},"Ṟ":{"ha":1010,"x_min":146,"x_max":947,"o":"m 796 0 l 586 299 q 525 296 547 296 l 285 296 l 285 0 l 146 0 l 146 972 l 525 972 q 822 882 714 972 q 931 633 931 792 q 875 442 931 521 q 717 326 819 363 l 947 0 l 796 0 m 521 414 q 722 471 653 414 q 792 633 792 528 q 722 795 792 739 q 521 851 653 851 l 285 851 l 285 414 l 521 414 m 289 -157 l 742 -157 l 742 -242 l 289 -242 l 289 -157 z "},"S":{"ha":863,"x_min":57,"x_max":806,"o":"m 429 -11 q 217 23 319 -11 q 57 111 115 57 l 108 219 q 251 138 164 169 q 429 107 338 107 q 610 148 550 107 q 669 257 669 189 q 637 338 669 307 q 556 386 604 369 q 421 424 508 403 q 244 476 311 450 q 128 558 176 503 q 81 706 81 613 q 122 846 81 783 q 246 946 163 908 q 453 983 329 983 q 622 961 539 983 q 765 897 706 939 l 719 786 q 589 845 658 825 q 453 865 519 865 q 276 822 335 865 q 217 711 217 779 q 250 630 217 661 q 333 581 283 599 q 467 544 382 564 q 643 492 576 518 q 758 411 710 465 q 806 265 806 357 q 764 126 806 189 q 638 26 722 63 q 429 -11 553 -11 z "},"Ś":{"ha":863,"x_min":57,"x_max":806,"o":"m 429 -11 q 217 23 319 -11 q 57 111 115 57 l 108 219 q 251 138 164 169 q 429 107 338 107 q 610 148 550 107 q 669 257 669 189 q 637 338 669 307 q 556 386 604 369 q 421 424 508 403 q 244 476 311 450 q 128 558 176 503 q 81 706 81 613 q 122 846 81 783 q 246 946 163 908 q 453 983 329 983 q 622 961 539 983 q 765 897 706 939 l 719 786 q 589 845 658 825 q 453 865 519 865 q 276 822 335 865 q 217 711 217 779 q 250 630 217 661 q 333 581 283 599 q 467 544 382 564 q 643 492 576 518 q 758 411 710 465 q 806 265 806 357 q 764 126 806 189 q 638 26 722 63 q 429 -11 553 -11 m 532 1232 l 701 1232 l 468 1051 l 343 1051 l 532 1232 z "},"Ṥ":{"ha":863,"x_min":57,"x_max":806,"o":"m 429 -11 q 217 23 319 -11 q 57 111 115 57 l 108 219 q 251 138 164 169 q 429 107 338 107 q 610 148 550 107 q 669 257 669 189 q 637 338 669 307 q 556 386 604 369 q 421 424 508 403 q 244 476 311 450 q 128 558 176 503 q 81 706 81 613 q 122 846 81 783 q 246 946 163 908 q 453 983 329 983 q 622 961 539 983 q 765 897 706 939 l 719 786 q 589 845 658 825 q 453 865 519 865 q 276 822 335 865 q 217 711 217 779 q 250 630 217 661 q 333 581 283 599 q 467 544 382 564 q 643 492 576 518 q 758 411 710 465 q 806 265 806 357 q 764 126 806 189 q 638 26 722 63 q 429 -11 553 -11 m 515 1208 l 667 1208 l 461 1051 l 351 1051 l 515 1208 m 447 1271 q 397 1292 418 1271 q 376 1343 376 1313 q 397 1394 376 1374 q 447 1414 418 1414 q 497 1394 476 1414 q 518 1343 518 1374 q 497 1292 518 1313 q 447 1271 476 1271 z "},"Ꞌ":{"ha":358,"x_min":111,"x_max":247,"o":"m 111 972 l 247 972 l 231 413 l 111 413 l 111 972 z "},"Š":{"ha":863,"x_min":57,"x_max":806,"o":"m 429 -11 q 217 23 319 -11 q 57 111 115 57 l 108 219 q 251 138 164 169 q 429 107 338 107 q 610 148 550 107 q 669 257 669 189 q 637 338 669 307 q 556 386 604 369 q 421 424 508 403 q 244 476 311 450 q 128 558 176 503 q 81 706 81 613 q 122 846 81 783 q 246 946 163 908 q 453 983 329 983 q 622 961 539 983 q 765 897 706 939 l 719 786 q 589 845 658 825 q 453 865 519 865 q 276 822 335 865 q 217 711 217 779 q 250 630 217 661 q 333 581 283 599 q 467 544 382 564 q 643 492 576 518 q 758 411 710 465 q 806 265 806 357 q 764 126 806 189 q 638 26 722 63 q 429 -11 553 -11 m 696 1232 l 511 1051 l 383 1051 l 199 1232 l 319 1232 l 447 1126 l 575 1232 l 696 1232 z "},"Ṧ":{"ha":863,"x_min":57,"x_max":806,"o":"m 429 -11 q 217 23 319 -11 q 57 111 115 57 l 108 219 q 251 138 164 169 q 429 107 338 107 q 610 148 550 107 q 669 257 669 189 q 637 338 669 307 q 556 386 604 369 q 421 424 508 403 q 244 476 311 450 q 128 558 176 503 q 81 706 81 613 q 122 846 81 783 q 246 946 163 908 q 453 983 329 983 q 622 961 539 983 q 765 897 706 939 l 719 786 q 589 845 658 825 q 453 865 519 865 q 276 822 335 865 q 217 711 217 779 q 250 630 217 661 q 333 581 283 599 q 467 544 382 564 q 643 492 576 518 q 758 411 710 465 q 806 265 806 357 q 764 126 806 189 q 638 26 722 63 q 429 -11 553 -11 m 696 1190 l 510 1051 l 385 1051 l 199 1190 l 321 1190 l 447 1113 l 574 1190 l 696 1190 m 447 1239 q 397 1260 418 1239 q 376 1311 376 1281 q 397 1362 376 1342 q 447 1382 418 1382 q 497 1362 476 1382 q 518 1311 518 1342 q 497 1260 518 1281 q 447 1239 476 1239 z "},"Ş":{"ha":863,"x_min":57,"x_max":806,"o":"m 429 -11 q 217 23 319 -11 q 57 111 115 57 l 108 219 q 251 138 164 169 q 429 107 338 107 q 610 148 550 107 q 669 257 669 189 q 637 338 669 307 q 556 386 604 369 q 421 424 508 403 q 244 476 311 450 q 128 558 176 503 q 81 706 81 613 q 122 846 81 783 q 246 946 163 908 q 453 983 329 983 q 622 961 539 983 q 765 897 706 939 l 719 786 q 589 845 658 825 q 453 865 519 865 q 276 822 335 865 q 217 711 217 779 q 250 630 217 661 q 333 581 283 599 q 467 544 382 564 q 643 492 576 518 q 758 411 710 465 q 806 265 806 357 q 764 126 806 189 q 638 26 722 63 q 429 -11 553 -11 m 413 -311 q 289 -281 340 -311 l 318 -212 q 413 -236 360 -236 q 490 -181 490 -236 q 471 -141 490 -156 q 411 -126 451 -126 l 374 -126 l 408 10 l 485 10 l 464 -69 q 553 -106 522 -75 q 585 -185 585 -137 q 538 -277 585 -243 q 413 -311 490 -311 z "},"Ŝ":{"ha":863,"x_min":57,"x_max":806,"o":"m 429 -11 q 217 23 319 -11 q 57 111 115 57 l 108 219 q 251 138 164 169 q 429 107 338 107 q 610 148 550 107 q 669 257 669 189 q 637 338 669 307 q 556 386 604 369 q 421 424 508 403 q 244 476 311 450 q 128 558 176 503 q 81 706 81 613 q 122 846 81 783 q 246 946 163 908 q 453 983 329 983 q 622 961 539 983 q 765 897 706 939 l 719 786 q 589 845 658 825 q 453 865 519 865 q 276 822 335 865 q 217 711 217 779 q 250 630 217 661 q 333 581 283 599 q 467 544 382 564 q 643 492 576 518 q 758 411 710 465 q 806 265 806 357 q 764 126 806 189 q 638 26 722 63 q 429 -11 553 -11 m 575 1051 l 447 1158 l 319 1051 l 199 1051 l 383 1232 l 511 1232 l 696 1051 l 575 1051 z "},"Ș":{"ha":863,"x_min":57,"x_max":806,"o":"m 429 -11 q 217 23 319 -11 q 57 111 115 57 l 108 219 q 251 138 164 169 q 429 107 338 107 q 610 148 550 107 q 669 257 669 189 q 637 338 669 307 q 556 386 604 369 q 421 424 508 403 q 244 476 311 450 q 128 558 176 503 q 81 706 81 613 q 122 846 81 783 q 246 946 163 908 q 453 983 329 983 q 622 961 539 983 q 765 897 706 939 l 719 786 q 589 845 658 825 q 453 865 519 865 q 276 822 335 865 q 217 711 217 779 q 250 630 217 661 q 333 581 283 599 q 467 544 382 564 q 643 492 576 518 q 758 411 710 465 q 806 265 806 357 q 764 126 806 189 q 638 26 722 63 q 429 -11 553 -11 m 447 -131 q 499 -149 479 -131 q 518 -194 518 -167 q 500 -265 518 -228 l 458 -365 l 389 -365 l 421 -254 q 388 -232 400 -247 q 376 -194 376 -217 q 396 -149 376 -167 q 447 -131 415 -131 z "},"Ṡ":{"ha":863,"x_min":57,"x_max":806,"o":"m 429 -11 q 217 23 319 -11 q 57 111 115 57 l 108 219 q 251 138 164 169 q 429 107 338 107 q 610 148 550 107 q 669 257 669 189 q 637 338 669 307 q 556 386 604 369 q 421 424 508 403 q 244 476 311 450 q 128 558 176 503 q 81 706 81 613 q 122 846 81 783 q 246 946 163 908 q 453 983 329 983 q 622 961 539 983 q 765 897 706 939 l 719 786 q 589 845 658 825 q 453 865 519 865 q 276 822 335 865 q 217 711 217 779 q 250 630 217 661 q 333 581 283 599 q 467 544 382 564 q 643 492 576 518 q 758 411 710 465 q 806 265 806 357 q 764 126 806 189 q 638 26 722 63 q 429 -11 553 -11 m 447 1076 q 389 1100 413 1076 q 365 1158 365 1124 q 389 1217 365 1193 q 447 1240 413 1240 q 506 1217 482 1240 q 529 1158 529 1193 q 506 1100 529 1124 q 447 1076 482 1076 z "},"Ṣ":{"ha":863,"x_min":57,"x_max":806,"o":"m 429 -11 q 217 23 319 -11 q 57 111 115 57 l 108 219 q 251 138 164 169 q 429 107 338 107 q 610 148 550 107 q 669 257 669 189 q 637 338 669 307 q 556 386 604 369 q 421 424 508 403 q 244 476 311 450 q 128 558 176 503 q 81 706 81 613 q 122 846 81 783 q 246 946 163 908 q 453 983 329 983 q 622 961 539 983 q 765 897 706 939 l 719 786 q 589 845 658 825 q 453 865 519 865 q 276 822 335 865 q 217 711 217 779 q 250 630 217 661 q 333 581 283 599 q 467 544 382 564 q 643 492 576 518 q 758 411 710 465 q 806 265 806 357 q 764 126 806 189 q 638 26 722 63 q 429 -11 553 -11 m 447 -272 q 397 -253 418 -272 q 376 -203 376 -233 q 397 -151 376 -172 q 447 -131 418 -131 q 497 -151 476 -131 q 518 -203 518 -172 q 497 -253 518 -233 q 447 -272 476 -272 z "},"Ṩ":{"ha":863,"x_min":57,"x_max":806,"o":"m 429 -11 q 217 23 319 -11 q 57 111 115 57 l 108 219 q 251 138 164 169 q 429 107 338 107 q 610 148 550 107 q 669 257 669 189 q 637 338 669 307 q 556 386 604 369 q 421 424 508 403 q 244 476 311 450 q 128 558 176 503 q 81 706 81 613 q 122 846 81 783 q 246 946 163 908 q 453 983 329 983 q 622 961 539 983 q 765 897 706 939 l 719 786 q 589 845 658 825 q 453 865 519 865 q 276 822 335 865 q 217 711 217 779 q 250 630 217 661 q 333 581 283 599 q 467 544 382 564 q 643 492 576 518 q 758 411 710 465 q 806 265 806 357 q 764 126 806 189 q 638 26 722 63 q 429 -11 553 -11 m 447 -272 q 397 -253 418 -272 q 376 -203 376 -233 q 397 -151 376 -172 q 447 -131 418 -131 q 497 -151 476 -131 q 518 -203 518 -172 q 497 -253 518 -233 q 447 -272 476 -272 m 447 1076 q 389 1100 413 1076 q 365 1158 365 1124 q 389 1217 365 1193 q 447 1240 413 1240 q 506 1217 482 1240 q 529 1158 529 1193 q 506 1100 529 1124 q 447 1076 482 1076 z "},"ẞ":{"ha":1060,"x_min":138,"x_max":989,"o":"m 690 571 q 906 487 824 563 q 989 281 989 411 q 897 66 989 143 q 656 -11 804 -11 q 453 24 536 -11 l 475 140 q 638 107 544 107 q 793 152 738 107 q 849 285 849 197 q 792 418 849 372 q 635 464 735 464 q 521 449 569 464 l 494 515 l 772 828 q 572 869 685 869 q 353 789 429 869 q 276 558 276 708 l 276 0 l 138 0 l 138 563 q 252 874 138 761 q 569 988 367 988 q 750 963 664 988 q 897 892 836 939 l 897 801 l 690 571 z "},"Ə":{"ha":1135,"x_min":67,"x_max":1068,"o":"m 560 983 q 820 919 704 983 q 1002 741 936 854 q 1068 488 1068 628 q 1003 232 1068 346 q 824 53 938 118 q 568 -11 710 -11 q 311 54 425 -11 q 132 234 197 119 q 67 492 67 349 l 67 531 l 928 531 q 867 700 918 625 q 735 817 817 775 q 558 860 654 860 q 390 831 469 860 q 253 746 311 803 l 169 842 q 340 946 239 908 q 560 983 442 983 m 568 108 q 808 191 711 108 q 925 413 904 274 l 210 413 q 328 191 232 274 q 568 108 425 108 z "},"T":{"ha":815,"x_min":6,"x_max":810,"o":"m 339 851 l 6 851 l 6 972 l 810 972 l 810 851 l 476 851 l 476 0 l 339 0 l 339 851 z "},"Ŧ":{"ha":815,"x_min":6,"x_max":810,"o":"m 339 851 l 6 851 l 6 972 l 810 972 l 810 851 l 476 851 l 476 0 l 339 0 l 339 851 m 129 526 l 685 526 l 685 417 l 129 417 l 129 526 z "},"Ť":{"ha":815,"x_min":6,"x_max":810,"o":"m 339 851 l 6 851 l 6 972 l 810 972 l 810 851 l 476 851 l 476 0 l 339 0 l 339 851 m 656 1232 l 471 1051 l 343 1051 l 158 1232 l 279 1232 l 407 1126 l 535 1232 l 656 1232 z "},"Ţ":{"ha":815,"x_min":6,"x_max":810,"o":"m 339 851 l 6 851 l 6 972 l 810 972 l 810 851 l 476 851 l 476 0 l 339 0 l 339 851 m 372 -311 q 249 -281 300 -311 l 278 -212 q 372 -236 319 -236 q 450 -181 450 -236 q 431 -141 450 -156 q 371 -126 411 -126 l 333 -126 l 368 10 l 444 10 l 424 -69 q 513 -106 482 -75 q 544 -185 544 -137 q 497 -277 544 -243 q 372 -311 450 -311 z "},"Ț":{"ha":815,"x_min":6,"x_max":810,"o":"m 339 851 l 6 851 l 6 972 l 810 972 l 810 851 l 476 851 l 476 0 l 339 0 l 339 851 m 407 -131 q 458 -149 439 -131 q 478 -194 478 -167 q 460 -265 478 -228 l 418 -365 l 349 -365 l 381 -254 q 348 -232 360 -247 q 336 -194 336 -217 q 356 -149 336 -167 q 407 -131 375 -131 z "},"Ṭ":{"ha":815,"x_min":6,"x_max":810,"o":"m 339 851 l 6 851 l 6 972 l 810 972 l 810 851 l 476 851 l 476 0 l 339 0 l 339 851 m 407 -272 q 357 -253 378 -272 q 336 -203 336 -233 q 357 -151 336 -172 q 407 -131 378 -131 q 457 -151 436 -131 q 478 -203 478 -172 q 457 -253 478 -233 q 407 -272 436 -272 z "},"Ṯ":{"ha":815,"x_min":6,"x_max":810,"o":"m 339 851 l 6 851 l 6 972 l 810 972 l 810 851 l 476 851 l 476 0 l 339 0 l 339 851 m 181 -157 l 633 -157 l 633 -242 l 181 -242 l 181 -157 z "},"U":{"ha":1099,"x_min":138,"x_max":960,"o":"m 549 -11 q 246 100 354 -11 q 138 419 138 211 l 138 972 l 276 972 l 276 425 q 550 113 276 113 q 754 190 683 113 q 825 425 825 267 l 825 972 l 960 972 l 960 419 q 851 99 960 210 q 549 -11 743 -11 z "},"Ú":{"ha":1099,"x_min":138,"x_max":960,"o":"m 549 -11 q 246 100 354 -11 q 138 419 138 211 l 138 972 l 276 972 l 276 425 q 550 113 276 113 q 754 190 683 113 q 825 425 825 267 l 825 972 l 960 972 l 960 419 q 851 99 960 210 q 549 -11 743 -11 m 635 1232 l 804 1232 l 571 1051 l 446 1051 l 635 1232 z "},"Ŭ":{"ha":1099,"x_min":138,"x_max":960,"o":"m 549 -11 q 246 100 354 -11 q 138 419 138 211 l 138 972 l 276 972 l 276 425 q 550 113 276 113 q 754 190 683 113 q 825 425 825 267 l 825 972 l 960 972 l 960 419 q 851 99 960 210 q 549 -11 743 -11 m 550 1043 q 391 1094 454 1043 q 325 1232 328 1146 l 415 1232 q 455 1151 417 1182 q 550 1121 493 1121 q 645 1151 607 1121 q 685 1232 683 1182 l 775 1232 q 709 1094 772 1146 q 550 1043 646 1043 z "},"Ǔ":{"ha":1099,"x_min":138,"x_max":960,"o":"m 549 -11 q 246 100 354 -11 q 138 419 138 211 l 138 972 l 276 972 l 276 425 q 550 113 276 113 q 754 190 683 113 q 825 425 825 267 l 825 972 l 960 972 l 960 419 q 851 99 960 210 q 549 -11 743 -11 m 799 1232 l 614 1051 l 486 1051 l 301 1232 l 422 1232 l 550 1126 l 678 1232 l 799 1232 z "},"Û":{"ha":1099,"x_min":138,"x_max":960,"o":"m 549 -11 q 246 100 354 -11 q 138 419 138 211 l 138 972 l 276 972 l 276 425 q 550 113 276 113 q 754 190 683 113 q 825 425 825 267 l 825 972 l 960 972 l 960 419 q 851 99 960 210 q 549 -11 743 -11 m 678 1051 l 550 1158 l 422 1051 l 301 1051 l 486 1232 l 614 1232 l 799 1051 l 678 1051 z "},"Ȕ":{"ha":1099,"x_min":138,"x_max":960,"o":"m 549 -11 q 246 100 354 -11 q 138 419 138 211 l 138 972 l 276 972 l 276 425 q 550 113 276 113 q 754 190 683 113 q 825 425 825 267 l 825 972 l 960 972 l 960 419 q 851 99 960 210 q 549 -11 743 -11 m 221 1232 l 361 1232 l 485 1051 l 372 1051 l 221 1232 m 461 1232 l 603 1232 l 728 1051 l 615 1051 l 461 1232 z "},"Ü":{"ha":1099,"x_min":138,"x_max":960,"o":"m 549 -11 q 246 100 354 -11 q 138 419 138 211 l 138 972 l 276 972 l 276 425 q 550 113 276 113 q 754 190 683 113 q 825 425 825 267 l 825 972 l 960 972 l 960 419 q 851 99 960 210 q 549 -11 743 -11 m 421 1075 q 371 1095 392 1075 q 350 1146 350 1115 q 371 1197 350 1176 q 421 1218 392 1218 q 471 1197 450 1218 q 492 1146 492 1176 q 471 1095 492 1115 q 421 1075 450 1075 m 679 1075 q 629 1095 650 1075 q 608 1146 608 1115 q 629 1197 608 1176 q 679 1218 650 1218 q 729 1197 708 1218 q 750 1146 750 1176 q 729 1095 750 1115 q 679 1075 708 1075 z "},"Ụ":{"ha":1099,"x_min":138,"x_max":960,"o":"m 549 -11 q 246 100 354 -11 q 138 419 138 211 l 138 972 l 276 972 l 276 425 q 550 113 276 113 q 754 190 683 113 q 825 425 825 267 l 825 972 l 960 972 l 960 419 q 851 99 960 210 q 549 -11 743 -11 m 550 -272 q 500 -253 521 -272 q 479 -203 479 -233 q 500 -151 479 -172 q 550 -131 521 -131 q 600 -151 579 -131 q 621 -203 621 -172 q 600 -253 621 -233 q 550 -272 579 -272 z "},"Ù":{"ha":1099,"x_min":138,"x_max":960,"o":"m 549 -11 q 246 100 354 -11 q 138 419 138 211 l 138 972 l 276 972 l 276 425 q 550 113 276 113 q 754 190 683 113 q 825 425 825 267 l 825 972 l 960 972 l 960 419 q 851 99 960 210 q 549 -11 743 -11 m 296 1232 l 465 1232 l 654 1051 l 529 1051 l 296 1232 z "},"Ủ":{"ha":1099,"x_min":138,"x_max":960,"o":"m 549 -11 q 246 100 354 -11 q 138 419 138 211 l 138 972 l 276 972 l 276 425 q 550 113 276 113 q 754 190 683 113 q 825 425 825 267 l 825 972 l 960 972 l 960 419 q 851 99 960 210 q 549 -11 743 -11 m 531 1093 q 590 1134 571 1111 q 608 1186 608 1157 q 588 1233 608 1214 q 536 1251 568 1251 q 453 1225 493 1251 l 422 1288 q 481 1317 447 1307 q 549 1326 514 1326 q 651 1291 611 1326 q 690 1197 690 1256 q 576 1039 690 1092 l 531 1093 z "},"Ư":{"ha":1110,"x_min":138,"x_max":1101,"o":"m 549 -11 q 246 100 354 -11 q 138 419 138 211 l 138 972 l 276 972 l 276 425 q 550 113 276 113 q 754 190 683 113 q 825 425 825 267 l 825 972 l 960 972 l 960 419 q 851 99 960 210 q 549 -11 743 -11 m 892 972 l 917 972 q 983 997 961 972 q 1006 1063 1006 1022 q 978 1150 1006 1113 l 1063 1182 q 1101 1058 1101 1129 q 1052 922 1101 972 q 917 871 1003 871 l 892 871 l 892 972 z "},"Ứ":{"ha":1110,"x_min":138,"x_max":1101,"o":"m 549 -11 q 246 100 354 -11 q 138 419 138 211 l 138 972 l 276 972 l 276 425 q 550 113 276 113 q 754 190 683 113 q 825 425 825 267 l 825 972 l 960 972 l 960 419 q 851 99 960 210 q 549 -11 743 -11 m 892 972 l 917 972 q 983 997 961 972 q 1006 1063 1006 1022 q 978 1150 1006 1113 l 1063 1182 q 1101 1058 1101 1129 q 1052 922 1101 972 q 917 871 1003 871 l 892 871 l 892 972 m 635 1232 l 804 1232 l 571 1051 l 446 1051 l 635 1232 z "},"Ự":{"ha":1110,"x_min":138,"x_max":1101,"o":"m 549 -11 q 246 100 354 -11 q 138 419 138 211 l 138 972 l 276 972 l 276 425 q 550 113 276 113 q 754 190 683 113 q 825 425 825 267 l 825 972 l 960 972 l 960 419 q 851 99 960 210 q 549 -11 743 -11 m 892 972 l 917 972 q 983 997 961 972 q 1006 1063 1006 1022 q 978 1150 1006 1113 l 1063 1182 q 1101 1058 1101 1129 q 1052 922 1101 972 q 917 871 1003 871 l 892 871 l 892 972 m 550 -272 q 500 -253 521 -272 q 479 -203 479 -233 q 500 -151 479 -172 q 550 -131 521 -131 q 600 -151 579 -131 q 621 -203 621 -172 q 600 -253 621 -233 q 550 -272 579 -272 z "},"Ừ":{"ha":1110,"x_min":138,"x_max":1101,"o":"m 549 -11 q 246 100 354 -11 q 138 419 138 211 l 138 972 l 276 972 l 276 425 q 550 113 276 113 q 754 190 683 113 q 825 425 825 267 l 825 972 l 960 972 l 960 419 q 851 99 960 210 q 549 -11 743 -11 m 892 972 l 917 972 q 983 997 961 972 q 1006 1063 1006 1022 q 978 1150 1006 1113 l 1063 1182 q 1101 1058 1101 1129 q 1052 922 1101 972 q 917 871 1003 871 l 892 871 l 892 972 m 296 1232 l 465 1232 l 654 1051 l 529 1051 l 296 1232 z "},"Ử":{"ha":1110,"x_min":138,"x_max":1101,"o":"m 549 -11 q 246 100 354 -11 q 138 419 138 211 l 138 972 l 276 972 l 276 425 q 550 113 276 113 q 754 190 683 113 q 825 425 825 267 l 825 972 l 960 972 l 960 419 q 851 99 960 210 q 549 -11 743 -11 m 892 972 l 917 972 q 983 997 961 972 q 1006 1063 1006 1022 q 978 1150 1006 1113 l 1063 1182 q 1101 1058 1101 1129 q 1052 922 1101 972 q 917 871 1003 871 l 892 871 l 892 972 m 531 1093 q 590 1134 571 1111 q 608 1186 608 1157 q 588 1233 608 1214 q 536 1251 568 1251 q 453 1225 493 1251 l 422 1288 q 481 1317 447 1307 q 549 1326 514 1326 q 651 1291 611 1326 q 690 1197 690 1256 q 576 1039 690 1092 l 531 1093 z "},"Ữ":{"ha":1110,"x_min":138,"x_max":1101,"o":"m 549 -11 q 246 100 354 -11 q 138 419 138 211 l 138 972 l 276 972 l 276 425 q 550 113 276 113 q 754 190 683 113 q 825 425 825 267 l 825 972 l 960 972 l 960 419 q 851 99 960 210 q 549 -11 743 -11 m 892 972 l 917 972 q 983 997 961 972 q 1006 1063 1006 1022 q 978 1150 1006 1113 l 1063 1182 q 1101 1058 1101 1129 q 1052 922 1101 972 q 917 871 1003 871 l 892 871 l 892 972 m 647 1056 q 590 1069 614 1056 q 529 1111 565 1083 q 493 1140 508 1131 q 463 1149 478 1149 q 413 1126 432 1149 q 392 1063 393 1103 l 317 1063 q 356 1186 319 1140 q 453 1232 393 1232 q 512 1217 486 1232 q 571 1175 538 1203 q 608 1147 594 1156 q 638 1138 622 1138 q 688 1160 668 1138 q 708 1221 707 1182 l 783 1221 q 744 1101 781 1146 q 647 1056 707 1056 z "},"Ű":{"ha":1099,"x_min":138,"x_max":960,"o":"m 549 -11 q 246 100 354 -11 q 138 419 138 211 l 138 972 l 276 972 l 276 425 q 550 113 276 113 q 754 190 683 113 q 825 425 825 267 l 825 972 l 960 972 l 960 419 q 851 99 960 210 q 549 -11 743 -11 m 497 1232 l 639 1232 l 485 1051 l 372 1051 l 497 1232 m 739 1232 l 879 1232 l 728 1051 l 615 1051 l 739 1232 z "},"Ȗ":{"ha":1099,"x_min":138,"x_max":960,"o":"m 549 -11 q 246 100 354 -11 q 138 419 138 211 l 138 972 l 276 972 l 276 425 q 550 113 276 113 q 754 190 683 113 q 825 425 825 267 l 825 972 l 960 972 l 960 419 q 851 99 960 210 q 549 -11 743 -11 m 325 1051 q 391 1189 328 1138 q 550 1240 454 1240 q 709 1189 646 1240 q 775 1051 772 1138 l 685 1051 q 645 1133 683 1103 q 550 1163 607 1163 q 455 1133 493 1163 q 415 1051 417 1103 l 325 1051 z "},"Ū":{"ha":1099,"x_min":138,"x_max":960,"o":"m 549 -11 q 246 100 354 -11 q 138 419 138 211 l 138 972 l 276 972 l 276 425 q 550 113 276 113 q 754 190 683 113 q 825 425 825 267 l 825 972 l 960 972 l 960 419 q 851 99 960 210 q 549 -11 743 -11 m 324 1183 l 776 1183 l 776 1100 l 324 1100 l 324 1183 z "},"Ṻ":{"ha":1099,"x_min":138,"x_max":960,"o":"m 549 -11 q 246 100 354 -11 q 138 419 138 211 l 138 972 l 276 972 l 276 425 q 550 113 276 113 q 754 190 683 113 q 825 425 825 267 l 825 972 l 960 972 l 960 419 q 851 99 960 210 q 549 -11 743 -11 m 324 1163 l 776 1163 l 776 1083 l 324 1083 l 324 1163 m 425 1274 q 376 1293 396 1274 q 356 1343 356 1313 q 376 1392 356 1372 q 425 1411 396 1411 q 473 1392 453 1411 q 493 1343 493 1372 q 473 1294 493 1314 q 425 1274 453 1274 m 676 1274 q 628 1294 649 1274 q 608 1343 608 1314 q 628 1392 608 1372 q 676 1411 649 1411 q 726 1392 706 1411 q 746 1343 746 1372 q 726 1294 746 1314 q 676 1274 706 1274 z "},"Ų":{"ha":1099,"x_min":138,"x_max":960,"o":"m 960 972 l 960 419 q 894 154 960 256 q 708 11 829 53 q 508 -161 508 -60 q 532 -214 508 -194 q 594 -233 556 -233 q 640 -227 617 -233 q 679 -210 663 -221 l 706 -278 q 581 -311 650 -311 q 458 -273 503 -311 q 414 -171 414 -235 q 510 -10 414 -78 q 235 112 333 1 q 138 419 138 222 l 138 972 l 276 972 l 276 425 q 550 113 276 113 q 754 190 683 113 q 825 425 825 267 l 825 972 l 960 972 z "},"Ů":{"ha":1099,"x_min":138,"x_max":960,"o":"m 549 -11 q 246 100 354 -11 q 138 419 138 211 l 138 972 l 276 972 l 276 425 q 550 113 276 113 q 754 190 683 113 q 825 425 825 267 l 825 972 l 960 972 l 960 419 q 851 99 960 210 q 549 -11 743 -11 m 549 1061 q 440 1105 485 1061 q 396 1211 396 1149 q 440 1319 396 1274 q 549 1364 485 1364 q 658 1319 614 1364 q 703 1211 703 1274 q 658 1105 703 1149 q 549 1061 614 1061 m 549 1119 q 615 1146 589 1119 q 640 1211 640 1172 q 614 1278 640 1251 q 549 1304 588 1304 q 484 1278 510 1304 q 458 1211 458 1251 q 484 1146 458 1172 q 549 1119 510 1119 z "},"Ũ":{"ha":1099,"x_min":138,"x_max":960,"o":"m 549 -11 q 246 100 354 -11 q 138 419 138 211 l 138 972 l 276 972 l 276 425 q 550 113 276 113 q 754 190 683 113 q 825 425 825 267 l 825 972 l 960 972 l 960 419 q 851 99 960 210 q 549 -11 743 -11 m 647 1056 q 590 1069 614 1056 q 529 1111 565 1083 q 493 1140 508 1131 q 463 1149 478 1149 q 413 1126 432 1149 q 392 1063 393 1103 l 317 1063 q 356 1186 319 1140 q 453 1232 393 1232 q 512 1217 486 1232 q 571 1175 538 1203 q 608 1147 594 1156 q 638 1138 622 1138 q 688 1160 668 1138 q 708 1221 707 1182 l 783 1221 q 744 1101 781 1146 q 647 1056 707 1056 z "},"Ṹ":{"ha":1099,"x_min":138,"x_max":960,"o":"m 549 -11 q 246 100 354 -11 q 138 419 138 211 l 138 972 l 276 972 l 276 425 q 550 113 276 113 q 754 190 683 113 q 825 425 825 267 l 825 972 l 960 972 l 960 419 q 851 99 960 210 q 549 -11 743 -11 m 647 1058 q 587 1069 613 1058 q 528 1103 561 1081 q 460 1133 485 1133 q 396 1064 399 1133 l 321 1064 q 358 1169 322 1131 q 454 1207 393 1207 q 512 1196 486 1207 q 571 1163 538 1185 q 610 1140 594 1147 q 642 1132 625 1132 q 688 1150 672 1132 q 706 1200 704 1168 l 779 1200 q 742 1097 778 1135 q 647 1058 707 1058 m 618 1406 l 769 1406 l 564 1249 l 454 1249 l 618 1406 z "},"V":{"ha":989,"x_min":-1,"x_max":990,"o":"m 990 972 l 564 0 l 426 0 l -1 972 l 149 972 l 499 174 l 851 972 l 990 972 z "},"W":{"ha":1564,"x_min":44,"x_max":1519,"o":"m 1519 972 l 1194 0 l 1049 0 l 783 776 l 518 0 l 369 0 l 44 972 l 188 972 l 450 182 l 724 972 l 851 972 l 1119 178 l 1388 972 l 1519 972 z "},"Ẃ":{"ha":1564,"x_min":44,"x_max":1519,"o":"m 1519 972 l 1194 0 l 1049 0 l 783 776 l 518 0 l 369 0 l 44 972 l 188 972 l 450 182 l 724 972 l 851 972 l 1119 178 l 1388 972 l 1519 972 m 868 1232 l 1038 1232 l 804 1051 l 679 1051 l 868 1232 z "},"Ŵ":{"ha":1564,"x_min":44,"x_max":1519,"o":"m 1519 972 l 1194 0 l 1049 0 l 783 776 l 518 0 l 369 0 l 44 972 l 188 972 l 450 182 l 724 972 l 851 972 l 1119 178 l 1388 972 l 1519 972 m 911 1051 l 783 1158 l 656 1051 l 535 1051 l 719 1232 l 847 1232 l 1032 1051 l 911 1051 z "},"Ẅ":{"ha":1564,"x_min":44,"x_max":1519,"o":"m 1519 972 l 1194 0 l 1049 0 l 783 776 l 518 0 l 369 0 l 44 972 l 188 972 l 450 182 l 724 972 l 851 972 l 1119 178 l 1388 972 l 1519 972 m 654 1075 q 604 1095 625 1075 q 583 1146 583 1115 q 604 1197 583 1176 q 654 1218 625 1218 q 704 1197 683 1218 q 725 1146 725 1176 q 704 1095 725 1115 q 654 1075 683 1075 m 913 1075 q 863 1095 883 1075 q 842 1146 842 1115 q 863 1197 842 1176 q 913 1218 883 1218 q 963 1197 942 1218 q 983 1146 983 1176 q 963 1095 983 1115 q 913 1075 942 1075 z "},"Ẁ":{"ha":1564,"x_min":44,"x_max":1519,"o":"m 1519 972 l 1194 0 l 1049 0 l 783 776 l 518 0 l 369 0 l 44 972 l 188 972 l 450 182 l 724 972 l 851 972 l 1119 178 l 1388 972 l 1519 972 m 529 1232 l 699 1232 l 888 1051 l 763 1051 l 529 1232 z "},"X":{"ha":935,"x_min":18,"x_max":917,"o":"m 757 0 l 465 401 l 178 0 l 18 0 l 383 499 l 40 972 l 199 972 l 471 599 l 740 972 l 892 972 l 549 503 l 917 0 l 757 0 z "},"Y":{"ha":899,"x_min":-6,"x_max":904,"o":"m 518 336 l 518 0 l 381 0 l 381 339 l -6 972 l 143 972 l 454 460 l 767 972 l 904 972 l 518 336 z "},"Ý":{"ha":899,"x_min":-6,"x_max":904,"o":"m 518 336 l 518 0 l 381 0 l 381 339 l -6 972 l 143 972 l 454 460 l 767 972 l 904 972 l 518 336 m 535 1232 l 704 1232 l 471 1051 l 346 1051 l 535 1232 z "},"Ŷ":{"ha":899,"x_min":-6,"x_max":904,"o":"m 518 336 l 518 0 l 381 0 l 381 339 l -6 972 l 143 972 l 454 460 l 767 972 l 904 972 l 518 336 m 578 1051 l 450 1158 l 322 1051 l 201 1051 l 386 1232 l 514 1232 l 699 1051 l 578 1051 z "},"Ÿ":{"ha":899,"x_min":-6,"x_max":904,"o":"m 518 336 l 518 0 l 381 0 l 381 339 l -6 972 l 143 972 l 454 460 l 767 972 l 904 972 l 518 336 m 321 1075 q 271 1095 292 1075 q 250 1146 250 1115 q 271 1197 250 1176 q 321 1218 292 1218 q 371 1197 350 1218 q 392 1146 392 1176 q 371 1095 392 1115 q 321 1075 350 1075 m 579 1075 q 529 1095 550 1075 q 508 1146 508 1115 q 529 1197 508 1176 q 579 1218 550 1218 q 629 1197 608 1218 q 650 1146 650 1176 q 629 1095 650 1115 q 579 1075 608 1075 z "},"Ẏ":{"ha":899,"x_min":-6,"x_max":904,"o":"m 518 336 l 518 0 l 381 0 l 381 339 l -6 972 l 143 972 l 454 460 l 767 972 l 904 972 l 518 336 m 450 1076 q 392 1100 415 1076 q 368 1158 368 1124 q 392 1217 368 1193 q 450 1240 415 1240 q 508 1217 485 1240 q 532 1158 532 1193 q 508 1100 532 1124 q 450 1076 485 1076 z "},"Ỵ":{"ha":899,"x_min":-6,"x_max":904,"o":"m 518 336 l 518 0 l 381 0 l 381 339 l -6 972 l 143 972 l 454 460 l 767 972 l 904 972 l 518 336 m 450 -272 q 400 -253 421 -272 q 379 -203 379 -233 q 400 -151 379 -172 q 450 -131 421 -131 q 500 -151 479 -131 q 521 -203 521 -172 q 500 -253 521 -233 q 450 -272 479 -272 z "},"Ỳ":{"ha":899,"x_min":-6,"x_max":904,"o":"m 518 336 l 518 0 l 381 0 l 381 339 l -6 972 l 143 972 l 454 460 l 767 972 l 904 972 l 518 336 m 196 1232 l 365 1232 l 554 1051 l 429 1051 l 196 1232 z "},"Ỷ":{"ha":899,"x_min":-6,"x_max":904,"o":"m 518 336 l 518 0 l 381 0 l 381 339 l -6 972 l 143 972 l 454 460 l 767 972 l 904 972 l 518 336 m 431 1093 q 490 1134 471 1111 q 508 1186 508 1157 q 488 1233 508 1214 q 436 1251 468 1251 q 353 1225 393 1251 l 322 1288 q 381 1317 347 1307 q 449 1326 414 1326 q 551 1291 511 1326 q 590 1197 590 1256 q 476 1039 590 1092 l 431 1093 z "},"Ȳ":{"ha":899,"x_min":-6,"x_max":904,"o":"m 518 336 l 518 0 l 381 0 l 381 339 l -6 972 l 143 972 l 454 460 l 767 972 l 904 972 l 518 336 m 224 1183 l 676 1183 l 676 1100 l 224 1100 l 224 1183 z "},"Ỹ":{"ha":899,"x_min":-6,"x_max":904,"o":"m 518 336 l 518 0 l 381 0 l 381 339 l -6 972 l 143 972 l 454 460 l 767 972 l 904 972 l 518 336 m 547 1056 q 490 1069 514 1056 q 429 1111 465 1083 q 393 1140 408 1131 q 363 1149 378 1149 q 313 1126 332 1149 q 292 1063 293 1103 l 217 1063 q 256 1186 219 1140 q 353 1232 293 1232 q 412 1217 386 1232 q 471 1175 438 1203 q 508 1147 494 1156 q 538 1138 522 1138 q 588 1160 568 1138 q 608 1221 607 1182 l 683 1221 q 644 1101 681 1146 q 547 1056 607 1056 z "},"Z":{"ha":913,"x_min":60,"x_max":872,"o":"m 872 121 l 872 0 l 60 0 l 60 94 l 671 851 l 69 851 l 69 972 l 854 972 l 854 878 l 246 121 l 872 121 z "},"Ź":{"ha":913,"x_min":60,"x_max":872,"o":"m 872 121 l 872 0 l 60 0 l 60 94 l 671 851 l 69 851 l 69 972 l 854 972 l 854 878 l 246 121 l 872 121 m 551 1232 l 721 1232 l 488 1051 l 363 1051 l 551 1232 z "},"Ž":{"ha":913,"x_min":60,"x_max":872,"o":"m 872 121 l 872 0 l 60 0 l 60 94 l 671 851 l 69 851 l 69 972 l 854 972 l 854 878 l 246 121 l 872 121 m 715 1232 l 531 1051 l 403 1051 l 218 1232 l 339 1232 l 467 1126 l 594 1232 l 715 1232 z "},"Ż":{"ha":913,"x_min":60,"x_max":872,"o":"m 872 121 l 872 0 l 60 0 l 60 94 l 671 851 l 69 851 l 69 972 l 854 972 l 854 878 l 246 121 l 872 121 m 467 1076 q 408 1100 432 1076 q 385 1158 385 1124 q 408 1217 385 1193 q 467 1240 432 1240 q 525 1217 501 1240 q 549 1158 549 1193 q 525 1100 549 1124 q 467 1076 501 1076 z "},"Ẓ":{"ha":913,"x_min":60,"x_max":872,"o":"m 872 121 l 872 0 l 60 0 l 60 94 l 671 851 l 69 851 l 69 972 l 854 972 l 854 878 l 246 121 l 872 121 m 475 -272 q 425 -253 446 -272 q 404 -203 404 -233 q 425 -151 404 -172 q 475 -131 446 -131 q 525 -151 504 -131 q 546 -203 546 -172 q 525 -253 546 -233 q 475 -272 504 -272 z "},"a":{"ha":831,"x_min":69,"x_max":710,"o":"m 394 743 q 628 668 547 743 q 710 444 710 593 l 710 0 l 583 0 l 583 97 q 488 19 550 46 q 342 -8 426 -8 q 144 51 218 -8 q 69 208 69 111 q 140 365 69 306 q 365 424 211 424 l 576 424 l 576 450 q 526 582 576 536 q 379 628 476 628 q 251 606 314 628 q 146 549 189 585 l 90 649 q 226 719 147 694 q 394 743 306 743 m 364 94 q 496 128 440 94 q 576 225 551 163 l 576 328 l 371 328 q 201 214 201 328 q 244 126 201 158 q 364 94 288 94 z "},"á":{"ha":831,"x_min":69,"x_max":710,"o":"m 394 743 q 628 668 547 743 q 710 444 710 593 l 710 0 l 583 0 l 583 97 q 488 19 550 46 q 342 -8 426 -8 q 144 51 218 -8 q 69 208 69 111 q 140 365 69 306 q 365 424 211 424 l 576 424 l 576 450 q 526 582 576 536 q 379 628 476 628 q 251 606 314 628 q 146 549 189 585 l 90 649 q 226 719 147 694 q 394 743 306 743 m 364 94 q 496 128 440 94 q 576 225 551 163 l 576 328 l 371 328 q 201 214 201 328 q 244 126 201 158 q 364 94 288 94 m 489 1024 l 658 1024 l 425 843 l 300 843 l 489 1024 z "},"ă":{"ha":831,"x_min":69,"x_max":710,"o":"m 394 743 q 628 668 547 743 q 710 444 710 593 l 710 0 l 583 0 l 583 97 q 488 19 550 46 q 342 -8 426 -8 q 144 51 218 -8 q 69 208 69 111 q 140 365 69 306 q 365 424 211 424 l 576 424 l 576 450 q 526 582 576 536 q 379 628 476 628 q 251 606 314 628 q 146 549 189 585 l 90 649 q 226 719 147 694 q 394 743 306 743 m 364 94 q 496 128 440 94 q 576 225 551 163 l 576 328 l 371 328 q 201 214 201 328 q 244 126 201 158 q 364 94 288 94 m 404 835 q 245 886 308 835 q 179 1024 182 938 l 269 1024 q 309 943 271 974 q 404 913 347 913 q 499 943 461 913 q 539 1024 538 974 l 629 1024 q 563 886 626 938 q 404 835 500 835 z "},"ắ":{"ha":831,"x_min":69,"x_max":710,"o":"m 394 743 q 628 668 547 743 q 710 444 710 593 l 710 0 l 583 0 l 583 97 q 488 19 550 46 q 342 -8 426 -8 q 144 51 218 -8 q 69 208 69 111 q 140 365 69 306 q 365 424 211 424 l 576 424 l 576 450 q 526 582 576 536 q 379 628 476 628 q 251 606 314 628 q 146 549 189 585 l 90 649 q 226 719 147 694 q 394 743 306 743 m 364 94 q 496 128 440 94 q 576 225 551 163 l 576 328 l 371 328 q 201 214 201 328 q 244 126 201 158 q 364 94 288 94 m 404 835 q 249 874 311 835 q 179 982 188 914 l 268 982 q 311 928 274 949 q 404 908 349 908 q 497 928 460 908 q 540 982 535 949 l 629 982 q 559 874 621 914 q 404 835 497 835 m 472 1171 l 624 1171 l 418 1014 l 308 1014 l 472 1171 z "},"ặ":{"ha":831,"x_min":69,"x_max":710,"o":"m 394 743 q 628 668 547 743 q 710 444 710 593 l 710 0 l 583 0 l 583 97 q 488 19 550 46 q 342 -8 426 -8 q 144 51 218 -8 q 69 208 69 111 q 140 365 69 306 q 365 424 211 424 l 576 424 l 576 450 q 526 582 576 536 q 379 628 476 628 q 251 606 314 628 q 146 549 189 585 l 90 649 q 226 719 147 694 q 394 743 306 743 m 364 94 q 496 128 440 94 q 576 225 551 163 l 576 328 l 371 328 q 201 214 201 328 q 244 126 201 158 q 364 94 288 94 m 401 -272 q 351 -253 372 -272 q 331 -203 331 -233 q 351 -151 331 -172 q 401 -131 372 -131 q 451 -151 431 -131 q 472 -203 472 -172 q 451 -253 472 -233 q 401 -272 431 -272 m 404 835 q 245 886 308 835 q 179 1024 182 938 l 269 1024 q 309 943 271 974 q 404 913 347 913 q 499 943 461 913 q 539 1024 538 974 l 629 1024 q 563 886 626 938 q 404 835 500 835 z "},"ằ":{"ha":831,"x_min":69,"x_max":710,"o":"m 394 743 q 628 668 547 743 q 710 444 710 593 l 710 0 l 583 0 l 583 97 q 488 19 550 46 q 342 -8 426 -8 q 144 51 218 -8 q 69 208 69 111 q 140 365 69 306 q 365 424 211 424 l 576 424 l 576 450 q 526 582 576 536 q 379 628 476 628 q 251 606 314 628 q 146 549 189 585 l 90 649 q 226 719 147 694 q 394 743 306 743 m 364 94 q 496 128 440 94 q 576 225 551 163 l 576 328 l 371 328 q 201 214 201 328 q 244 126 201 158 q 364 94 288 94 m 404 835 q 249 874 311 835 q 179 982 188 914 l 268 982 q 311 928 274 949 q 404 908 349 908 q 497 928 460 908 q 540 982 535 949 l 629 982 q 559 874 621 914 q 404 835 497 835 m 186 1171 l 338 1171 l 500 1014 l 392 1014 l 186 1171 z "},"ẳ":{"ha":831,"x_min":69,"x_max":710,"o":"m 394 743 q 628 668 547 743 q 710 444 710 593 l 710 0 l 583 0 l 583 97 q 488 19 550 46 q 342 -8 426 -8 q 144 51 218 -8 q 69 208 69 111 q 140 365 69 306 q 365 424 211 424 l 576 424 l 576 450 q 526 582 576 536 q 379 628 476 628 q 251 606 314 628 q 146 549 189 585 l 90 649 q 226 719 147 694 q 394 743 306 743 m 364 94 q 496 128 440 94 q 576 225 551 163 l 576 328 l 371 328 q 201 214 201 328 q 244 126 201 158 q 364 94 288 94 m 404 835 q 249 874 311 835 q 179 982 188 914 l 268 982 q 311 928 274 949 q 404 908 349 908 q 497 928 460 908 q 540 982 535 949 l 629 982 q 559 874 621 914 q 404 835 497 835 m 390 1017 q 432 1047 418 1029 q 446 1083 446 1065 q 431 1115 446 1103 q 393 1126 417 1126 q 333 1110 363 1126 l 308 1161 q 404 1188 350 1188 q 483 1160 454 1188 q 513 1090 513 1133 q 489 1023 513 1053 q 426 976 465 993 l 390 1017 z "},"ẵ":{"ha":831,"x_min":69,"x_max":710,"o":"m 394 743 q 628 668 547 743 q 710 444 710 593 l 710 0 l 583 0 l 583 97 q 488 19 550 46 q 342 -8 426 -8 q 144 51 218 -8 q 69 208 69 111 q 140 365 69 306 q 365 424 211 424 l 576 424 l 576 450 q 526 582 576 536 q 379 628 476 628 q 251 606 314 628 q 146 549 189 585 l 90 649 q 226 719 147 694 q 394 743 306 743 m 364 94 q 496 128 440 94 q 576 225 551 163 l 576 328 l 371 328 q 201 214 201 328 q 244 126 201 158 q 364 94 288 94 m 404 835 q 249 874 311 835 q 179 982 188 914 l 268 982 q 311 928 274 949 q 404 908 349 908 q 497 928 460 908 q 540 982 535 949 l 629 982 q 559 874 621 914 q 404 835 497 835 m 501 1021 q 441 1032 467 1021 q 382 1065 415 1043 q 314 1096 339 1096 q 250 1026 253 1096 l 175 1026 q 212 1131 176 1093 q 308 1169 247 1169 q 366 1158 340 1169 q 425 1125 392 1147 q 464 1102 449 1110 q 496 1094 479 1094 q 542 1113 526 1094 q 560 1163 558 1131 l 633 1163 q 597 1059 632 1097 q 501 1021 561 1021 z "},"ǎ":{"ha":831,"x_min":69,"x_max":710,"o":"m 394 743 q 628 668 547 743 q 710 444 710 593 l 710 0 l 583 0 l 583 97 q 488 19 550 46 q 342 -8 426 -8 q 144 51 218 -8 q 69 208 69 111 q 140 365 69 306 q 365 424 211 424 l 576 424 l 576 450 q 526 582 576 536 q 379 628 476 628 q 251 606 314 628 q 146 549 189 585 l 90 649 q 226 719 147 694 q 394 743 306 743 m 364 94 q 496 128 440 94 q 576 225 551 163 l 576 328 l 371 328 q 201 214 201 328 q 244 126 201 158 q 364 94 288 94 m 653 1024 l 468 843 l 340 843 l 156 1024 l 276 1024 l 404 918 l 532 1024 l 653 1024 z "},"â":{"ha":831,"x_min":69,"x_max":710,"o":"m 394 743 q 628 668 547 743 q 710 444 710 593 l 710 0 l 583 0 l 583 97 q 488 19 550 46 q 342 -8 426 -8 q 144 51 218 -8 q 69 208 69 111 q 140 365 69 306 q 365 424 211 424 l 576 424 l 576 450 q 526 582 576 536 q 379 628 476 628 q 251 606 314 628 q 146 549 189 585 l 90 649 q 226 719 147 694 q 394 743 306 743 m 364 94 q 496 128 440 94 q 576 225 551 163 l 576 328 l 371 328 q 201 214 201 328 q 244 126 201 158 q 364 94 288 94 m 532 843 l 404 950 l 276 843 l 156 843 l 340 1024 l 468 1024 l 653 843 l 532 843 z "},"ấ":{"ha":831,"x_min":69,"x_max":857,"o":"m 394 743 q 628 668 547 743 q 710 444 710 593 l 710 0 l 583 0 l 583 97 q 488 19 550 46 q 342 -8 426 -8 q 144 51 218 -8 q 69 208 69 111 q 140 365 69 306 q 365 424 211 424 l 576 424 l 576 450 q 526 582 576 536 q 379 628 476 628 q 251 606 314 628 q 146 549 189 585 l 90 649 q 226 719 147 694 q 394 743 306 743 m 364 94 q 496 128 440 94 q 576 225 551 163 l 576 328 l 371 328 q 201 214 201 328 q 244 126 201 158 q 364 94 288 94 m 531 843 l 404 921 l 278 843 l 156 843 l 342 982 l 467 982 l 653 843 l 531 843 m 706 1122 l 857 1122 l 651 965 l 542 965 l 706 1122 z "},"ậ":{"ha":831,"x_min":69,"x_max":710,"o":"m 394 743 q 628 668 547 743 q 710 444 710 593 l 710 0 l 583 0 l 583 97 q 488 19 550 46 q 342 -8 426 -8 q 144 51 218 -8 q 69 208 69 111 q 140 365 69 306 q 365 424 211 424 l 576 424 l 576 450 q 526 582 576 536 q 379 628 476 628 q 251 606 314 628 q 146 549 189 585 l 90 649 q 226 719 147 694 q 394 743 306 743 m 364 94 q 496 128 440 94 q 576 225 551 163 l 576 328 l 371 328 q 201 214 201 328 q 244 126 201 158 q 364 94 288 94 m 401 -272 q 351 -253 372 -272 q 331 -203 331 -233 q 351 -151 331 -172 q 401 -131 372 -131 q 451 -151 431 -131 q 472 -203 472 -172 q 451 -253 472 -233 q 401 -272 431 -272 m 532 843 l 404 950 l 276 843 l 156 843 l 340 1024 l 468 1024 l 653 843 l 532 843 z "},"ầ":{"ha":831,"x_min":69,"x_max":733,"o":"m 394 743 q 628 668 547 743 q 710 444 710 593 l 710 0 l 583 0 l 583 97 q 488 19 550 46 q 342 -8 426 -8 q 144 51 218 -8 q 69 208 69 111 q 140 365 69 306 q 365 424 211 424 l 576 424 l 576 450 q 526 582 576 536 q 379 628 476 628 q 251 606 314 628 q 146 549 189 585 l 90 649 q 226 719 147 694 q 394 743 306 743 m 364 94 q 496 128 440 94 q 576 225 551 163 l 576 328 l 371 328 q 201 214 201 328 q 244 126 201 158 q 364 94 288 94 m 531 843 l 404 921 l 278 843 l 156 843 l 342 982 l 467 982 l 653 843 l 531 843 m 419 1122 l 571 1122 l 733 965 l 625 965 l 419 1122 z "},"ẩ":{"ha":831,"x_min":69,"x_max":710,"o":"m 394 743 q 628 668 547 743 q 710 444 710 593 l 710 0 l 583 0 l 583 97 q 488 19 550 46 q 342 -8 426 -8 q 144 51 218 -8 q 69 208 69 111 q 140 365 69 306 q 365 424 211 424 l 576 424 l 576 450 q 526 582 576 536 q 379 628 476 628 q 251 606 314 628 q 146 549 189 585 l 90 649 q 226 719 147 694 q 394 743 306 743 m 364 94 q 496 128 440 94 q 576 225 551 163 l 576 328 l 371 328 q 201 214 201 328 q 244 126 201 158 q 364 94 288 94 m 531 843 l 404 921 l 278 843 l 156 843 l 342 982 l 467 982 l 653 843 l 531 843 m 571 981 q 613 1011 599 993 q 626 1047 626 1029 q 612 1078 626 1067 q 574 1090 597 1090 q 514 1074 543 1090 l 489 1125 q 585 1151 531 1151 q 664 1124 635 1151 q 693 1054 693 1097 q 669 987 693 1017 q 607 940 646 957 l 571 981 z "},"ẫ":{"ha":831,"x_min":69,"x_max":710,"o":"m 394 743 q 628 668 547 743 q 710 444 710 593 l 710 0 l 583 0 l 583 97 q 488 19 550 46 q 342 -8 426 -8 q 144 51 218 -8 q 69 208 69 111 q 140 365 69 306 q 365 424 211 424 l 576 424 l 576 450 q 526 582 576 536 q 379 628 476 628 q 251 606 314 628 q 146 549 189 585 l 90 649 q 226 719 147 694 q 394 743 306 743 m 364 94 q 496 128 440 94 q 576 225 551 163 l 576 328 l 371 328 q 201 214 201 328 q 244 126 201 158 q 364 94 288 94 m 531 843 l 404 921 l 278 843 l 156 843 l 342 982 l 467 982 l 653 843 l 531 843 m 501 1029 q 441 1040 467 1029 q 382 1074 415 1051 q 314 1104 339 1104 q 250 1035 253 1104 l 175 1035 q 212 1140 176 1101 q 308 1178 247 1178 q 366 1167 340 1178 q 425 1133 392 1156 q 464 1110 449 1118 q 496 1103 479 1103 q 542 1121 526 1103 q 560 1171 558 1139 l 633 1171 q 597 1067 632 1106 q 501 1029 561 1029 z "},"ȁ":{"ha":831,"x_min":69,"x_max":710,"o":"m 394 743 q 628 668 547 743 q 710 444 710 593 l 710 0 l 583 0 l 583 97 q 488 19 550 46 q 342 -8 426 -8 q 144 51 218 -8 q 69 208 69 111 q 140 365 69 306 q 365 424 211 424 l 576 424 l 576 450 q 526 582 576 536 q 379 628 476 628 q 251 606 314 628 q 146 549 189 585 l 90 649 q 226 719 147 694 q 394 743 306 743 m 364 94 q 496 128 440 94 q 576 225 551 163 l 576 328 l 371 328 q 201 214 201 328 q 244 126 201 158 q 364 94 288 94 m 75 1024 l 215 1024 l 339 843 l 226 843 l 75 1024 m 315 1024 l 457 1024 l 582 843 l 469 843 l 315 1024 z "},"ä":{"ha":831,"x_min":69,"x_max":710,"o":"m 394 743 q 628 668 547 743 q 710 444 710 593 l 710 0 l 583 0 l 583 97 q 488 19 550 46 q 342 -8 426 -8 q 144 51 218 -8 q 69 208 69 111 q 140 365 69 306 q 365 424 211 424 l 576 424 l 576 450 q 526 582 576 536 q 379 628 476 628 q 251 606 314 628 q 146 549 189 585 l 90 649 q 226 719 147 694 q 394 743 306 743 m 364 94 q 496 128 440 94 q 576 225 551 163 l 576 328 l 371 328 q 201 214 201 328 q 244 126 201 158 q 364 94 288 94 m 275 867 q 225 887 246 867 q 204 938 204 907 q 225 989 204 968 q 275 1010 246 1010 q 325 989 304 1010 q 346 938 346 968 q 325 887 346 907 q 275 867 304 867 m 533 867 q 483 887 504 867 q 463 938 463 907 q 483 989 463 968 q 533 1010 504 1010 q 583 989 563 1010 q 604 938 604 968 q 583 887 604 907 q 533 867 563 867 z "},"ạ":{"ha":831,"x_min":69,"x_max":710,"o":"m 394 743 q 628 668 547 743 q 710 444 710 593 l 710 0 l 583 0 l 583 97 q 488 19 550 46 q 342 -8 426 -8 q 144 51 218 -8 q 69 208 69 111 q 140 365 69 306 q 365 424 211 424 l 576 424 l 576 450 q 526 582 576 536 q 379 628 476 628 q 251 606 314 628 q 146 549 189 585 l 90 649 q 226 719 147 694 q 394 743 306 743 m 364 94 q 496 128 440 94 q 576 225 551 163 l 576 328 l 371 328 q 201 214 201 328 q 244 126 201 158 q 364 94 288 94 m 401 -272 q 351 -253 372 -272 q 331 -203 331 -233 q 351 -151 331 -172 q 401 -131 372 -131 q 451 -151 431 -131 q 472 -203 472 -172 q 451 -253 472 -233 q 401 -272 431 -272 z "},"à":{"ha":831,"x_min":69,"x_max":710,"o":"m 394 743 q 628 668 547 743 q 710 444 710 593 l 710 0 l 583 0 l 583 97 q 488 19 550 46 q 342 -8 426 -8 q 144 51 218 -8 q 69 208 69 111 q 140 365 69 306 q 365 424 211 424 l 576 424 l 576 450 q 526 582 576 536 q 379 628 476 628 q 251 606 314 628 q 146 549 189 585 l 90 649 q 226 719 147 694 q 394 743 306 743 m 364 94 q 496 128 440 94 q 576 225 551 163 l 576 328 l 371 328 q 201 214 201 328 q 244 126 201 158 q 364 94 288 94 m 150 1024 l 319 1024 l 508 843 l 383 843 l 150 1024 z "},"ả":{"ha":831,"x_min":69,"x_max":710,"o":"m 394 743 q 628 668 547 743 q 710 444 710 593 l 710 0 l 583 0 l 583 97 q 488 19 550 46 q 342 -8 426 -8 q 144 51 218 -8 q 69 208 69 111 q 140 365 69 306 q 365 424 211 424 l 576 424 l 576 450 q 526 582 576 536 q 379 628 476 628 q 251 606 314 628 q 146 549 189 585 l 90 649 q 226 719 147 694 q 394 743 306 743 m 364 94 q 496 128 440 94 q 576 225 551 163 l 576 328 l 371 328 q 201 214 201 328 q 244 126 201 158 q 364 94 288 94 m 385 885 q 444 926 425 903 q 463 978 463 949 q 442 1024 463 1006 q 390 1043 422 1043 q 307 1017 347 1043 l 276 1079 q 335 1108 301 1099 q 403 1118 368 1118 q 505 1083 465 1118 q 544 989 544 1047 q 431 831 544 883 l 385 885 z "},"ȃ":{"ha":831,"x_min":69,"x_max":710,"o":"m 394 743 q 628 668 547 743 q 710 444 710 593 l 710 0 l 583 0 l 583 97 q 488 19 550 46 q 342 -8 426 -8 q 144 51 218 -8 q 69 208 69 111 q 140 365 69 306 q 365 424 211 424 l 576 424 l 576 450 q 526 582 576 536 q 379 628 476 628 q 251 606 314 628 q 146 549 189 585 l 90 649 q 226 719 147 694 q 394 743 306 743 m 364 94 q 496 128 440 94 q 576 225 551 163 l 576 328 l 371 328 q 201 214 201 328 q 244 126 201 158 q 364 94 288 94 m 179 843 q 245 981 182 929 q 404 1032 308 1032 q 563 981 500 1032 q 629 843 626 929 l 539 843 q 499 924 538 894 q 404 954 461 954 q 309 924 347 954 q 269 843 271 894 l 179 843 z "},"ā":{"ha":831,"x_min":69,"x_max":710,"o":"m 394 743 q 628 668 547 743 q 710 444 710 593 l 710 0 l 583 0 l 583 97 q 488 19 550 46 q 342 -8 426 -8 q 144 51 218 -8 q 69 208 69 111 q 140 365 69 306 q 365 424 211 424 l 576 424 l 576 450 q 526 582 576 536 q 379 628 476 628 q 251 606 314 628 q 146 549 189 585 l 90 649 q 226 719 147 694 q 394 743 306 743 m 364 94 q 496 128 440 94 q 576 225 551 163 l 576 328 l 371 328 q 201 214 201 328 q 244 126 201 158 q 364 94 288 94 m 178 975 l 631 975 l 631 892 l 178 892 l 178 975 z "},"ą":{"ha":831,"x_min":69,"x_max":740,"o":"m 394 743 q 628 668 547 743 q 710 444 710 593 l 710 0 l 583 0 l 583 97 q 488 19 550 46 q 342 -8 426 -8 q 144 51 218 -8 q 69 208 69 111 q 140 365 69 306 q 365 424 211 424 l 576 424 l 576 450 q 526 582 576 536 q 379 628 476 628 q 251 606 314 628 q 146 549 189 585 l 90 649 q 226 719 147 694 q 394 743 306 743 m 364 94 q 496 128 440 94 q 576 225 551 163 l 576 328 l 371 328 q 201 214 201 328 q 244 126 201 158 q 364 94 288 94 m 615 -311 q 493 -273 538 -311 q 449 -171 449 -235 q 496 -53 449 -110 q 647 44 543 3 l 710 0 q 583 -78 621 -39 q 544 -161 544 -118 q 568 -214 544 -194 q 629 -233 592 -233 q 715 -210 681 -233 l 740 -278 q 615 -311 688 -311 z "},"å":{"ha":831,"x_min":69,"x_max":710,"o":"m 394 743 q 628 668 547 743 q 710 444 710 593 l 710 0 l 583 0 l 583 97 q 488 19 550 46 q 342 -8 426 -8 q 144 51 218 -8 q 69 208 69 111 q 140 365 69 306 q 365 424 211 424 l 576 424 l 576 450 q 526 582 576 536 q 379 628 476 628 q 251 606 314 628 q 146 549 189 585 l 90 649 q 226 719 147 694 q 394 743 306 743 m 364 94 q 496 128 440 94 q 576 225 551 163 l 576 328 l 371 328 q 201 214 201 328 q 244 126 201 158 q 364 94 288 94 m 403 825 q 294 869 339 825 q 250 975 250 913 q 294 1083 250 1038 q 403 1128 339 1128 q 513 1083 468 1128 q 557 975 557 1038 q 513 869 557 913 q 403 825 468 825 m 403 883 q 469 910 443 883 q 494 975 494 936 q 468 1042 494 1015 q 403 1068 442 1068 q 338 1042 364 1068 q 313 975 313 1015 q 338 910 313 936 q 403 883 364 883 z "},"ǻ":{"ha":831,"x_min":69,"x_max":710,"o":"m 394 743 q 628 668 547 743 q 710 444 710 593 l 710 0 l 583 0 l 583 97 q 488 19 550 46 q 342 -8 426 -8 q 144 51 218 -8 q 69 208 69 111 q 140 365 69 306 q 365 424 211 424 l 576 424 l 576 450 q 526 582 576 536 q 379 628 476 628 q 251 606 314 628 q 146 549 189 585 l 90 649 q 226 719 147 694 q 394 743 306 743 m 364 94 q 496 128 440 94 q 576 225 551 163 l 576 328 l 371 328 q 201 214 201 328 q 244 126 201 158 q 364 94 288 94 m 531 1063 q 557 975 557 1024 q 513 869 557 913 q 403 825 468 825 q 294 869 339 825 q 250 975 250 913 q 294 1083 250 1038 q 403 1128 339 1128 q 478 1108 443 1128 l 594 1226 l 664 1169 l 531 1063 m 403 883 q 469 910 443 883 q 494 975 494 936 q 468 1042 494 1015 q 403 1068 442 1068 q 338 1042 364 1068 q 313 975 313 1015 q 338 910 313 936 q 403 883 364 883 z "},"ã":{"ha":831,"x_min":69,"x_max":710,"o":"m 394 743 q 628 668 547 743 q 710 444 710 593 l 710 0 l 583 0 l 583 97 q 488 19 550 46 q 342 -8 426 -8 q 144 51 218 -8 q 69 208 69 111 q 140 365 69 306 q 365 424 211 424 l 576 424 l 576 450 q 526 582 576 536 q 379 628 476 628 q 251 606 314 628 q 146 549 189 585 l 90 649 q 226 719 147 694 q 394 743 306 743 m 364 94 q 496 128 440 94 q 576 225 551 163 l 576 328 l 371 328 q 201 214 201 328 q 244 126 201 158 q 364 94 288 94 m 501 847 q 444 861 468 847 q 383 903 419 875 q 347 931 363 922 q 317 940 332 940 q 267 917 286 940 q 246 854 247 894 l 171 854 q 210 978 174 932 q 307 1024 247 1024 q 366 1009 340 1024 q 425 967 392 994 q 463 938 449 947 q 492 929 476 929 q 542 951 522 929 q 563 1013 561 974 l 638 1013 q 598 892 635 938 q 501 847 561 847 z "},"æ":{"ha":1374,"x_min":69,"x_max":1315,"o":"m 1315 372 q 1311 326 1315 346 l 711 326 q 794 168 722 228 q 978 108 867 108 q 1190 197 1107 108 l 1265 111 q 1140 22 1214 53 q 974 -8 1065 -8 q 788 28 871 -8 q 650 140 704 65 q 529 27 607 63 q 356 -8 451 -8 q 146 53 222 -8 q 69 214 69 114 q 140 364 69 306 q 365 422 211 422 l 576 422 l 576 450 q 527 582 576 536 q 381 628 478 628 q 251 606 314 628 q 146 549 189 585 l 90 649 q 226 719 147 694 q 393 743 306 743 q 667 613 597 743 q 788 708 715 674 q 949 743 861 743 q 1137 695 1053 743 q 1268 563 1221 647 q 1315 372 1315 478 m 947 631 q 792 575 858 631 q 713 422 725 519 l 1183 422 q 1105 575 1172 519 q 947 631 1038 631 m 367 94 q 520 144 464 94 q 576 279 576 194 l 576 326 l 371 326 q 201 217 201 326 q 245 126 201 158 q 367 94 289 94 z "},"ǽ":{"ha":1374,"x_min":69,"x_max":1315,"o":"m 1315 372 q 1311 326 1315 346 l 711 326 q 794 168 722 228 q 978 108 867 108 q 1190 197 1107 108 l 1265 111 q 1140 22 1214 53 q 974 -8 1065 -8 q 788 28 871 -8 q 650 140 704 65 q 529 27 607 63 q 356 -8 451 -8 q 146 53 222 -8 q 69 214 69 114 q 140 364 69 306 q 365 422 211 422 l 576 422 l 576 450 q 527 582 576 536 q 381 628 478 628 q 251 606 314 628 q 146 549 189 585 l 90 649 q 226 719 147 694 q 393 743 306 743 q 667 613 597 743 q 788 708 715 674 q 949 743 861 743 q 1137 695 1053 743 q 1268 563 1221 647 q 1315 372 1315 478 m 947 631 q 792 575 858 631 q 713 422 725 519 l 1183 422 q 1105 575 1172 519 q 947 631 1038 631 m 367 94 q 520 144 464 94 q 576 279 576 194 l 576 326 l 371 326 q 201 217 201 326 q 245 126 201 158 q 367 94 289 94 m 728 1024 l 897 1024 l 664 843 l 539 843 l 728 1024 z "},"b":{"ha":947,"x_min":126,"x_max":889,"o":"m 517 743 q 708 696 624 743 q 841 564 793 649 q 889 368 889 479 q 841 172 889 257 q 708 39 793 86 q 517 -8 624 -8 q 367 24 435 -8 q 254 117 299 56 l 254 0 l 126 0 l 126 1031 l 260 1031 l 260 625 q 371 713 304 683 q 517 743 438 743 m 506 108 q 633 141 576 108 q 722 233 689 174 q 754 368 754 292 q 722 503 754 444 q 633 594 689 563 q 506 626 576 626 q 379 594 436 626 q 290 503 322 563 q 258 368 258 444 q 290 233 258 292 q 379 141 322 174 q 506 108 436 108 z "},"c":{"ha":793,"x_min":58,"x_max":747,"o":"m 447 -8 q 247 40 335 -8 q 108 174 158 89 q 58 368 58 260 q 108 562 58 476 q 247 695 158 647 q 447 743 335 743 q 626 703 547 743 q 747 586 704 663 l 646 521 q 560 600 611 574 q 446 626 508 626 q 316 594 374 626 q 226 503 258 563 q 193 368 193 444 q 226 231 193 290 q 316 140 258 172 q 446 108 374 108 q 560 135 508 108 q 646 214 611 161 l 747 150 q 626 33 704 74 q 447 -8 547 -8 z "},"ć":{"ha":793,"x_min":58,"x_max":747,"o":"m 447 -8 q 247 40 335 -8 q 108 174 158 89 q 58 368 58 260 q 108 562 58 476 q 247 695 158 647 q 447 743 335 743 q 626 703 547 743 q 747 586 704 663 l 646 521 q 560 600 611 574 q 446 626 508 626 q 316 594 374 626 q 226 503 258 563 q 193 368 193 444 q 226 231 193 290 q 316 140 258 172 q 446 108 374 108 q 560 135 508 108 q 646 214 611 161 l 747 150 q 626 33 704 74 q 447 -8 547 -8 m 506 1024 l 675 1024 l 442 843 l 317 843 l 506 1024 z "},"č":{"ha":793,"x_min":58,"x_max":747,"o":"m 447 -8 q 247 40 335 -8 q 108 174 158 89 q 58 368 58 260 q 108 562 58 476 q 247 695 158 647 q 447 743 335 743 q 626 703 547 743 q 747 586 704 663 l 646 521 q 560 600 611 574 q 446 626 508 626 q 316 594 374 626 q 226 503 258 563 q 193 368 193 444 q 226 231 193 290 q 316 140 258 172 q 446 108 374 108 q 560 135 508 108 q 646 214 611 161 l 747 150 q 626 33 704 74 q 447 -8 547 -8 m 669 1024 l 485 843 l 357 843 l 172 1024 l 293 1024 l 421 918 l 549 1024 l 669 1024 z "},"ç":{"ha":793,"x_min":58,"x_max":747,"o":"m 447 -8 q 247 40 335 -8 q 108 174 158 89 q 58 368 58 260 q 108 562 58 476 q 247 695 158 647 q 447 743 335 743 q 626 703 547 743 q 747 586 704 663 l 646 521 q 560 600 611 574 q 446 626 508 626 q 316 594 374 626 q 226 503 258 563 q 193 368 193 444 q 226 231 193 290 q 316 140 258 172 q 446 108 374 108 q 560 135 508 108 q 646 214 611 161 l 747 150 q 626 33 704 74 q 447 -8 547 -8 m 382 -311 q 258 -281 310 -311 l 288 -212 q 382 -236 329 -236 q 460 -181 460 -236 q 440 -141 460 -156 q 381 -126 421 -126 l 343 -126 l 378 10 l 454 10 l 433 -69 q 523 -106 492 -75 q 554 -185 554 -137 q 507 -277 554 -243 q 382 -311 460 -311 z "},"ḉ":{"ha":793,"x_min":58,"x_max":747,"o":"m 447 -8 q 247 40 335 -8 q 108 174 158 89 q 58 368 58 260 q 108 562 58 476 q 247 695 158 647 q 447 743 335 743 q 626 703 547 743 q 747 586 704 663 l 646 521 q 560 600 611 574 q 446 626 508 626 q 316 594 374 626 q 226 503 258 563 q 193 368 193 444 q 226 231 193 290 q 316 140 258 172 q 446 108 374 108 q 560 135 508 108 q 646 214 611 161 l 747 150 q 626 33 704 74 q 447 -8 547 -8 m 382 -311 q 258 -281 310 -311 l 288 -212 q 382 -236 329 -236 q 460 -181 460 -236 q 440 -141 460 -156 q 381 -126 421 -126 l 343 -126 l 378 10 l 454 10 l 433 -69 q 523 -106 492 -75 q 554 -185 554 -137 q 507 -277 554 -243 q 382 -311 460 -311 m 506 1024 l 675 1024 l 442 843 l 317 843 l 506 1024 z "},"ĉ":{"ha":793,"x_min":58,"x_max":747,"o":"m 447 -8 q 247 40 335 -8 q 108 174 158 89 q 58 368 58 260 q 108 562 58 476 q 247 695 158 647 q 447 743 335 743 q 626 703 547 743 q 747 586 704 663 l 646 521 q 560 600 611 574 q 446 626 508 626 q 316 594 374 626 q 226 503 258 563 q 193 368 193 444 q 226 231 193 290 q 316 140 258 172 q 446 108 374 108 q 560 135 508 108 q 646 214 611 161 l 747 150 q 626 33 704 74 q 447 -8 547 -8 m 549 843 l 421 950 l 293 843 l 172 843 l 357 1024 l 485 1024 l 669 843 l 549 843 z "},"ċ":{"ha":793,"x_min":58,"x_max":747,"o":"m 447 -8 q 247 40 335 -8 q 108 174 158 89 q 58 368 58 260 q 108 562 58 476 q 247 695 158 647 q 447 743 335 743 q 626 703 547 743 q 747 586 704 663 l 646 521 q 560 600 611 574 q 446 626 508 626 q 316 594 374 626 q 226 503 258 563 q 193 368 193 444 q 226 231 193 290 q 316 140 258 172 q 446 108 374 108 q 560 135 508 108 q 646 214 611 161 l 747 150 q 626 33 704 74 q 447 -8 547 -8 m 421 868 q 363 892 386 868 q 339 950 339 915 q 363 1008 339 985 q 421 1032 386 1032 q 479 1008 456 1032 q 503 950 503 985 q 479 892 503 915 q 421 868 456 868 z "},"d":{"ha":947,"x_min":58,"x_max":821,"o":"m 821 1031 l 821 0 l 693 0 l 693 117 q 581 24 649 56 q 431 -8 513 -8 q 239 39 324 -8 q 106 172 154 86 q 58 368 58 257 q 106 564 58 479 q 239 696 154 649 q 431 743 324 743 q 576 713 510 743 q 688 625 643 683 l 688 1031 l 821 1031 m 442 108 q 568 141 511 108 q 657 233 625 174 q 689 368 689 292 q 657 503 689 444 q 568 594 625 563 q 442 626 511 626 q 315 594 371 626 q 226 503 258 563 q 193 368 193 444 q 226 233 193 292 q 315 141 258 174 q 442 108 371 108 z "},"ð":{"ha":889,"x_min":58,"x_max":831,"o":"m 707 865 q 831 479 831 726 q 781 219 831 329 q 637 49 732 108 q 408 -11 542 -11 q 230 27 310 -11 q 104 136 150 65 q 58 300 58 207 q 104 463 58 393 q 231 572 150 533 q 413 610 311 610 q 580 572 507 610 q 694 461 653 533 q 696 508 696 478 q 585 815 696 715 l 214 667 l 178 754 l 479 876 q 349 896 418 896 q 147 864 240 896 l 125 978 q 349 1008 226 1008 q 625 935 511 1008 l 749 985 l 785 896 l 707 865 m 418 101 q 545 129 490 101 q 628 202 600 157 q 657 300 657 247 q 627 401 657 356 q 545 472 597 446 q 426 497 493 497 q 256 443 318 497 q 193 300 193 389 q 256 156 193 211 q 418 101 318 101 z "},"ď":{"ha":947,"x_min":58,"x_max":1054,"o":"m 821 1031 l 821 0 l 693 0 l 693 117 q 581 24 649 56 q 431 -8 513 -8 q 239 39 324 -8 q 106 172 154 86 q 58 368 58 257 q 106 564 58 479 q 239 696 154 649 q 431 743 324 743 q 576 713 510 743 q 688 625 643 683 l 688 1031 l 821 1031 m 442 108 q 568 141 511 108 q 657 233 625 174 q 689 368 689 292 q 657 503 689 444 q 568 594 625 563 q 442 626 511 626 q 315 594 371 626 q 226 503 258 563 q 193 368 193 444 q 226 233 193 292 q 315 141 258 174 q 442 108 371 108 m 944 1076 l 1054 1076 l 1038 808 l 944 808 l 944 1076 z "},"đ":{"ha":947,"x_min":58,"x_max":947,"o":"m 821 1031 l 821 0 l 693 0 l 693 117 q 581 24 649 56 q 431 -8 513 -8 q 239 39 324 -8 q 106 172 154 86 q 58 368 58 257 q 106 564 58 479 q 239 696 154 649 q 431 743 324 743 q 576 713 510 743 q 688 625 643 683 l 688 1031 l 821 1031 m 442 108 q 568 141 511 108 q 657 233 625 174 q 689 368 689 292 q 657 503 689 444 q 568 594 625 563 q 442 626 511 626 q 315 594 371 626 q 226 503 258 563 q 193 368 193 444 q 226 233 193 292 q 315 141 258 174 q 442 108 371 108 m 397 928 l 947 928 l 947 833 l 397 833 l 397 928 z "},"ḍ":{"ha":947,"x_min":58,"x_max":821,"o":"m 821 1031 l 821 0 l 693 0 l 693 117 q 581 24 649 56 q 431 -8 513 -8 q 239 39 324 -8 q 106 172 154 86 q 58 368 58 257 q 106 564 58 479 q 239 696 154 649 q 431 743 324 743 q 576 713 510 743 q 688 625 643 683 l 688 1031 l 821 1031 m 442 108 q 568 141 511 108 q 657 233 625 174 q 689 368 689 292 q 657 503 689 444 q 568 594 625 563 q 442 626 511 626 q 315 594 371 626 q 226 503 258 563 q 193 368 193 444 q 226 233 193 292 q 315 141 258 174 q 442 108 371 108 m 482 -272 q 432 -253 453 -272 q 411 -203 411 -233 q 432 -151 411 -172 q 482 -131 453 -131 q 532 -151 511 -131 q 553 -203 553 -172 q 532 -253 553 -233 q 482 -272 511 -272 z "},"ḏ":{"ha":947,"x_min":58,"x_max":821,"o":"m 821 1031 l 821 0 l 693 0 l 693 117 q 581 24 649 56 q 431 -8 513 -8 q 239 39 324 -8 q 106 172 154 86 q 58 368 58 257 q 106 564 58 479 q 239 696 154 649 q 431 743 324 743 q 576 713 510 743 q 688 625 643 683 l 688 1031 l 821 1031 m 442 108 q 568 141 511 108 q 657 233 625 174 q 689 368 689 292 q 657 503 689 444 q 568 594 625 563 q 442 626 511 626 q 315 594 371 626 q 226 503 258 563 q 193 368 193 444 q 226 233 193 292 q 315 141 258 174 q 442 108 371 108 m 256 -157 l 708 -157 l 708 -242 l 256 -242 l 256 -157 z "},"ǆ":{"ha":1682,"x_min":58,"x_max":1615,"o":"m 821 1031 l 821 0 l 693 0 l 693 117 q 581 24 649 56 q 431 -8 513 -8 q 239 39 324 -8 q 106 172 154 86 q 58 368 58 257 q 106 564 58 479 q 239 696 154 649 q 431 743 324 743 q 576 713 510 743 q 688 625 643 683 l 688 1031 l 821 1031 m 442 108 q 568 141 511 108 q 657 233 625 174 q 689 368 689 292 q 657 503 689 444 q 568 594 625 563 q 442 626 511 626 q 315 594 371 626 q 226 503 258 563 q 193 368 193 444 q 226 233 193 292 q 315 141 258 174 q 442 108 371 108 m 1615 110 l 1615 0 l 999 0 l 999 86 l 1433 626 l 1007 626 l 1007 736 l 1604 736 l 1604 649 l 1169 110 l 1615 110 m 1556 1024 l 1371 843 l 1243 843 l 1058 1024 l 1179 1024 l 1307 918 l 1435 1024 l 1556 1024 z "},"e":{"ha":850,"x_min":58,"x_max":792,"o":"m 792 364 q 789 324 792 349 l 192 324 q 277 167 204 226 q 458 108 350 108 q 671 197 590 108 l 744 111 q 620 22 694 53 q 454 -8 546 -8 q 247 40 338 -8 q 108 174 157 88 q 58 368 58 260 q 106 561 58 475 q 238 695 154 647 q 428 743 322 743 q 616 695 533 743 q 745 561 699 647 q 792 364 792 475 m 428 631 q 267 572 332 631 q 192 419 203 514 l 664 419 q 588 572 653 513 q 428 631 524 631 z "},"é":{"ha":850,"x_min":58,"x_max":792,"o":"m 792 364 q 789 324 792 349 l 192 324 q 277 167 204 226 q 458 108 350 108 q 671 197 590 108 l 744 111 q 620 22 694 53 q 454 -8 546 -8 q 247 40 338 -8 q 108 174 157 88 q 58 368 58 260 q 106 561 58 475 q 238 695 154 647 q 428 743 322 743 q 616 695 533 743 q 745 561 699 647 q 792 364 792 475 m 428 631 q 267 572 332 631 q 192 419 203 514 l 664 419 q 588 572 653 513 q 428 631 524 631 m 511 1024 l 681 1024 l 447 843 l 322 843 l 511 1024 z "},"ĕ":{"ha":850,"x_min":58,"x_max":792,"o":"m 792 364 q 789 324 792 349 l 192 324 q 277 167 204 226 q 458 108 350 108 q 671 197 590 108 l 744 111 q 620 22 694 53 q 454 -8 546 -8 q 247 40 338 -8 q 108 174 157 88 q 58 368 58 260 q 106 561 58 475 q 238 695 154 647 q 428 743 322 743 q 616 695 533 743 q 745 561 699 647 q 792 364 792 475 m 428 631 q 267 572 332 631 q 192 419 203 514 l 664 419 q 588 572 653 513 q 428 631 524 631 m 426 835 q 267 886 331 835 q 201 1024 204 938 l 292 1024 q 331 943 293 974 q 426 913 369 913 q 522 943 483 913 q 561 1024 560 974 l 651 1024 q 585 886 649 938 q 426 835 522 835 z "},"ě":{"ha":850,"x_min":58,"x_max":792,"o":"m 792 364 q 789 324 792 349 l 192 324 q 277 167 204 226 q 458 108 350 108 q 671 197 590 108 l 744 111 q 620 22 694 53 q 454 -8 546 -8 q 247 40 338 -8 q 108 174 157 88 q 58 368 58 260 q 106 561 58 475 q 238 695 154 647 q 428 743 322 743 q 616 695 533 743 q 745 561 699 647 q 792 364 792 475 m 428 631 q 267 572 332 631 q 192 419 203 514 l 664 419 q 588 572 653 513 q 428 631 524 631 m 675 1024 l 490 843 l 363 843 l 178 1024 l 299 1024 l 426 918 l 554 1024 l 675 1024 z "},"ḝ":{"ha":850,"x_min":58,"x_max":792,"o":"m 792 364 q 789 324 792 349 l 192 324 q 277 167 204 226 q 458 108 350 108 q 671 197 590 108 l 744 111 q 620 22 694 53 q 454 -8 546 -8 q 247 40 338 -8 q 108 174 157 88 q 58 368 58 260 q 106 561 58 475 q 238 695 154 647 q 428 743 322 743 q 616 695 533 743 q 745 561 699 647 q 792 364 792 475 m 428 631 q 267 572 332 631 q 192 419 203 514 l 664 419 q 588 572 653 513 q 428 631 524 631 m 392 -311 q 268 -281 319 -311 l 297 -212 q 392 -236 339 -236 q 469 -181 469 -236 q 450 -141 469 -156 q 390 -126 431 -126 l 353 -126 l 388 10 l 464 10 l 443 -69 q 533 -106 501 -75 q 564 -185 564 -137 q 517 -277 564 -243 q 392 -311 469 -311 m 426 835 q 267 886 331 835 q 201 1024 204 938 l 292 1024 q 331 943 293 974 q 426 913 369 913 q 522 943 483 913 q 561 1024 560 974 l 651 1024 q 585 886 649 938 q 426 835 522 835 z "},"ê":{"ha":850,"x_min":58,"x_max":792,"o":"m 792 364 q 789 324 792 349 l 192 324 q 277 167 204 226 q 458 108 350 108 q 671 197 590 108 l 744 111 q 620 22 694 53 q 454 -8 546 -8 q 247 40 338 -8 q 108 174 157 88 q 58 368 58 260 q 106 561 58 475 q 238 695 154 647 q 428 743 322 743 q 616 695 533 743 q 745 561 699 647 q 792 364 792 475 m 428 631 q 267 572 332 631 q 192 419 203 514 l 664 419 q 588 572 653 513 q 428 631 524 631 m 554 843 l 426 950 l 299 843 l 178 843 l 363 1024 l 490 1024 l 675 843 l 554 843 z "},"ế":{"ha":850,"x_min":58,"x_max":879,"o":"m 792 364 q 789 324 792 349 l 192 324 q 277 167 204 226 q 458 108 350 108 q 671 197 590 108 l 744 111 q 620 22 694 53 q 454 -8 546 -8 q 247 40 338 -8 q 108 174 157 88 q 58 368 58 260 q 106 561 58 475 q 238 695 154 647 q 428 743 322 743 q 616 695 533 743 q 745 561 699 647 q 792 364 792 475 m 428 631 q 267 572 332 631 q 192 419 203 514 l 664 419 q 588 572 653 513 q 428 631 524 631 m 553 843 l 426 921 l 300 843 l 178 843 l 364 982 l 489 982 l 675 843 l 553 843 m 728 1122 l 879 1122 l 674 965 l 564 965 l 728 1122 z "},"ệ":{"ha":850,"x_min":58,"x_max":792,"o":"m 792 364 q 789 324 792 349 l 192 324 q 277 167 204 226 q 458 108 350 108 q 671 197 590 108 l 744 111 q 620 22 694 53 q 454 -8 546 -8 q 247 40 338 -8 q 108 174 157 88 q 58 368 58 260 q 106 561 58 475 q 238 695 154 647 q 428 743 322 743 q 616 695 533 743 q 745 561 699 647 q 792 364 792 475 m 428 631 q 267 572 332 631 q 192 419 203 514 l 664 419 q 588 572 653 513 q 428 631 524 631 m 426 -272 q 376 -253 397 -272 q 356 -203 356 -233 q 376 -151 356 -172 q 426 -131 397 -131 q 476 -151 456 -131 q 497 -203 497 -172 q 476 -253 497 -233 q 426 -272 456 -272 m 554 843 l 426 950 l 299 843 l 178 843 l 363 1024 l 490 1024 l 675 843 l 554 843 z "},"ề":{"ha":850,"x_min":58,"x_max":792,"o":"m 792 364 q 789 324 792 349 l 192 324 q 277 167 204 226 q 458 108 350 108 q 671 197 590 108 l 744 111 q 620 22 694 53 q 454 -8 546 -8 q 247 40 338 -8 q 108 174 157 88 q 58 368 58 260 q 106 561 58 475 q 238 695 154 647 q 428 743 322 743 q 616 695 533 743 q 745 561 699 647 q 792 364 792 475 m 428 631 q 267 572 332 631 q 192 419 203 514 l 664 419 q 588 572 653 513 q 428 631 524 631 m 553 843 l 426 921 l 300 843 l 178 843 l 364 982 l 489 982 l 675 843 l 553 843 m 442 1122 l 593 1122 l 756 965 l 647 965 l 442 1122 z "},"ể":{"ha":850,"x_min":58,"x_max":792,"o":"m 792 364 q 789 324 792 349 l 192 324 q 277 167 204 226 q 458 108 350 108 q 671 197 590 108 l 744 111 q 620 22 694 53 q 454 -8 546 -8 q 247 40 338 -8 q 108 174 157 88 q 58 368 58 260 q 106 561 58 475 q 238 695 154 647 q 428 743 322 743 q 616 695 533 743 q 745 561 699 647 q 792 364 792 475 m 428 631 q 267 572 332 631 q 192 419 203 514 l 664 419 q 588 572 653 513 q 428 631 524 631 m 553 843 l 426 921 l 300 843 l 178 843 l 364 982 l 489 982 l 675 843 l 553 843 m 593 981 q 635 1011 621 993 q 649 1047 649 1029 q 634 1078 649 1067 q 596 1090 619 1090 q 536 1074 565 1090 l 511 1125 q 607 1151 553 1151 q 686 1124 657 1151 q 715 1054 715 1097 q 692 987 715 1017 q 629 940 668 957 l 593 981 z "},"ễ":{"ha":850,"x_min":58,"x_max":792,"o":"m 792 364 q 789 324 792 349 l 192 324 q 277 167 204 226 q 458 108 350 108 q 671 197 590 108 l 744 111 q 620 22 694 53 q 454 -8 546 -8 q 247 40 338 -8 q 108 174 157 88 q 58 368 58 260 q 106 561 58 475 q 238 695 154 647 q 428 743 322 743 q 616 695 533 743 q 745 561 699 647 q 792 364 792 475 m 428 631 q 267 572 332 631 q 192 419 203 514 l 664 419 q 588 572 653 513 q 428 631 524 631 m 553 843 l 426 921 l 300 843 l 178 843 l 364 982 l 489 982 l 675 843 l 553 843 m 524 1029 q 463 1040 489 1029 q 404 1074 438 1051 q 336 1104 361 1104 q 272 1035 275 1104 l 197 1035 q 234 1140 199 1101 q 331 1178 269 1178 q 388 1167 363 1178 q 447 1133 414 1156 q 486 1110 471 1118 q 518 1103 501 1103 q 565 1121 549 1103 q 582 1171 581 1139 l 656 1171 q 619 1067 654 1106 q 524 1029 583 1029 z "},"ȅ":{"ha":850,"x_min":58,"x_max":792,"o":"m 792 364 q 789 324 792 349 l 192 324 q 277 167 204 226 q 458 108 350 108 q 671 197 590 108 l 744 111 q 620 22 694 53 q 454 -8 546 -8 q 247 40 338 -8 q 108 174 157 88 q 58 368 58 260 q 106 561 58 475 q 238 695 154 647 q 428 743 322 743 q 616 695 533 743 q 745 561 699 647 q 792 364 792 475 m 428 631 q 267 572 332 631 q 192 419 203 514 l 664 419 q 588 572 653 513 q 428 631 524 631 m 97 1024 l 238 1024 l 361 843 l 249 843 l 97 1024 m 338 1024 l 479 1024 l 604 843 l 492 843 l 338 1024 z "},"ë":{"ha":850,"x_min":58,"x_max":792,"o":"m 792 364 q 789 324 792 349 l 192 324 q 277 167 204 226 q 458 108 350 108 q 671 197 590 108 l 744 111 q 620 22 694 53 q 454 -8 546 -8 q 247 40 338 -8 q 108 174 157 88 q 58 368 58 260 q 106 561 58 475 q 238 695 154 647 q 428 743 322 743 q 616 695 533 743 q 745 561 699 647 q 792 364 792 475 m 428 631 q 267 572 332 631 q 192 419 203 514 l 664 419 q 588 572 653 513 q 428 631 524 631 m 297 867 q 247 887 268 867 q 226 938 226 907 q 247 989 226 968 q 297 1010 268 1010 q 347 989 326 1010 q 368 938 368 968 q 347 887 368 907 q 297 867 326 867 m 556 867 q 506 887 526 867 q 485 938 485 907 q 506 989 485 968 q 556 1010 526 1010 q 606 989 585 1010 q 626 938 626 968 q 606 887 626 907 q 556 867 585 867 z "},"ė":{"ha":850,"x_min":58,"x_max":792,"o":"m 792 364 q 789 324 792 349 l 192 324 q 277 167 204 226 q 458 108 350 108 q 671 197 590 108 l 744 111 q 620 22 694 53 q 454 -8 546 -8 q 247 40 338 -8 q 108 174 157 88 q 58 368 58 260 q 106 561 58 475 q 238 695 154 647 q 428 743 322 743 q 616 695 533 743 q 745 561 699 647 q 792 364 792 475 m 428 631 q 267 572 332 631 q 192 419 203 514 l 664 419 q 588 572 653 513 q 428 631 524 631 m 426 868 q 368 892 392 868 q 344 950 344 915 q 368 1008 344 985 q 426 1032 392 1032 q 485 1008 461 1032 q 508 950 508 985 q 485 892 508 915 q 426 868 461 868 z "},"ẹ":{"ha":850,"x_min":58,"x_max":792,"o":"m 792 364 q 789 324 792 349 l 192 324 q 277 167 204 226 q 458 108 350 108 q 671 197 590 108 l 744 111 q 620 22 694 53 q 454 -8 546 -8 q 247 40 338 -8 q 108 174 157 88 q 58 368 58 260 q 106 561 58 475 q 238 695 154 647 q 428 743 322 743 q 616 695 533 743 q 745 561 699 647 q 792 364 792 475 m 428 631 q 267 572 332 631 q 192 419 203 514 l 664 419 q 588 572 653 513 q 428 631 524 631 m 426 -272 q 376 -253 397 -272 q 356 -203 356 -233 q 376 -151 356 -172 q 426 -131 397 -131 q 476 -151 456 -131 q 497 -203 497 -172 q 476 -253 497 -233 q 426 -272 456 -272 z "},"è":{"ha":850,"x_min":58,"x_max":792,"o":"m 792 364 q 789 324 792 349 l 192 324 q 277 167 204 226 q 458 108 350 108 q 671 197 590 108 l 744 111 q 620 22 694 53 q 454 -8 546 -8 q 247 40 338 -8 q 108 174 157 88 q 58 368 58 260 q 106 561 58 475 q 238 695 154 647 q 428 743 322 743 q 616 695 533 743 q 745 561 699 647 q 792 364 792 475 m 428 631 q 267 572 332 631 q 192 419 203 514 l 664 419 q 588 572 653 513 q 428 631 524 631 m 172 1024 l 342 1024 l 531 843 l 406 843 l 172 1024 z "},"ẻ":{"ha":850,"x_min":58,"x_max":792,"o":"m 792 364 q 789 324 792 349 l 192 324 q 277 167 204 226 q 458 108 350 108 q 671 197 590 108 l 744 111 q 620 22 694 53 q 454 -8 546 -8 q 247 40 338 -8 q 108 174 157 88 q 58 368 58 260 q 106 561 58 475 q 238 695 154 647 q 428 743 322 743 q 616 695 533 743 q 745 561 699 647 q 792 364 792 475 m 428 631 q 267 572 332 631 q 192 419 203 514 l 664 419 q 588 572 653 513 q 428 631 524 631 m 407 885 q 466 926 447 903 q 485 978 485 949 q 465 1024 485 1006 q 413 1043 444 1043 q 329 1017 369 1043 l 299 1079 q 357 1108 324 1099 q 425 1118 390 1118 q 527 1083 488 1118 q 567 989 567 1047 q 453 831 567 883 l 407 885 z "},"ȇ":{"ha":850,"x_min":58,"x_max":792,"o":"m 792 364 q 789 324 792 349 l 192 324 q 277 167 204 226 q 458 108 350 108 q 671 197 590 108 l 744 111 q 620 22 694 53 q 454 -8 546 -8 q 247 40 338 -8 q 108 174 157 88 q 58 368 58 260 q 106 561 58 475 q 238 695 154 647 q 428 743 322 743 q 616 695 533 743 q 745 561 699 647 q 792 364 792 475 m 428 631 q 267 572 332 631 q 192 419 203 514 l 664 419 q 588 572 653 513 q 428 631 524 631 m 201 843 q 267 981 204 929 q 426 1032 331 1032 q 585 981 522 1032 q 651 843 649 929 l 561 843 q 522 924 560 894 q 426 954 483 954 q 331 924 369 954 q 292 843 293 894 l 201 843 z "},"ē":{"ha":850,"x_min":58,"x_max":792,"o":"m 792 364 q 789 324 792 349 l 192 324 q 277 167 204 226 q 458 108 350 108 q 671 197 590 108 l 744 111 q 620 22 694 53 q 454 -8 546 -8 q 247 40 338 -8 q 108 174 157 88 q 58 368 58 260 q 106 561 58 475 q 238 695 154 647 q 428 743 322 743 q 616 695 533 743 q 745 561 699 647 q 792 364 792 475 m 428 631 q 267 572 332 631 q 192 419 203 514 l 664 419 q 588 572 653 513 q 428 631 524 631 m 200 975 l 653 975 l 653 892 l 200 892 l 200 975 z "},"ḗ":{"ha":850,"x_min":58,"x_max":792,"o":"m 792 364 q 789 324 792 349 l 192 324 q 277 167 204 226 q 458 108 350 108 q 671 197 590 108 l 744 111 q 620 22 694 53 q 454 -8 546 -8 q 247 40 338 -8 q 108 174 157 88 q 58 368 58 260 q 106 561 58 475 q 238 695 154 647 q 428 743 322 743 q 616 695 533 743 q 745 561 699 647 q 792 364 792 475 m 428 631 q 267 572 332 631 q 192 419 203 514 l 664 419 q 588 572 653 513 q 428 631 524 631 m 200 953 l 653 953 l 653 874 l 200 874 l 200 953 m 494 1197 l 646 1197 l 440 1040 l 331 1040 l 494 1197 z "},"ḕ":{"ha":850,"x_min":58,"x_max":792,"o":"m 792 364 q 789 324 792 349 l 192 324 q 277 167 204 226 q 458 108 350 108 q 671 197 590 108 l 744 111 q 620 22 694 53 q 454 -8 546 -8 q 247 40 338 -8 q 108 174 157 88 q 58 368 58 260 q 106 561 58 475 q 238 695 154 647 q 428 743 322 743 q 616 695 533 743 q 745 561 699 647 q 792 364 792 475 m 428 631 q 267 572 332 631 q 192 419 203 514 l 664 419 q 588 572 653 513 q 428 631 524 631 m 200 953 l 653 953 l 653 874 l 200 874 l 200 953 m 208 1197 l 360 1197 l 522 1040 l 414 1040 l 208 1197 z "},"ę":{"ha":850,"x_min":58,"x_max":792,"o":"m 792 364 q 789 324 792 349 l 192 324 q 277 167 204 226 q 458 108 350 108 q 671 197 590 108 l 744 111 q 715 82 732 97 q 690 61 697 67 q 568 -63 603 -12 q 533 -157 533 -114 q 557 -214 533 -194 q 619 -233 581 -233 q 665 -227 642 -233 q 704 -210 688 -221 l 731 -278 q 606 -311 675 -311 q 484 -272 529 -311 q 439 -165 439 -232 q 507 -6 439 -79 q 454 -8 474 -8 q 247 40 338 -8 q 108 174 157 88 q 58 368 58 260 q 106 561 58 475 q 238 695 154 647 q 428 743 322 743 q 616 695 533 743 q 745 561 699 647 q 792 364 792 475 m 428 631 q 267 572 332 631 q 192 419 203 514 l 664 419 q 588 572 653 513 q 428 631 524 631 z "},"ẽ":{"ha":850,"x_min":58,"x_max":792,"o":"m 792 364 q 789 324 792 349 l 192 324 q 277 167 204 226 q 458 108 350 108 q 671 197 590 108 l 744 111 q 620 22 694 53 q 454 -8 546 -8 q 247 40 338 -8 q 108 174 157 88 q 58 368 58 260 q 106 561 58 475 q 238 695 154 647 q 428 743 322 743 q 616 695 533 743 q 745 561 699 647 q 792 364 792 475 m 428 631 q 267 572 332 631 q 192 419 203 514 l 664 419 q 588 572 653 513 q 428 631 524 631 m 524 847 q 466 861 490 847 q 406 903 442 875 q 369 931 385 922 q 339 940 354 940 q 289 917 308 940 q 268 854 269 894 l 193 854 q 233 978 196 932 q 329 1024 269 1024 q 388 1009 363 1024 q 447 967 414 994 q 485 938 471 947 q 514 929 499 929 q 564 951 544 929 q 585 1013 583 974 l 660 1013 q 620 892 657 938 q 524 847 583 847 z "},"ə":{"ha":850,"x_min":58,"x_max":792,"o":"m 58 372 q 61 413 58 388 l 658 413 q 573 569 646 510 q 392 628 500 628 q 179 539 260 628 l 106 625 q 230 714 156 683 q 396 744 304 744 q 603 697 513 744 q 742 563 693 649 q 792 368 792 476 q 744 175 792 261 q 612 41 696 89 q 422 -7 528 -7 q 234 41 317 -7 q 105 175 151 89 q 58 372 58 261 m 422 106 q 583 164 518 106 q 658 317 647 222 l 186 317 q 262 165 197 224 q 422 106 326 106 z "},"ʒ":{"ha":732,"x_min":-28,"x_max":686,"o":"m 383 313 q 609 225 532 301 q 686 26 686 149 q 645 -129 686 -60 q 522 -239 604 -199 q 322 -279 440 -279 q 123 -246 217 -279 q -28 -157 29 -212 l 24 -46 q 151 -126 72 -96 q 317 -156 229 -156 q 488 -108 428 -156 q 549 26 549 -60 q 490 158 549 111 q 311 206 431 206 l 232 206 l 232 300 l 485 618 l 7 618 l 7 736 l 644 736 l 644 640 l 383 313 z "},"ǯ":{"ha":732,"x_min":-28,"x_max":686,"o":"m 383 313 q 609 225 532 301 q 686 26 686 149 q 645 -129 686 -60 q 522 -239 604 -199 q 322 -279 440 -279 q 123 -246 217 -279 q -28 -157 29 -212 l 24 -46 q 151 -126 72 -96 q 317 -156 229 -156 q 488 -108 428 -156 q 549 26 549 -60 q 490 158 549 111 q 311 206 431 206 l 232 206 l 232 300 l 485 618 l 7 618 l 7 736 l 644 736 l 644 640 l 383 313 m 563 1024 l 378 843 l 250 843 l 65 1024 l 186 1024 l 314 918 l 442 1024 l 563 1024 z "},"f":{"ha":490,"x_min":21,"x_max":539,"o":"m 396 929 q 276 800 276 929 l 276 736 l 490 736 l 490 626 l 279 626 l 279 0 l 146 0 l 146 626 l 21 626 l 21 736 l 146 736 l 146 801 q 210 975 146 911 q 389 1039 274 1039 q 472 1028 433 1039 q 539 996 511 1017 l 499 894 q 396 929 453 929 z "},"g":{"ha":958,"x_min":58,"x_max":831,"o":"m 831 736 l 831 100 q 735 -185 831 -93 q 449 -278 639 -278 q 250 -249 344 -278 q 97 -168 156 -221 l 161 -65 q 288 -135 213 -110 q 444 -161 364 -161 q 635 -100 574 -161 q 697 86 697 -39 l 697 144 q 581 59 650 88 q 432 31 513 31 q 241 76 326 31 q 107 202 156 121 q 58 388 58 283 q 107 573 58 492 q 241 699 156 654 q 432 743 326 743 q 587 713 515 743 q 704 622 658 682 l 704 736 l 831 736 m 447 147 q 577 178 519 147 q 667 263 635 208 q 700 388 700 318 q 629 560 700 494 q 447 626 558 626 q 264 560 335 626 q 193 388 193 494 q 226 263 193 318 q 316 178 258 208 q 447 147 374 147 z "},"ğ":{"ha":958,"x_min":58,"x_max":831,"o":"m 831 736 l 831 100 q 735 -185 831 -93 q 449 -278 639 -278 q 250 -249 344 -278 q 97 -168 156 -221 l 161 -65 q 288 -135 213 -110 q 444 -161 364 -161 q 635 -100 574 -161 q 697 86 697 -39 l 697 144 q 581 59 650 88 q 432 31 513 31 q 241 76 326 31 q 107 202 156 121 q 58 388 58 283 q 107 573 58 492 q 241 699 156 654 q 432 743 326 743 q 587 713 515 743 q 704 622 658 682 l 704 736 l 831 736 m 447 147 q 577 178 519 147 q 667 263 635 208 q 700 388 700 318 q 629 560 700 494 q 447 626 558 626 q 264 560 335 626 q 193 388 193 494 q 226 263 193 318 q 316 178 258 208 q 447 147 374 147 m 457 835 q 298 886 361 835 q 232 1024 235 938 l 322 1024 q 362 943 324 974 q 457 913 400 913 q 552 943 514 913 q 592 1024 590 974 l 682 1024 q 616 886 679 938 q 457 835 553 835 z "},"ǧ":{"ha":958,"x_min":58,"x_max":831,"o":"m 831 736 l 831 100 q 735 -185 831 -93 q 449 -278 639 -278 q 250 -249 344 -278 q 97 -168 156 -221 l 161 -65 q 288 -135 213 -110 q 444 -161 364 -161 q 635 -100 574 -161 q 697 86 697 -39 l 697 144 q 581 59 650 88 q 432 31 513 31 q 241 76 326 31 q 107 202 156 121 q 58 388 58 283 q 107 573 58 492 q 241 699 156 654 q 432 743 326 743 q 587 713 515 743 q 704 622 658 682 l 704 736 l 831 736 m 447 147 q 577 178 519 147 q 667 263 635 208 q 700 388 700 318 q 629 560 700 494 q 447 626 558 626 q 264 560 335 626 q 193 388 193 494 q 226 263 193 318 q 316 178 258 208 q 447 147 374 147 m 706 1024 l 521 843 l 393 843 l 208 1024 l 329 1024 l 457 918 l 585 1024 l 706 1024 z "},"ĝ":{"ha":958,"x_min":58,"x_max":831,"o":"m 831 736 l 831 100 q 735 -185 831 -93 q 449 -278 639 -278 q 250 -249 344 -278 q 97 -168 156 -221 l 161 -65 q 288 -135 213 -110 q 444 -161 364 -161 q 635 -100 574 -161 q 697 86 697 -39 l 697 144 q 581 59 650 88 q 432 31 513 31 q 241 76 326 31 q 107 202 156 121 q 58 388 58 283 q 107 573 58 492 q 241 699 156 654 q 432 743 326 743 q 587 713 515 743 q 704 622 658 682 l 704 736 l 831 736 m 447 147 q 577 178 519 147 q 667 263 635 208 q 700 388 700 318 q 629 560 700 494 q 447 626 558 626 q 264 560 335 626 q 193 388 193 494 q 226 263 193 318 q 316 178 258 208 q 447 147 374 147 m 585 843 l 457 950 l 329 843 l 208 843 l 393 1024 l 521 1024 l 706 843 l 585 843 z "},"ģ":{"ha":958,"x_min":58,"x_max":831,"o":"m 831 736 l 831 100 q 735 -185 831 -93 q 449 -278 639 -278 q 250 -249 344 -278 q 97 -168 156 -221 l 161 -65 q 288 -135 213 -110 q 444 -161 364 -161 q 635 -100 574 -161 q 697 86 697 -39 l 697 144 q 581 59 650 88 q 432 31 513 31 q 241 76 326 31 q 107 202 156 121 q 58 388 58 283 q 107 573 58 492 q 241 699 156 654 q 432 743 326 743 q 587 713 515 743 q 704 622 658 682 l 704 736 l 831 736 m 447 147 q 577 178 519 147 q 667 263 635 208 q 700 388 700 318 q 629 560 700 494 q 447 626 558 626 q 264 560 335 626 q 193 388 193 494 q 226 263 193 318 q 316 178 258 208 q 447 147 374 147 m 488 957 q 522 935 510 950 q 535 899 535 921 q 514 852 535 869 q 457 835 493 835 q 400 853 421 835 q 379 899 379 871 q 400 968 379 926 l 451 1099 l 528 1099 l 488 957 z "},"ġ":{"ha":958,"x_min":58,"x_max":831,"o":"m 831 736 l 831 100 q 735 -185 831 -93 q 449 -278 639 -278 q 250 -249 344 -278 q 97 -168 156 -221 l 161 -65 q 288 -135 213 -110 q 444 -161 364 -161 q 635 -100 574 -161 q 697 86 697 -39 l 697 144 q 581 59 650 88 q 432 31 513 31 q 241 76 326 31 q 107 202 156 121 q 58 388 58 283 q 107 573 58 492 q 241 699 156 654 q 432 743 326 743 q 587 713 515 743 q 704 622 658 682 l 704 736 l 831 736 m 447 147 q 577 178 519 147 q 667 263 635 208 q 700 388 700 318 q 629 560 700 494 q 447 626 558 626 q 264 560 335 626 q 193 388 193 494 q 226 263 193 318 q 316 178 258 208 q 447 147 374 147 m 457 868 q 399 892 422 868 q 375 950 375 915 q 399 1008 375 985 q 457 1032 422 1032 q 515 1008 492 1032 q 539 950 539 985 q 515 892 539 915 q 457 868 492 868 z "},"ḡ":{"ha":958,"x_min":58,"x_max":831,"o":"m 831 736 l 831 100 q 735 -185 831 -93 q 449 -278 639 -278 q 250 -249 344 -278 q 97 -168 156 -221 l 161 -65 q 288 -135 213 -110 q 444 -161 364 -161 q 635 -100 574 -161 q 697 86 697 -39 l 697 144 q 581 59 650 88 q 432 31 513 31 q 241 76 326 31 q 107 202 156 121 q 58 388 58 283 q 107 573 58 492 q 241 699 156 654 q 432 743 326 743 q 587 713 515 743 q 704 622 658 682 l 704 736 l 831 736 m 447 147 q 577 178 519 147 q 667 263 635 208 q 700 388 700 318 q 629 560 700 494 q 447 626 558 626 q 264 560 335 626 q 193 388 193 494 q 226 263 193 318 q 316 178 258 208 q 447 147 374 147 m 231 975 l 683 975 l 683 892 l 231 892 l 231 975 z "},"ǥ":{"ha":969,"x_min":58,"x_max":919,"o":"m 919 -81 l 801 -81 q 449 -278 726 -278 q 250 -249 344 -278 q 97 -168 156 -221 l 161 -65 q 288 -135 213 -110 q 444 -161 364 -161 q 653 -81 593 -161 l 394 -81 l 394 10 l 690 11 q 697 86 697 49 l 697 169 q 581 88 650 115 q 432 60 513 60 q 241 103 326 60 q 107 224 156 146 q 58 403 58 303 q 107 580 58 503 q 241 700 156 657 q 432 743 326 743 q 588 714 517 743 q 704 628 658 685 l 704 736 l 831 736 l 831 100 q 825 11 831 49 l 919 11 l 919 -81 m 447 172 q 629 236 558 172 q 700 403 700 300 q 667 522 700 469 q 578 603 635 574 q 447 632 521 632 q 316 603 374 632 q 226 522 258 574 q 193 403 193 469 q 264 236 193 300 q 447 172 335 172 z "},"h":{"ha":946,"x_min":126,"x_max":825,"o":"m 519 743 q 742 662 660 743 q 825 424 825 581 l 825 0 l 692 0 l 692 408 q 640 569 692 515 q 493 624 589 624 q 322 560 385 624 q 260 379 260 497 l 260 0 l 126 0 l 126 1031 l 260 1031 l 260 632 q 369 714 301 685 q 519 743 436 743 z "},"ħ":{"ha":946,"x_min":0,"x_max":825,"o":"m 519 743 q 742 662 660 743 q 825 424 825 581 l 825 0 l 692 0 l 692 408 q 640 569 692 515 q 493 624 589 624 q 322 560 385 624 q 260 379 260 497 l 260 0 l 126 0 l 126 1031 l 260 1031 l 260 632 q 369 714 301 685 q 519 743 436 743 m 0 928 l 550 928 l 550 833 l 0 833 l 0 928 z "},"ḫ":{"ha":946,"x_min":126,"x_max":825,"o":"m 519 743 q 742 662 660 743 q 825 424 825 581 l 825 0 l 692 0 l 692 408 q 640 569 692 515 q 493 624 589 624 q 322 560 385 624 q 260 379 260 497 l 260 0 l 126 0 l 126 1031 l 260 1031 l 260 632 q 369 714 301 685 q 519 743 436 743 m 476 -290 q 317 -242 381 -290 q 251 -112 254 -193 l 339 -112 q 378 -188 339 -160 q 476 -217 417 -217 q 575 -188 536 -217 q 614 -112 614 -160 l 701 -112 q 635 -242 699 -193 q 476 -290 572 -290 z "},"ȟ":{"ha":946,"x_min":-56,"x_max":825,"o":"m 519 743 q 742 662 660 743 q 825 424 825 581 l 825 0 l 692 0 l 692 408 q 640 569 692 515 q 493 624 589 624 q 322 560 385 624 q 260 379 260 497 l 260 0 l 126 0 l 126 1031 l 260 1031 l 260 632 q 369 714 301 685 q 519 743 436 743 m 442 1318 l 257 1138 l 129 1138 l -56 1318 l 65 1318 l 193 1213 l 321 1318 l 442 1318 z "},"ĥ":{"ha":946,"x_min":-56,"x_max":825,"o":"m 519 743 q 742 662 660 743 q 825 424 825 581 l 825 0 l 692 0 l 692 408 q 640 569 692 515 q 493 624 589 624 q 322 560 385 624 q 260 379 260 497 l 260 0 l 126 0 l 126 1031 l 260 1031 l 260 632 q 369 714 301 685 q 519 743 436 743 m 321 1110 l 193 1217 l 65 1110 l -56 1110 l 129 1290 l 257 1290 l 442 1110 l 321 1110 z "},"ḥ":{"ha":946,"x_min":126,"x_max":825,"o":"m 519 743 q 742 662 660 743 q 825 424 825 581 l 825 0 l 692 0 l 692 408 q 640 569 692 515 q 493 624 589 624 q 322 560 385 624 q 260 379 260 497 l 260 0 l 126 0 l 126 1031 l 260 1031 l 260 632 q 369 714 301 685 q 519 743 436 743 m 476 -272 q 426 -253 447 -272 q 406 -203 406 -233 q 426 -151 406 -172 q 476 -131 447 -131 q 526 -151 506 -131 q 547 -203 547 -172 q 526 -253 547 -233 q 476 -272 506 -272 z "},"i":{"ha":388,"x_min":103,"x_max":283,"o":"m 126 736 l 260 736 l 260 0 l 126 0 l 126 736 m 193 878 q 128 903 154 878 q 103 964 103 928 q 128 1026 103 1000 q 193 1051 154 1051 q 258 1027 232 1051 q 283 967 283 1003 q 258 903 283 929 q 193 878 232 878 z "},"ı":{"ha":388,"x_min":126,"x_max":260,"o":"m 126 736 l 260 736 l 260 0 l 126 0 l 126 736 z "},"í":{"ha":388,"x_min":89,"x_max":447,"o":"m 126 736 l 260 736 l 260 0 l 126 0 l 126 736 m 278 1024 l 447 1024 l 214 843 l 89 843 l 278 1024 z "},"ĭ":{"ha":388,"x_min":3,"x_max":383,"o":"m 126 736 l 260 736 l 260 0 l 126 0 l 126 736 m 193 835 q 56 886 110 835 q 3 1024 3 938 l 89 1024 q 117 942 89 972 q 193 913 146 913 q 269 942 240 913 q 297 1024 297 972 l 383 1024 q 330 886 383 938 q 193 835 276 835 z "},"î":{"ha":388,"x_min":-21,"x_max":407,"o":"m 126 736 l 260 736 l 260 0 l 126 0 l 126 736 m 293 843 l 193 946 l 93 843 l -21 843 l 131 1024 l 256 1024 l 407 843 l 293 843 z "},"ȉ":{"ha":388,"x_min":-136,"x_max":371,"o":"m 126 736 l 260 736 l 260 0 l 126 0 l 126 736 m -136 1024 l 4 1024 l 128 843 l 15 843 l -136 1024 m 104 1024 l 246 1024 l 371 843 l 258 843 l 104 1024 z "},"ï":{"ha":388,"x_min":25,"x_max":361,"o":"m 126 736 l 260 736 l 260 0 l 126 0 l 126 736 m 94 868 q 44 888 64 868 q 25 938 25 908 q 44 988 25 968 q 94 1008 64 1008 q 143 988 124 1008 q 163 938 163 968 q 143 888 163 907 q 94 868 124 868 m 292 868 q 243 888 263 868 q 224 938 224 908 q 243 988 224 968 q 292 1008 263 1008 q 342 988 322 1008 q 361 938 361 968 q 342 888 361 907 q 292 868 322 868 z "},"ḯ":{"ha":388,"x_min":-1,"x_max":413,"o":"m 126 736 l 260 736 l 260 0 l 126 0 l 126 736 m 68 867 q 19 886 39 867 q -1 936 -1 906 q 19 985 -1 965 q 68 1004 39 1004 q 116 985 96 1004 q 136 936 136 965 q 116 887 136 907 q 68 867 96 867 m 319 867 q 272 887 292 867 q 251 936 251 907 q 272 985 251 965 q 319 1004 292 1004 q 369 985 349 1004 q 389 936 389 965 q 369 887 389 907 q 319 867 349 867 m 261 1197 l 413 1197 l 207 1040 l 97 1040 l 261 1197 z "},"ị":{"ha":388,"x_min":103,"x_max":283,"o":"m 126 736 l 260 736 l 260 0 l 126 0 l 126 736 m 193 878 q 128 903 154 878 q 103 964 103 928 q 128 1026 103 1000 q 193 1051 154 1051 q 258 1027 232 1051 q 283 967 283 1003 q 258 903 283 929 q 193 878 232 878 m 193 -272 q 143 -253 164 -272 q 122 -203 122 -233 q 143 -151 122 -172 q 193 -131 164 -131 q 243 -151 222 -131 q 264 -203 264 -172 q 243 -253 264 -233 q 193 -272 222 -272 z "},"ì":{"ha":388,"x_min":-61,"x_max":297,"o":"m 126 736 l 260 736 l 260 0 l 126 0 l 126 736 m -61 1024 l 108 1024 l 297 843 l 172 843 l -61 1024 z "},"ỉ":{"ha":388,"x_min":65,"x_max":333,"o":"m 126 736 l 260 736 l 260 0 l 126 0 l 126 736 m 174 885 q 233 926 214 903 q 251 978 251 949 q 231 1024 251 1006 q 179 1043 211 1043 q 96 1017 136 1043 l 65 1079 q 124 1108 90 1099 q 192 1118 157 1118 q 294 1083 254 1118 q 333 989 333 1047 q 219 831 333 883 l 174 885 z "},"ȋ":{"ha":388,"x_min":3,"x_max":383,"o":"m 126 736 l 260 736 l 260 0 l 126 0 l 126 736 m 3 843 q 56 981 3 929 q 193 1032 110 1032 q 330 981 276 1032 q 383 843 383 929 l 297 843 q 269 924 297 894 q 193 954 242 954 q 117 924 144 954 q 89 843 89 894 l 3 843 z "},"ĳ":{"ha":782,"x_min":103,"x_max":678,"o":"m 126 736 l 260 736 l 260 0 l 126 0 l 126 736 m 193 878 q 128 903 154 878 q 103 964 103 928 q 128 1026 103 1000 q 193 1051 154 1051 q 258 1027 232 1051 q 283 967 283 1003 q 258 903 283 929 q 193 878 232 878 m 419 -278 q 329 -267 371 -278 q 260 -233 288 -256 l 303 -131 q 411 -165 344 -165 q 492 -133 464 -165 q 521 -36 521 -100 l 521 736 l 654 736 l 654 -33 q 593 -212 654 -147 q 419 -278 532 -278 m 588 878 q 523 903 549 878 q 497 964 497 928 q 523 1026 497 1000 q 588 1051 549 1051 q 652 1027 626 1051 q 678 967 678 1003 q 652 903 678 929 q 588 878 626 878 z "},"ī":{"ha":388,"x_min":8,"x_max":378,"o":"m 126 736 l 260 736 l 260 0 l 126 0 l 126 736 m 8 975 l 378 975 l 378 892 l 8 892 l 8 975 z "},"į":{"ha":388,"x_min":83,"x_max":310,"o":"m 126 736 l 260 736 l 260 0 l 126 0 l 126 736 m 193 878 q 128 903 154 878 q 103 964 103 928 q 128 1026 103 1000 q 193 1051 154 1051 q 258 1027 232 1051 q 283 967 283 1003 q 258 903 283 929 q 193 878 232 878 m 222 -311 q 122 -274 160 -311 q 83 -176 83 -237 q 211 43 83 -56 l 260 0 q 195 -84 213 -44 q 178 -161 178 -124 q 195 -214 178 -194 q 239 -233 213 -233 q 286 -217 263 -233 l 310 -283 q 222 -311 278 -311 z "},"ĩ":{"ha":388,"x_min":-6,"x_max":392,"o":"m 126 736 l 260 736 l 260 0 l 126 0 l 126 736 m 276 847 q 222 862 244 847 q 172 904 200 876 q 141 932 153 924 q 117 940 129 940 q 82 917 94 940 q 69 854 69 894 l -6 854 q 25 979 -6 935 q 110 1024 56 1024 q 164 1009 142 1024 q 214 967 186 994 q 244 940 232 949 q 269 931 257 931 q 304 953 292 931 q 317 1013 317 975 l 392 1013 q 361 891 392 935 q 276 847 331 847 z "},"j":{"ha":394,"x_min":-128,"x_max":290,"o":"m 32 -278 q -58 -267 -17 -278 q -128 -233 -100 -256 l -85 -131 q 24 -165 -43 -165 q 105 -133 76 -165 q 133 -36 133 -100 l 133 736 l 267 736 l 267 -33 q 206 -212 267 -147 q 32 -278 144 -278 m 200 878 q 135 903 161 878 q 110 964 110 928 q 135 1026 110 1000 q 200 1051 161 1051 q 265 1027 239 1051 q 290 967 290 1003 q 265 903 290 929 q 200 878 239 878 z "},"ȷ":{"ha":394,"x_min":-128,"x_max":267,"o":"m 32 -278 q -58 -267 -17 -278 q -128 -233 -100 -256 l -85 -131 q 24 -165 -43 -165 q 105 -133 76 -165 q 133 -36 133 -100 l 133 736 l 267 736 l 267 -33 q 206 -212 267 -147 q 32 -278 144 -278 z "},"ĵ":{"ha":394,"x_min":-128,"x_max":414,"o":"m 32 -278 q -58 -267 -17 -278 q -128 -233 -100 -256 l -85 -131 q 24 -165 -43 -165 q 105 -133 76 -165 q 133 -36 133 -100 l 133 736 l 267 736 l 267 -33 q 206 -212 267 -147 q 32 -278 144 -278 m 300 843 l 200 946 l 100 843 l -14 843 l 138 1024 l 263 1024 l 414 843 l 300 843 z "},"k":{"ha":856,"x_min":126,"x_max":853,"o":"m 413 343 l 260 201 l 260 0 l 126 0 l 126 1031 l 260 1031 l 260 369 l 661 736 l 822 736 l 513 432 l 853 0 l 689 0 l 413 343 z "},"ǩ":{"ha":856,"x_min":-56,"x_max":853,"o":"m 413 343 l 260 201 l 260 0 l 126 0 l 126 1031 l 260 1031 l 260 369 l 661 736 l 822 736 l 513 432 l 853 0 l 689 0 l 413 343 m 442 1318 l 257 1138 l 129 1138 l -56 1318 l 65 1318 l 193 1213 l 321 1318 l 442 1318 z "},"ķ":{"ha":856,"x_min":126,"x_max":853,"o":"m 413 343 l 260 201 l 260 0 l 126 0 l 126 1031 l 260 1031 l 260 369 l 661 736 l 822 736 l 513 432 l 853 0 l 689 0 l 413 343 m 435 -131 q 486 -149 467 -131 q 506 -194 506 -167 q 488 -265 506 -228 l 446 -365 l 376 -365 l 408 -254 q 376 -232 388 -247 q 364 -194 364 -217 q 383 -149 364 -167 q 435 -131 403 -131 z "},"ĸ":{"ha":842,"x_min":126,"x_max":853,"o":"m 413 343 l 260 201 l 260 0 l 126 0 l 126 736 l 260 736 l 260 369 l 661 736 l 822 736 l 513 432 l 853 0 l 689 0 l 413 343 z "},"l":{"ha":388,"x_min":126,"x_max":260,"o":"m 126 1031 l 260 1031 l 260 0 l 126 0 l 126 1031 z "},"ĺ":{"ha":388,"x_min":89,"x_max":447,"o":"m 126 1031 l 260 1031 l 260 0 l 126 0 l 126 1031 m 278 1318 l 447 1318 l 214 1138 l 89 1138 l 278 1318 z "},"ľ":{"ha":388,"x_min":126,"x_max":493,"o":"m 126 1031 l 260 1031 l 260 0 l 126 0 l 126 1031 m 383 1076 l 493 1076 l 476 808 l 383 808 l 383 1076 z "},"ļ":{"ha":388,"x_min":122,"x_max":264,"o":"m 126 1031 l 260 1031 l 260 0 l 126 0 l 126 1031 m 193 -131 q 244 -149 225 -131 q 264 -194 264 -167 q 246 -265 264 -228 l 204 -365 l 135 -365 l 167 -254 q 134 -232 146 -247 q 122 -194 122 -217 q 142 -149 122 -167 q 193 -131 161 -131 z "},"ŀ":{"ha":481,"x_min":126,"x_max":513,"o":"m 126 1031 l 260 1031 l 260 0 l 126 0 l 126 1031 m 433 417 q 376 440 399 417 q 353 496 353 463 q 376 552 353 529 q 433 575 399 575 q 490 552 467 575 q 513 496 513 529 q 490 440 513 463 q 433 417 467 417 z "},"ḷ":{"ha":388,"x_min":122,"x_max":264,"o":"m 126 1031 l 260 1031 l 260 0 l 126 0 l 126 1031 m 193 -272 q 143 -253 164 -272 q 122 -203 122 -233 q 143 -151 122 -172 q 193 -131 164 -131 q 243 -151 222 -131 q 264 -203 264 -172 q 243 -253 264 -233 q 193 -272 222 -272 z "},"ǉ":{"ha":782,"x_min":126,"x_max":678,"o":"m 126 1031 l 260 1031 l 260 0 l 126 0 l 126 1031 m 419 -278 q 329 -267 371 -278 q 260 -233 288 -256 l 303 -131 q 411 -165 344 -165 q 492 -133 464 -165 q 521 -36 521 -100 l 521 736 l 654 736 l 654 -33 q 593 -212 654 -147 q 419 -278 532 -278 m 588 878 q 523 903 549 878 q 497 964 497 928 q 523 1026 497 1000 q 588 1051 549 1051 q 652 1027 626 1051 q 678 967 678 1003 q 652 903 678 929 q 588 878 626 878 z "},"ḻ":{"ha":388,"x_min":-33,"x_max":419,"o":"m 126 1031 l 260 1031 l 260 0 l 126 0 l 126 1031 m -33 -157 l 419 -157 l 419 -242 l -33 -242 l -33 -157 z "},"ł":{"ha":410,"x_min":-10,"x_max":418,"o":"m 138 1031 l 271 1031 l 271 0 l 138 0 l 138 1031 m -10 397 l 358 678 l 418 597 l 50 318 l -10 397 z "},"m":{"ha":1468,"x_min":126,"x_max":1349,"o":"m 1047 743 q 1267 663 1186 743 q 1349 424 1349 582 l 1349 0 l 1215 0 l 1215 408 q 1166 569 1215 515 q 1025 624 1117 624 q 864 560 924 624 q 804 379 804 497 l 804 0 l 671 0 l 671 408 q 622 569 671 515 q 481 624 572 624 q 319 560 379 624 q 260 379 260 497 l 260 0 l 126 0 l 126 736 l 254 736 l 254 626 q 360 713 294 683 q 508 743 425 743 q 661 708 594 743 q 764 607 728 674 q 880 707 806 671 q 1047 743 954 743 z "},"ṃ":{"ha":1468,"x_min":126,"x_max":1349,"o":"m 1047 743 q 1267 663 1186 743 q 1349 424 1349 582 l 1349 0 l 1215 0 l 1215 408 q 1166 569 1215 515 q 1025 624 1117 624 q 864 560 924 624 q 804 379 804 497 l 804 0 l 671 0 l 671 408 q 622 569 671 515 q 481 624 572 624 q 319 560 379 624 q 260 379 260 497 l 260 0 l 126 0 l 126 736 l 254 736 l 254 626 q 360 713 294 683 q 508 743 425 743 q 661 708 594 743 q 764 607 728 674 q 880 707 806 671 q 1047 743 954 743 m 736 -272 q 686 -253 707 -272 q 665 -203 665 -233 q 686 -151 665 -172 q 736 -131 707 -131 q 786 -151 765 -131 q 807 -203 807 -172 q 786 -253 807 -233 q 736 -272 765 -272 z "},"n":{"ha":946,"x_min":126,"x_max":825,"o":"m 519 743 q 742 662 660 743 q 825 424 825 581 l 825 0 l 692 0 l 692 408 q 640 569 692 515 q 493 624 589 624 q 322 560 385 624 q 260 379 260 497 l 260 0 l 126 0 l 126 736 l 254 736 l 254 625 q 363 713 294 682 q 519 743 432 743 z "},"ń":{"ha":946,"x_min":126,"x_max":825,"o":"m 519 743 q 742 662 660 743 q 825 424 825 581 l 825 0 l 692 0 l 692 408 q 640 569 692 515 q 493 624 589 624 q 322 560 385 624 q 260 379 260 497 l 260 0 l 126 0 l 126 736 l 254 736 l 254 625 q 363 713 294 682 q 519 743 432 743 m 561 1024 l 731 1024 l 497 843 l 372 843 l 561 1024 z "},"ŉ":{"ha":1069,"x_min":74,"x_max":950,"o":"m 78 972 l 169 972 l 147 610 l 74 610 l 78 972 m 644 743 q 867 662 785 743 q 950 424 950 581 l 950 0 l 817 0 l 817 408 q 765 569 817 515 q 618 624 714 624 q 447 560 510 624 q 385 379 385 497 l 385 0 l 251 0 l 251 736 l 379 736 l 379 625 q 488 713 419 682 q 644 743 557 743 z "},"ň":{"ha":946,"x_min":126,"x_max":825,"o":"m 519 743 q 742 662 660 743 q 825 424 825 581 l 825 0 l 692 0 l 692 408 q 640 569 692 515 q 493 624 589 624 q 322 560 385 624 q 260 379 260 497 l 260 0 l 126 0 l 126 736 l 254 736 l 254 625 q 363 713 294 682 q 519 743 432 743 m 725 1024 l 540 843 l 413 843 l 228 1024 l 349 1024 l 476 918 l 604 1024 l 725 1024 z "},"ņ":{"ha":946,"x_min":126,"x_max":825,"o":"m 519 743 q 742 662 660 743 q 825 424 825 581 l 825 0 l 692 0 l 692 408 q 640 569 692 515 q 493 624 589 624 q 322 560 385 624 q 260 379 260 497 l 260 0 l 126 0 l 126 736 l 254 736 l 254 625 q 363 713 294 682 q 519 743 432 743 m 476 -131 q 528 -149 508 -131 q 547 -194 547 -167 q 529 -265 547 -228 l 488 -365 l 418 -365 l 450 -254 q 417 -232 429 -247 q 406 -194 406 -217 q 425 -149 406 -167 q 476 -131 444 -131 z "},"ṅ":{"ha":946,"x_min":126,"x_max":825,"o":"m 519 743 q 742 662 660 743 q 825 424 825 581 l 825 0 l 692 0 l 692 408 q 640 569 692 515 q 493 624 589 624 q 322 560 385 624 q 260 379 260 497 l 260 0 l 126 0 l 126 736 l 254 736 l 254 625 q 363 713 294 682 q 519 743 432 743 m 476 868 q 418 892 442 868 q 394 950 394 915 q 418 1008 394 985 q 476 1032 442 1032 q 535 1008 511 1032 q 558 950 558 985 q 535 892 558 915 q 476 868 511 868 z "},"ṇ":{"ha":946,"x_min":126,"x_max":825,"o":"m 519 743 q 742 662 660 743 q 825 424 825 581 l 825 0 l 692 0 l 692 408 q 640 569 692 515 q 493 624 589 624 q 322 560 385 624 q 260 379 260 497 l 260 0 l 126 0 l 126 736 l 254 736 l 254 625 q 363 713 294 682 q 519 743 432 743 m 476 -272 q 426 -253 447 -272 q 406 -203 406 -233 q 426 -151 406 -172 q 476 -131 447 -131 q 526 -151 506 -131 q 547 -203 547 -172 q 526 -253 547 -233 q 476 -272 506 -272 z "},"ŋ":{"ha":946,"x_min":126,"x_max":825,"o":"m 519 743 q 742 662 660 743 q 825 424 825 581 l 825 -33 q 764 -212 825 -147 q 590 -278 703 -278 q 501 -267 543 -278 q 431 -233 458 -256 l 474 -131 q 582 -165 517 -165 q 663 -133 635 -165 q 692 -36 692 -100 l 692 408 q 640 569 692 515 q 493 624 589 624 q 322 560 385 624 q 260 379 260 497 l 260 0 l 126 0 l 126 736 l 254 736 l 254 625 q 363 713 294 682 q 519 743 432 743 z "},"ǌ":{"ha":1340,"x_min":126,"x_max":1236,"o":"m 519 743 q 742 662 660 743 q 825 424 825 581 l 825 0 l 692 0 l 692 408 q 640 569 692 515 q 493 624 589 624 q 322 560 385 624 q 260 379 260 497 l 260 0 l 126 0 l 126 736 l 254 736 l 254 625 q 363 713 294 682 q 519 743 432 743 m 978 -278 q 888 -267 929 -278 q 818 -233 846 -256 l 861 -131 q 969 -165 903 -165 q 1051 -133 1022 -165 q 1079 -36 1079 -100 l 1079 736 l 1213 736 l 1213 -33 q 1151 -212 1213 -147 q 978 -278 1090 -278 m 1146 878 q 1081 903 1107 878 q 1056 964 1056 928 q 1081 1026 1056 1000 q 1146 1051 1107 1051 q 1210 1027 1185 1051 q 1236 967 1236 1003 q 1210 903 1236 929 q 1146 878 1185 878 z "},"ṉ":{"ha":946,"x_min":126,"x_max":825,"o":"m 519 743 q 742 662 660 743 q 825 424 825 581 l 825 0 l 692 0 l 692 408 q 640 569 692 515 q 493 624 589 624 q 322 560 385 624 q 260 379 260 497 l 260 0 l 126 0 l 126 736 l 254 736 l 254 625 q 363 713 294 682 q 519 743 432 743 m 250 -157 l 703 -157 l 703 -242 l 250 -242 l 250 -157 z "},"ñ":{"ha":946,"x_min":126,"x_max":825,"o":"m 519 743 q 742 662 660 743 q 825 424 825 581 l 825 0 l 692 0 l 692 408 q 640 569 692 515 q 493 624 589 624 q 322 560 385 624 q 260 379 260 497 l 260 0 l 126 0 l 126 736 l 254 736 l 254 625 q 363 713 294 682 q 519 743 432 743 m 574 847 q 516 861 540 847 q 456 903 492 875 q 419 931 435 922 q 389 940 404 940 q 339 917 358 940 q 318 854 319 894 l 243 854 q 283 978 246 932 q 379 1024 319 1024 q 438 1009 413 1024 q 497 967 464 994 q 535 938 521 947 q 564 929 549 929 q 614 951 594 929 q 635 1013 633 974 l 710 1013 q 670 892 707 938 q 574 847 633 847 z "},"o":{"ha":882,"x_min":58,"x_max":824,"o":"m 442 -8 q 244 40 332 -8 q 108 174 157 89 q 58 368 58 260 q 108 562 58 476 q 244 695 157 647 q 442 743 332 743 q 638 695 551 743 q 774 562 725 647 q 824 368 824 476 q 774 174 824 260 q 638 40 725 89 q 442 -8 551 -8 m 442 108 q 569 141 513 108 q 657 233 625 174 q 689 368 689 292 q 657 503 689 444 q 569 594 625 563 q 442 626 513 626 q 315 594 371 626 q 226 503 258 563 q 193 368 193 444 q 226 233 193 292 q 315 141 258 174 q 442 108 371 108 z "},"ó":{"ha":882,"x_min":58,"x_max":824,"o":"m 442 -8 q 244 40 332 -8 q 108 174 157 89 q 58 368 58 260 q 108 562 58 476 q 244 695 157 647 q 442 743 332 743 q 638 695 551 743 q 774 562 725 647 q 824 368 824 476 q 774 174 824 260 q 638 40 725 89 q 442 -8 551 -8 m 442 108 q 569 141 513 108 q 657 233 625 174 q 689 368 689 292 q 657 503 689 444 q 569 594 625 563 q 442 626 513 626 q 315 594 371 626 q 226 503 258 563 q 193 368 193 444 q 226 233 193 292 q 315 141 258 174 q 442 108 371 108 m 525 1024 l 694 1024 l 461 843 l 336 843 l 525 1024 z "},"ŏ":{"ha":882,"x_min":58,"x_max":824,"o":"m 442 -8 q 244 40 332 -8 q 108 174 157 89 q 58 368 58 260 q 108 562 58 476 q 244 695 157 647 q 442 743 332 743 q 638 695 551 743 q 774 562 725 647 q 824 368 824 476 q 774 174 824 260 q 638 40 725 89 q 442 -8 551 -8 m 442 108 q 569 141 513 108 q 657 233 625 174 q 689 368 689 292 q 657 503 689 444 q 569 594 625 563 q 442 626 513 626 q 315 594 371 626 q 226 503 258 563 q 193 368 193 444 q 226 233 193 292 q 315 141 258 174 q 442 108 371 108 m 440 835 q 281 886 344 835 q 215 1024 218 938 l 306 1024 q 345 943 307 974 q 440 913 383 913 q 535 943 497 913 q 575 1024 574 974 l 665 1024 q 599 886 663 938 q 440 835 536 835 z "},"ô":{"ha":882,"x_min":58,"x_max":824,"o":"m 442 -8 q 244 40 332 -8 q 108 174 157 89 q 58 368 58 260 q 108 562 58 476 q 244 695 157 647 q 442 743 332 743 q 638 695 551 743 q 774 562 725 647 q 824 368 824 476 q 774 174 824 260 q 638 40 725 89 q 442 -8 551 -8 m 442 108 q 569 141 513 108 q 657 233 625 174 q 689 368 689 292 q 657 503 689 444 q 569 594 625 563 q 442 626 513 626 q 315 594 371 626 q 226 503 258 563 q 193 368 193 444 q 226 233 193 292 q 315 141 258 174 q 442 108 371 108 m 568 843 l 440 950 l 313 843 l 192 843 l 376 1024 l 504 1024 l 689 843 l 568 843 z "},"ố":{"ha":882,"x_min":58,"x_max":893,"o":"m 442 -8 q 244 40 332 -8 q 108 174 157 89 q 58 368 58 260 q 108 562 58 476 q 244 695 157 647 q 442 743 332 743 q 638 695 551 743 q 774 562 725 647 q 824 368 824 476 q 774 174 824 260 q 638 40 725 89 q 442 -8 551 -8 m 442 108 q 569 141 513 108 q 657 233 625 174 q 689 368 689 292 q 657 503 689 444 q 569 594 625 563 q 442 626 513 626 q 315 594 371 626 q 226 503 258 563 q 193 368 193 444 q 226 233 193 292 q 315 141 258 174 q 442 108 371 108 m 567 843 l 440 921 l 314 843 l 192 843 l 378 982 l 503 982 l 689 843 l 567 843 m 742 1122 l 893 1122 l 688 965 l 578 965 l 742 1122 z "},"ộ":{"ha":882,"x_min":58,"x_max":824,"o":"m 442 -8 q 244 40 332 -8 q 108 174 157 89 q 58 368 58 260 q 108 562 58 476 q 244 695 157 647 q 442 743 332 743 q 638 695 551 743 q 774 562 725 647 q 824 368 824 476 q 774 174 824 260 q 638 40 725 89 q 442 -8 551 -8 m 442 108 q 569 141 513 108 q 657 233 625 174 q 689 368 689 292 q 657 503 689 444 q 569 594 625 563 q 442 626 513 626 q 315 594 371 626 q 226 503 258 563 q 193 368 193 444 q 226 233 193 292 q 315 141 258 174 q 442 108 371 108 m 440 -272 q 390 -253 411 -272 q 369 -203 369 -233 q 390 -151 369 -172 q 440 -131 411 -131 q 490 -151 469 -131 q 511 -203 511 -172 q 490 -253 511 -233 q 440 -272 469 -272 m 568 843 l 440 950 l 313 843 l 192 843 l 376 1024 l 504 1024 l 689 843 l 568 843 z "},"ồ":{"ha":882,"x_min":58,"x_max":824,"o":"m 442 -8 q 244 40 332 -8 q 108 174 157 89 q 58 368 58 260 q 108 562 58 476 q 244 695 157 647 q 442 743 332 743 q 638 695 551 743 q 774 562 725 647 q 824 368 824 476 q 774 174 824 260 q 638 40 725 89 q 442 -8 551 -8 m 442 108 q 569 141 513 108 q 657 233 625 174 q 689 368 689 292 q 657 503 689 444 q 569 594 625 563 q 442 626 513 626 q 315 594 371 626 q 226 503 258 563 q 193 368 193 444 q 226 233 193 292 q 315 141 258 174 q 442 108 371 108 m 567 843 l 440 921 l 314 843 l 192 843 l 378 982 l 503 982 l 689 843 l 567 843 m 456 1122 l 607 1122 l 769 965 l 661 965 l 456 1122 z "},"ổ":{"ha":882,"x_min":58,"x_max":824,"o":"m 442 -8 q 244 40 332 -8 q 108 174 157 89 q 58 368 58 260 q 108 562 58 476 q 244 695 157 647 q 442 743 332 743 q 638 695 551 743 q 774 562 725 647 q 824 368 824 476 q 774 174 824 260 q 638 40 725 89 q 442 -8 551 -8 m 442 108 q 569 141 513 108 q 657 233 625 174 q 689 368 689 292 q 657 503 689 444 q 569 594 625 563 q 442 626 513 626 q 315 594 371 626 q 226 503 258 563 q 193 368 193 444 q 226 233 193 292 q 315 141 258 174 q 442 108 371 108 m 567 843 l 440 921 l 314 843 l 192 843 l 378 982 l 503 982 l 689 843 l 567 843 m 607 981 q 649 1011 635 993 q 663 1047 663 1029 q 648 1078 663 1067 q 610 1090 633 1090 q 550 1074 579 1090 l 525 1125 q 621 1151 567 1151 q 700 1124 671 1151 q 729 1054 729 1097 q 706 987 729 1017 q 643 940 682 957 l 607 981 z "},"ỗ":{"ha":882,"x_min":58,"x_max":824,"o":"m 442 -8 q 244 40 332 -8 q 108 174 157 89 q 58 368 58 260 q 108 562 58 476 q 244 695 157 647 q 442 743 332 743 q 638 695 551 743 q 774 562 725 647 q 824 368 824 476 q 774 174 824 260 q 638 40 725 89 q 442 -8 551 -8 m 442 108 q 569 141 513 108 q 657 233 625 174 q 689 368 689 292 q 657 503 689 444 q 569 594 625 563 q 442 626 513 626 q 315 594 371 626 q 226 503 258 563 q 193 368 193 444 q 226 233 193 292 q 315 141 258 174 q 442 108 371 108 m 567 843 l 440 921 l 314 843 l 192 843 l 378 982 l 503 982 l 689 843 l 567 843 m 538 1029 q 477 1040 503 1029 q 418 1074 451 1051 q 350 1104 375 1104 q 286 1035 289 1104 l 211 1035 q 248 1140 213 1101 q 344 1178 283 1178 q 402 1167 376 1178 q 461 1133 428 1156 q 500 1110 485 1118 q 532 1103 515 1103 q 578 1121 563 1103 q 596 1171 594 1139 l 669 1171 q 633 1067 668 1106 q 538 1029 597 1029 z "},"ȍ":{"ha":882,"x_min":58,"x_max":824,"o":"m 442 -8 q 244 40 332 -8 q 108 174 157 89 q 58 368 58 260 q 108 562 58 476 q 244 695 157 647 q 442 743 332 743 q 638 695 551 743 q 774 562 725 647 q 824 368 824 476 q 774 174 824 260 q 638 40 725 89 q 442 -8 551 -8 m 442 108 q 569 141 513 108 q 657 233 625 174 q 689 368 689 292 q 657 503 689 444 q 569 594 625 563 q 442 626 513 626 q 315 594 371 626 q 226 503 258 563 q 193 368 193 444 q 226 233 193 292 q 315 141 258 174 q 442 108 371 108 m 111 1024 l 251 1024 l 375 843 l 263 843 l 111 1024 m 351 1024 l 493 1024 l 618 843 l 506 843 l 351 1024 z "},"ö":{"ha":882,"x_min":58,"x_max":824,"o":"m 442 -8 q 244 40 332 -8 q 108 174 157 89 q 58 368 58 260 q 108 562 58 476 q 244 695 157 647 q 442 743 332 743 q 638 695 551 743 q 774 562 725 647 q 824 368 824 476 q 774 174 824 260 q 638 40 725 89 q 442 -8 551 -8 m 442 108 q 569 141 513 108 q 657 233 625 174 q 689 368 689 292 q 657 503 689 444 q 569 594 625 563 q 442 626 513 626 q 315 594 371 626 q 226 503 258 563 q 193 368 193 444 q 226 233 193 292 q 315 141 258 174 q 442 108 371 108 m 311 867 q 261 887 282 867 q 240 938 240 907 q 261 989 240 968 q 311 1010 282 1010 q 361 989 340 1010 q 382 938 382 968 q 361 887 382 907 q 311 867 340 867 m 569 867 q 519 887 540 867 q 499 938 499 907 q 519 989 499 968 q 569 1010 540 1010 q 619 989 599 1010 q 640 938 640 968 q 619 887 640 907 q 569 867 599 867 z "},"ȫ":{"ha":882,"x_min":58,"x_max":824,"o":"m 442 -8 q 244 40 332 -8 q 108 174 157 89 q 58 368 58 260 q 108 562 58 476 q 244 695 157 647 q 442 743 332 743 q 638 695 551 743 q 774 562 725 647 q 824 368 824 476 q 774 174 824 260 q 638 40 725 89 q 442 -8 551 -8 m 442 108 q 569 141 513 108 q 657 233 625 174 q 689 368 689 292 q 657 503 689 444 q 569 594 625 563 q 442 626 513 626 q 315 594 371 626 q 226 503 258 563 q 193 368 193 444 q 226 233 193 292 q 315 141 258 174 q 442 108 371 108 m 315 867 q 266 886 286 867 q 246 936 246 906 q 266 985 246 965 q 315 1004 286 1004 q 363 985 343 1004 q 383 936 383 965 q 363 887 383 907 q 315 867 343 867 m 567 867 q 519 887 539 867 q 499 936 499 907 q 519 985 499 965 q 567 1004 539 1004 q 616 985 596 1004 q 636 936 636 965 q 616 887 636 907 q 567 867 596 867 m 214 1150 l 667 1150 l 667 1071 l 214 1071 l 214 1150 z "},"ȱ":{"ha":882,"x_min":58,"x_max":824,"o":"m 442 -8 q 244 40 332 -8 q 108 174 157 89 q 58 368 58 260 q 108 562 58 476 q 244 695 157 647 q 442 743 332 743 q 638 695 551 743 q 774 562 725 647 q 824 368 824 476 q 774 174 824 260 q 638 40 725 89 q 442 -8 551 -8 m 442 108 q 569 141 513 108 q 657 233 625 174 q 689 368 689 292 q 657 503 689 444 q 569 594 625 563 q 442 626 513 626 q 315 594 371 626 q 226 503 258 563 q 193 368 193 444 q 226 233 193 292 q 315 141 258 174 q 442 108 371 108 m 440 865 q 390 886 411 865 q 369 938 369 907 q 390 988 369 968 q 440 1008 411 1008 q 490 988 469 1008 q 511 938 511 968 q 490 886 511 907 q 440 865 469 865 m 214 1154 l 667 1154 l 667 1075 l 214 1075 l 214 1154 z "},"ọ":{"ha":882,"x_min":58,"x_max":824,"o":"m 442 -8 q 244 40 332 -8 q 108 174 157 89 q 58 368 58 260 q 108 562 58 476 q 244 695 157 647 q 442 743 332 743 q 638 695 551 743 q 774 562 725 647 q 824 368 824 476 q 774 174 824 260 q 638 40 725 89 q 442 -8 551 -8 m 442 108 q 569 141 513 108 q 657 233 625 174 q 689 368 689 292 q 657 503 689 444 q 569 594 625 563 q 442 626 513 626 q 315 594 371 626 q 226 503 258 563 q 193 368 193 444 q 226 233 193 292 q 315 141 258 174 q 442 108 371 108 m 440 -272 q 390 -253 411 -272 q 369 -203 369 -233 q 390 -151 369 -172 q 440 -131 411 -131 q 490 -151 469 -131 q 511 -203 511 -172 q 490 -253 511 -233 q 440 -272 469 -272 z "},"ò":{"ha":882,"x_min":58,"x_max":824,"o":"m 442 -8 q 244 40 332 -8 q 108 174 157 89 q 58 368 58 260 q 108 562 58 476 q 244 695 157 647 q 442 743 332 743 q 638 695 551 743 q 774 562 725 647 q 824 368 824 476 q 774 174 824 260 q 638 40 725 89 q 442 -8 551 -8 m 442 108 q 569 141 513 108 q 657 233 625 174 q 689 368 689 292 q 657 503 689 444 q 569 594 625 563 q 442 626 513 626 q 315 594 371 626 q 226 503 258 563 q 193 368 193 444 q 226 233 193 292 q 315 141 258 174 q 442 108 371 108 m 186 1024 l 356 1024 l 544 843 l 419 843 l 186 1024 z "},"ỏ":{"ha":882,"x_min":58,"x_max":824,"o":"m 442 -8 q 244 40 332 -8 q 108 174 157 89 q 58 368 58 260 q 108 562 58 476 q 244 695 157 647 q 442 743 332 743 q 638 695 551 743 q 774 562 725 647 q 824 368 824 476 q 774 174 824 260 q 638 40 725 89 q 442 -8 551 -8 m 442 108 q 569 141 513 108 q 657 233 625 174 q 689 368 689 292 q 657 503 689 444 q 569 594 625 563 q 442 626 513 626 q 315 594 371 626 q 226 503 258 563 q 193 368 193 444 q 226 233 193 292 q 315 141 258 174 q 442 108 371 108 m 421 885 q 480 926 461 903 q 499 978 499 949 q 478 1024 499 1006 q 426 1043 458 1043 q 343 1017 383 1043 l 313 1079 q 371 1108 338 1099 q 439 1118 404 1118 q 541 1083 501 1118 q 581 989 581 1047 q 467 831 581 883 l 421 885 z "},"ơ":{"ha":882,"x_min":58,"x_max":824,"o":"m 690 658 q 789 533 754 607 q 824 368 824 458 q 774 174 824 260 q 638 40 725 89 q 442 -8 551 -8 q 244 40 332 -8 q 108 174 157 89 q 58 368 58 260 q 108 562 58 476 q 246 695 158 647 q 443 743 333 743 q 497 741 471 743 q 535 739 524 739 q 611 735 569 735 q 690 761 663 735 q 717 828 717 788 q 688 915 717 874 l 771 947 q 811 824 811 890 q 780 719 811 763 q 690 658 749 676 m 442 108 q 568 141 511 108 q 657 233 625 174 q 689 368 689 292 q 657 503 689 444 q 569 594 625 563 q 442 626 513 626 q 315 594 371 626 q 226 503 258 563 q 193 368 193 444 q 226 233 193 292 q 315 141 258 174 q 442 108 371 108 z "},"ớ":{"ha":882,"x_min":58,"x_max":824,"o":"m 690 658 q 789 533 754 607 q 824 368 824 458 q 774 174 824 260 q 638 40 725 89 q 442 -8 551 -8 q 244 40 332 -8 q 108 174 157 89 q 58 368 58 260 q 108 562 58 476 q 246 695 158 647 q 443 743 333 743 q 497 741 471 743 q 535 739 524 739 q 611 735 569 735 q 690 761 663 735 q 717 828 717 788 q 688 915 717 874 l 771 947 q 811 824 811 890 q 780 719 811 763 q 690 658 749 676 m 442 108 q 568 141 511 108 q 657 233 625 174 q 689 368 689 292 q 657 503 689 444 q 569 594 625 563 q 442 626 513 626 q 315 594 371 626 q 226 503 258 563 q 193 368 193 444 q 226 233 193 292 q 315 141 258 174 q 442 108 371 108 m 526 1024 l 696 1024 l 463 843 l 338 843 l 526 1024 z "},"ợ":{"ha":882,"x_min":58,"x_max":824,"o":"m 690 658 q 789 533 754 607 q 824 368 824 458 q 774 174 824 260 q 638 40 725 89 q 442 -8 551 -8 q 244 40 332 -8 q 108 174 157 89 q 58 368 58 260 q 108 562 58 476 q 246 695 158 647 q 443 743 333 743 q 497 741 471 743 q 535 739 524 739 q 611 735 569 735 q 690 761 663 735 q 717 828 717 788 q 688 915 717 874 l 771 947 q 811 824 811 890 q 780 719 811 763 q 690 658 749 676 m 442 108 q 568 141 511 108 q 657 233 625 174 q 689 368 689 292 q 657 503 689 444 q 569 594 625 563 q 442 626 513 626 q 315 594 371 626 q 226 503 258 563 q 193 368 193 444 q 226 233 193 292 q 315 141 258 174 q 442 108 371 108 m 442 -272 q 392 -253 413 -272 q 371 -203 371 -233 q 392 -151 371 -172 q 442 -131 413 -131 q 492 -151 471 -131 q 513 -203 513 -172 q 492 -253 513 -233 q 442 -272 471 -272 z "},"ờ":{"ha":882,"x_min":58,"x_max":824,"o":"m 690 658 q 789 533 754 607 q 824 368 824 458 q 774 174 824 260 q 638 40 725 89 q 442 -8 551 -8 q 244 40 332 -8 q 108 174 157 89 q 58 368 58 260 q 108 562 58 476 q 246 695 158 647 q 443 743 333 743 q 497 741 471 743 q 535 739 524 739 q 611 735 569 735 q 690 761 663 735 q 717 828 717 788 q 688 915 717 874 l 771 947 q 811 824 811 890 q 780 719 811 763 q 690 658 749 676 m 442 108 q 568 141 511 108 q 657 233 625 174 q 689 368 689 292 q 657 503 689 444 q 569 594 625 563 q 442 626 513 626 q 315 594 371 626 q 226 503 258 563 q 193 368 193 444 q 226 233 193 292 q 315 141 258 174 q 442 108 371 108 m 188 1024 l 357 1024 l 546 843 l 421 843 l 188 1024 z "},"ở":{"ha":882,"x_min":58,"x_max":824,"o":"m 690 658 q 789 533 754 607 q 824 368 824 458 q 774 174 824 260 q 638 40 725 89 q 442 -8 551 -8 q 244 40 332 -8 q 108 174 157 89 q 58 368 58 260 q 108 562 58 476 q 246 695 158 647 q 443 743 333 743 q 497 741 471 743 q 535 739 524 739 q 611 735 569 735 q 690 761 663 735 q 717 828 717 788 q 688 915 717 874 l 771 947 q 811 824 811 890 q 780 719 811 763 q 690 658 749 676 m 442 108 q 568 141 511 108 q 657 233 625 174 q 689 368 689 292 q 657 503 689 444 q 569 594 625 563 q 442 626 513 626 q 315 594 371 626 q 226 503 258 563 q 193 368 193 444 q 226 233 193 292 q 315 141 258 174 q 442 108 371 108 m 422 885 q 481 926 463 903 q 500 978 500 949 q 480 1024 500 1006 q 428 1043 460 1043 q 344 1017 385 1043 l 314 1079 q 372 1108 339 1099 q 440 1118 406 1118 q 542 1083 503 1118 q 582 989 582 1047 q 468 831 582 883 l 422 885 z "},"ỡ":{"ha":888,"x_min":58,"x_max":824,"o":"m 690 658 q 789 533 754 607 q 824 368 824 458 q 774 174 824 260 q 638 40 725 89 q 442 -8 551 -8 q 244 40 332 -8 q 108 174 157 89 q 58 368 58 260 q 108 562 58 476 q 246 695 158 647 q 443 743 333 743 q 497 741 471 743 q 535 739 524 739 q 611 735 569 735 q 690 761 663 735 q 717 828 717 788 q 688 915 717 874 l 771 947 q 811 824 811 890 q 780 719 811 763 q 690 658 749 676 m 442 108 q 568 141 511 108 q 657 233 625 174 q 689 368 689 292 q 657 503 689 444 q 569 594 625 563 q 442 626 513 626 q 315 594 371 626 q 226 503 258 563 q 193 368 193 444 q 226 233 193 292 q 315 141 258 174 q 442 108 371 108 m 531 847 q 477 861 500 847 q 421 903 455 875 q 388 931 402 922 q 359 940 374 940 q 313 917 331 940 q 294 854 295 894 l 224 854 q 261 978 227 932 q 350 1024 295 1024 q 405 1009 381 1024 q 460 967 429 994 q 495 938 482 947 q 522 929 507 929 q 568 951 550 929 q 587 1013 586 974 l 657 1013 q 620 892 654 938 q 531 847 586 847 z "},"ő":{"ha":882,"x_min":58,"x_max":824,"o":"m 442 -8 q 244 40 332 -8 q 108 174 157 89 q 58 368 58 260 q 108 562 58 476 q 244 695 157 647 q 442 743 332 743 q 638 695 551 743 q 774 562 725 647 q 824 368 824 476 q 774 174 824 260 q 638 40 725 89 q 442 -8 551 -8 m 442 108 q 569 141 513 108 q 657 233 625 174 q 689 368 689 292 q 657 503 689 444 q 569 594 625 563 q 442 626 513 626 q 315 594 371 626 q 226 503 258 563 q 193 368 193 444 q 226 233 193 292 q 315 141 258 174 q 442 108 371 108 m 388 1024 l 529 1024 l 375 843 l 263 843 l 388 1024 m 629 1024 l 769 1024 l 618 843 l 506 843 l 629 1024 z "},"ȏ":{"ha":882,"x_min":58,"x_max":824,"o":"m 442 -8 q 244 40 332 -8 q 108 174 157 89 q 58 368 58 260 q 108 562 58 476 q 244 695 157 647 q 442 743 332 743 q 638 695 551 743 q 774 562 725 647 q 824 368 824 476 q 774 174 824 260 q 638 40 725 89 q 442 -8 551 -8 m 442 108 q 569 141 513 108 q 657 233 625 174 q 689 368 689 292 q 657 503 689 444 q 569 594 625 563 q 442 626 513 626 q 315 594 371 626 q 226 503 258 563 q 193 368 193 444 q 226 233 193 292 q 315 141 258 174 q 442 108 371 108 m 215 843 q 281 981 218 929 q 440 1032 344 1032 q 599 981 536 1032 q 665 843 663 929 l 575 843 q 535 924 574 894 q 440 954 497 954 q 345 924 383 954 q 306 843 307 894 l 215 843 z "},"ō":{"ha":882,"x_min":58,"x_max":824,"o":"m 442 -8 q 244 40 332 -8 q 108 174 157 89 q 58 368 58 260 q 108 562 58 476 q 244 695 157 647 q 442 743 332 743 q 638 695 551 743 q 774 562 725 647 q 824 368 824 476 q 774 174 824 260 q 638 40 725 89 q 442 -8 551 -8 m 442 108 q 569 141 513 108 q 657 233 625 174 q 689 368 689 292 q 657 503 689 444 q 569 594 625 563 q 442 626 513 626 q 315 594 371 626 q 226 503 258 563 q 193 368 193 444 q 226 233 193 292 q 315 141 258 174 q 442 108 371 108 m 214 975 l 667 975 l 667 892 l 214 892 l 214 975 z "},"ṓ":{"ha":882,"x_min":58,"x_max":824,"o":"m 442 -8 q 244 40 332 -8 q 108 174 157 89 q 58 368 58 260 q 108 562 58 476 q 244 695 157 647 q 442 743 332 743 q 638 695 551 743 q 774 562 725 647 q 824 368 824 476 q 774 174 824 260 q 638 40 725 89 q 442 -8 551 -8 m 442 108 q 569 141 513 108 q 657 233 625 174 q 689 368 689 292 q 657 503 689 444 q 569 594 625 563 q 442 626 513 626 q 315 594 371 626 q 226 503 258 563 q 193 368 193 444 q 226 233 193 292 q 315 141 258 174 q 442 108 371 108 m 214 953 l 667 953 l 667 874 l 214 874 l 214 953 m 508 1197 l 660 1197 l 454 1040 l 344 1040 l 508 1197 z "},"ṑ":{"ha":882,"x_min":58,"x_max":824,"o":"m 442 -8 q 244 40 332 -8 q 108 174 157 89 q 58 368 58 260 q 108 562 58 476 q 244 695 157 647 q 442 743 332 743 q 638 695 551 743 q 774 562 725 647 q 824 368 824 476 q 774 174 824 260 q 638 40 725 89 q 442 -8 551 -8 m 442 108 q 569 141 513 108 q 657 233 625 174 q 689 368 689 292 q 657 503 689 444 q 569 594 625 563 q 442 626 513 626 q 315 594 371 626 q 226 503 258 563 q 193 368 193 444 q 226 233 193 292 q 315 141 258 174 q 442 108 371 108 m 214 953 l 667 953 l 667 874 l 214 874 l 214 953 m 222 1197 l 374 1197 l 536 1040 l 428 1040 l 222 1197 z "},"ǫ":{"ha":882,"x_min":58,"x_max":824,"o":"m 600 22 q 451 -69 493 -25 q 410 -160 410 -114 q 433 -214 410 -194 q 496 -233 457 -233 q 541 -227 518 -233 q 581 -210 564 -221 l 607 -278 q 482 -311 551 -311 q 360 -273 406 -311 q 315 -174 315 -235 q 411 -7 315 -76 q 229 49 310 0 q 103 182 149 99 q 58 368 58 265 q 108 562 58 476 q 244 695 157 647 q 442 743 332 743 q 638 695 551 743 q 774 562 725 647 q 824 368 824 476 q 764 158 824 249 q 600 22 704 67 m 193 368 q 226 233 193 292 q 315 141 258 174 q 442 108 371 108 q 569 141 513 108 q 657 233 625 174 q 689 368 689 292 q 657 503 689 444 q 569 594 625 563 q 442 626 513 626 q 315 594 371 626 q 226 503 258 563 q 193 368 193 444 z "},"ø":{"ha":882,"x_min":58,"x_max":824,"o":"m 442 -8 q 244 40 332 -8 q 108 174 157 89 q 58 368 58 260 q 108 562 58 476 q 244 695 157 647 q 442 743 332 743 q 638 695 551 743 q 774 562 725 647 q 824 368 824 476 q 774 174 824 260 q 638 40 725 89 q 442 -8 551 -8 m 442 108 q 569 141 513 108 q 657 233 625 174 q 689 368 689 292 q 657 503 689 444 q 569 594 625 563 q 442 626 513 626 q 315 594 371 626 q 226 503 258 563 q 193 368 193 444 q 226 233 193 292 q 315 141 258 174 q 442 108 371 108 m 706 831 l 788 831 l 176 -99 l 93 -99 l 706 831 z "},"ǿ":{"ha":882,"x_min":58,"x_max":824,"o":"m 442 -8 q 244 40 332 -8 q 108 174 157 89 q 58 368 58 260 q 108 562 58 476 q 244 695 157 647 q 442 743 332 743 q 638 695 551 743 q 774 562 725 647 q 824 368 824 476 q 774 174 824 260 q 638 40 725 89 q 442 -8 551 -8 m 442 108 q 569 141 513 108 q 657 233 625 174 q 689 368 689 292 q 657 503 689 444 q 569 594 625 563 q 442 626 513 626 q 315 594 371 626 q 226 503 258 563 q 193 368 193 444 q 226 233 193 292 q 315 141 258 174 q 442 108 371 108 m 706 831 l 788 831 l 176 -99 l 93 -99 l 706 831 m 522 1024 l 692 1024 l 458 843 l 333 843 l 522 1024 z "},"õ":{"ha":882,"x_min":58,"x_max":824,"o":"m 442 -8 q 244 40 332 -8 q 108 174 157 89 q 58 368 58 260 q 108 562 58 476 q 244 695 157 647 q 442 743 332 743 q 638 695 551 743 q 774 562 725 647 q 824 368 824 476 q 774 174 824 260 q 638 40 725 89 q 442 -8 551 -8 m 442 108 q 569 141 513 108 q 657 233 625 174 q 689 368 689 292 q 657 503 689 444 q 569 594 625 563 q 442 626 513 626 q 315 594 371 626 q 226 503 258 563 q 193 368 193 444 q 226 233 193 292 q 315 141 258 174 q 442 108 371 108 m 538 847 q 480 861 504 847 q 419 903 456 875 q 383 931 399 922 q 353 940 368 940 q 303 917 322 940 q 282 854 283 894 l 207 854 q 247 978 210 932 q 343 1024 283 1024 q 402 1009 376 1024 q 461 967 428 994 q 499 938 485 947 q 528 929 513 929 q 578 951 558 929 q 599 1013 597 974 l 674 1013 q 634 892 671 938 q 538 847 597 847 z "},"ṍ":{"ha":882,"x_min":58,"x_max":824,"o":"m 442 -8 q 244 40 332 -8 q 108 174 157 89 q 58 368 58 260 q 108 562 58 476 q 244 695 157 647 q 442 743 332 743 q 638 695 551 743 q 774 562 725 647 q 824 368 824 476 q 774 174 824 260 q 638 40 725 89 q 442 -8 551 -8 m 442 108 q 569 141 513 108 q 657 233 625 174 q 689 368 689 292 q 657 503 689 444 q 569 594 625 563 q 442 626 513 626 q 315 594 371 626 q 226 503 258 563 q 193 368 193 444 q 226 233 193 292 q 315 141 258 174 q 442 108 371 108 m 538 850 q 477 861 503 850 q 418 894 451 872 q 350 925 375 925 q 286 856 289 925 l 211 856 q 248 960 213 922 q 344 999 283 999 q 402 988 376 999 q 461 954 428 976 q 500 931 485 939 q 532 924 515 924 q 578 942 563 924 q 596 992 594 960 l 669 992 q 633 888 668 926 q 538 850 597 850 m 508 1197 l 660 1197 l 454 1040 l 344 1040 l 508 1197 z "},"ṏ":{"ha":882,"x_min":58,"x_max":824,"o":"m 442 -8 q 244 40 332 -8 q 108 174 157 89 q 58 368 58 260 q 108 562 58 476 q 244 695 157 647 q 442 743 332 743 q 638 695 551 743 q 774 562 725 647 q 824 368 824 476 q 774 174 824 260 q 638 40 725 89 q 442 -8 551 -8 m 442 108 q 569 141 513 108 q 657 233 625 174 q 689 368 689 292 q 657 503 689 444 q 569 594 625 563 q 442 626 513 626 q 315 594 371 626 q 226 503 258 563 q 193 368 193 444 q 226 233 193 292 q 315 141 258 174 q 442 108 371 108 m 538 850 q 477 861 503 850 q 418 894 451 872 q 350 925 375 925 q 286 856 289 925 l 211 856 q 248 960 213 922 q 344 999 283 999 q 402 988 376 999 q 461 954 428 976 q 500 931 485 939 q 532 924 515 924 q 578 942 563 924 q 596 992 594 960 l 669 992 q 633 888 668 926 q 538 850 597 850 m 315 1064 q 266 1083 286 1064 q 246 1133 246 1103 q 266 1182 246 1163 q 315 1201 286 1201 q 363 1182 343 1201 q 383 1133 383 1163 q 363 1084 383 1104 q 315 1064 343 1064 m 567 1064 q 519 1084 539 1064 q 499 1133 499 1104 q 519 1182 499 1163 q 567 1201 539 1201 q 616 1182 596 1201 q 636 1133 636 1163 q 616 1084 636 1104 q 567 1064 596 1064 z "},"ȭ":{"ha":882,"x_min":58,"x_max":824,"o":"m 442 -8 q 244 40 332 -8 q 108 174 157 89 q 58 368 58 260 q 108 562 58 476 q 244 695 157 647 q 442 743 332 743 q 638 695 551 743 q 774 562 725 647 q 824 368 824 476 q 774 174 824 260 q 638 40 725 89 q 442 -8 551 -8 m 442 108 q 569 141 513 108 q 657 233 625 174 q 689 368 689 292 q 657 503 689 444 q 569 594 625 563 q 442 626 513 626 q 315 594 371 626 q 226 503 258 563 q 193 368 193 444 q 226 233 193 292 q 315 141 258 174 q 442 108 371 108 m 538 850 q 477 861 503 850 q 418 894 451 872 q 350 925 375 925 q 286 856 289 925 l 211 856 q 248 960 213 922 q 344 999 283 999 q 402 988 376 999 q 461 954 428 976 q 500 931 485 939 q 532 924 515 924 q 578 942 563 924 q 596 992 594 960 l 669 992 q 633 888 668 926 q 538 850 597 850 m 214 1150 l 667 1150 l 667 1071 l 214 1071 l 214 1150 z "},"œ":{"ha":1482,"x_min":58,"x_max":1422,"o":"m 1422 364 q 1421 324 1422 336 l 824 324 q 908 167 836 226 q 1089 108 981 108 q 1301 197 1222 108 l 1375 111 q 1251 22 1325 53 q 1085 -8 1176 -8 q 890 35 975 -8 q 756 157 804 79 q 626 35 708 79 q 442 -8 544 -8 q 244 40 332 -8 q 108 174 157 89 q 58 368 58 260 q 108 562 58 476 q 244 695 157 647 q 442 743 332 743 q 626 700 546 743 q 754 579 707 657 q 880 700 801 657 q 1058 743 958 743 q 1247 695 1164 743 q 1376 561 1329 647 q 1422 364 1422 475 m 1058 631 q 899 572 964 631 q 824 419 835 514 l 1296 419 q 1219 572 1285 513 q 1058 631 1154 631 m 442 108 q 569 141 513 108 q 657 233 625 174 q 689 368 689 292 q 657 503 689 444 q 569 594 625 563 q 442 626 513 626 q 315 594 371 626 q 226 503 258 563 q 193 368 193 444 q 226 233 193 292 q 315 141 258 174 q 442 108 371 108 z "},"p":{"ha":947,"x_min":126,"x_max":889,"o":"m 517 743 q 708 696 624 743 q 841 564 793 649 q 889 368 889 479 q 841 172 889 257 q 708 39 793 86 q 517 -8 624 -8 q 372 22 438 -8 q 260 111 306 53 l 260 -269 l 126 -269 l 126 736 l 254 736 l 254 619 q 367 712 299 681 q 517 743 435 743 m 506 108 q 633 141 576 108 q 722 233 689 174 q 754 368 754 292 q 722 503 754 444 q 633 594 689 563 q 506 626 576 626 q 380 594 436 626 q 291 503 324 561 q 258 368 258 444 q 290 233 258 292 q 379 141 322 174 q 506 108 436 108 z "},"þ":{"ha":947,"x_min":126,"x_max":889,"o":"m 517 743 q 708 696 624 743 q 841 564 793 649 q 889 368 889 479 q 841 172 889 257 q 708 39 793 86 q 517 -8 624 -8 q 372 22 438 -8 q 260 111 306 53 l 260 -269 l 126 -269 l 126 1031 l 260 1031 l 260 626 q 370 713 304 683 q 517 743 436 743 m 506 108 q 633 141 576 108 q 722 233 689 174 q 754 368 754 292 q 722 503 754 444 q 633 594 689 563 q 506 626 576 626 q 380 594 436 626 q 291 503 324 561 q 258 368 258 444 q 290 233 258 292 q 379 141 322 174 q 506 108 436 108 z "},"q":{"ha":947,"x_min":58,"x_max":821,"o":"m 821 736 l 821 -269 l 688 -269 l 688 111 q 576 22 642 53 q 431 -8 510 -8 q 239 39 324 -8 q 106 172 154 86 q 58 368 58 257 q 106 564 58 479 q 239 696 154 649 q 431 743 324 743 q 581 712 513 743 q 693 619 649 681 l 693 736 l 821 736 m 442 108 q 568 141 511 108 q 657 233 625 174 q 689 368 689 292 q 656 503 689 444 q 567 594 624 561 q 442 626 511 626 q 315 594 371 626 q 226 503 258 563 q 193 368 193 444 q 226 233 193 292 q 315 141 258 174 q 442 108 371 108 z "}}}
